<mxfile host="app.diagrams.net" agent="Mozilla/5.0 (Windows NT 10.0; Win64; x64) AppleWebKit/537.36 (KHTML, like Gecko) Chrome/129.0.0.0 Safari/537.36 Edg/129.0.0.0" version="24.7.16">
  <diagram name="Page-1" id="KK2ve8-fcnVfR_LdyIlR">
    <mxGraphModel dx="3169" dy="1664" grid="1" gridSize="10" guides="1" tooltips="1" connect="1" arrows="1" fold="1" page="1" pageScale="1" pageWidth="827" pageHeight="1169" math="0" shadow="0">
      <root>
        <mxCell id="0" />
        <mxCell id="1" parent="0" />
        <mxCell id="Equ55bX3IU3hU9m5Hj1D-1" value="" style="rounded=1;whiteSpace=wrap;html=1;arcSize=8;" vertex="1" parent="1">
          <mxGeometry x="170" y="40" width="950" height="1370" as="geometry" />
        </mxCell>
        <mxCell id="Equ55bX3IU3hU9m5Hj1D-2" value="" style="rounded=1;whiteSpace=wrap;html=1;arcSize=26;" vertex="1" parent="1">
          <mxGeometry x="1520" y="340" width="900" height="260" as="geometry" />
        </mxCell>
        <mxCell id="Equ55bX3IU3hU9m5Hj1D-3" value="" style="rounded=1;whiteSpace=wrap;html=1;arcSize=26;" vertex="1" parent="1">
          <mxGeometry x="1520" y="620" width="900" height="260" as="geometry" />
        </mxCell>
        <mxCell id="Equ55bX3IU3hU9m5Hj1D-4" value="" style="rounded=1;whiteSpace=wrap;html=1;arcSize=26;" vertex="1" parent="1">
          <mxGeometry x="1520" y="920" width="900" height="260" as="geometry" />
        </mxCell>
        <mxCell id="Equ55bX3IU3hU9m5Hj1D-5" value="" style="group" vertex="1" connectable="0" parent="1">
          <mxGeometry x="240" y="330" width="795.46" height="70" as="geometry" />
        </mxCell>
        <mxCell id="Equ55bX3IU3hU9m5Hj1D-6" value="" style="group" vertex="1" connectable="0" parent="Equ55bX3IU3hU9m5Hj1D-5">
          <mxGeometry width="795.46" height="70" as="geometry" />
        </mxCell>
        <mxCell id="Equ55bX3IU3hU9m5Hj1D-7" value="" style="rounded=0;whiteSpace=wrap;html=1;fillColor=#CFCFCF;strokeColor=#000000;shadow=1;aspect=fixed;strokeWidth=2;movable=1;resizable=1;rotatable=1;deletable=1;editable=1;locked=0;connectable=1;" vertex="1" parent="Equ55bX3IU3hU9m5Hj1D-6">
          <mxGeometry width="795.46" height="70" as="geometry" />
        </mxCell>
        <mxCell id="Equ55bX3IU3hU9m5Hj1D-8" value="" style="rounded=0;whiteSpace=wrap;html=1;fillColor=none;strokeColor=#000000;strokeWidth=2;movable=1;resizable=1;rotatable=1;deletable=1;editable=1;locked=0;connectable=1;" vertex="1" parent="Equ55bX3IU3hU9m5Hj1D-6">
          <mxGeometry x="30.19000000000002" width="736" height="70" as="geometry" />
        </mxCell>
        <mxCell id="Equ55bX3IU3hU9m5Hj1D-9" value="" style="group" vertex="1" connectable="0" parent="Equ55bX3IU3hU9m5Hj1D-5">
          <mxGeometry x="42.460000000000036" y="15" width="42" height="40" as="geometry" />
        </mxCell>
        <mxCell id="Equ55bX3IU3hU9m5Hj1D-10" value="" style="rounded=1;whiteSpace=wrap;html=1;fillColor=default;strokeColor=none;" vertex="1" parent="Equ55bX3IU3hU9m5Hj1D-9">
          <mxGeometry width="42" height="40" as="geometry" />
        </mxCell>
        <mxCell id="Equ55bX3IU3hU9m5Hj1D-11" value="" style="fontColor=#000000;verticalAlign=middle;verticalLabelPosition=middle;labelPosition=right;align=left;html=1;outlineConnect=0;fillColor=#d6d6d6;strokeColor=#999;gradientColor=none;gradientDirection=north;strokeWidth=2;shape=stencil(ZZExb8MgEIV/DWOQc6hJPaZpM3Xokrk6Y2JT2eCCXdqlv71HLlGCKoHgfe+E7h1C7WOPkxFQYZyMnoV6FgBfGCw2A2Egp2e4hoq1w9EwOjb2c7GzJfjqO892KsrVi6h2It8rofYnH0wX/OLawrjadsQu9xKD5kf6eZ6iUFR3oJVSklGji34J2kjtR4K/tEfTWqTzLfiPHAIOt7JCJNOQzr1GOp8CunZ1VcslzPtAQE6u4zjf3Mnq4VHWNaOfC9qAhHURGtRW1ptibPcoxygHQuTfTM6Uv+UM/gA=);labelBackgroundColor=none;shadow=0;glass=0;sketch=1;aspect=fixed;" vertex="1" parent="Equ55bX3IU3hU9m5Hj1D-9">
          <mxGeometry x="9" y="8" width="24" height="24" as="geometry" />
        </mxCell>
        <mxCell id="Equ55bX3IU3hU9m5Hj1D-12" value="" style="group" vertex="1" connectable="0" parent="Equ55bX3IU3hU9m5Hj1D-5">
          <mxGeometry x="709.46" y="14.5" width="26" height="41" as="geometry" />
        </mxCell>
        <mxCell id="Equ55bX3IU3hU9m5Hj1D-13" value="" style="group" vertex="1" connectable="0" parent="Equ55bX3IU3hU9m5Hj1D-12">
          <mxGeometry width="26" height="41" as="geometry" />
        </mxCell>
        <mxCell id="Equ55bX3IU3hU9m5Hj1D-14" value="" style="rounded=0;whiteSpace=wrap;html=1;fillColor=#000000;strokeColor=none;" vertex="1" parent="Equ55bX3IU3hU9m5Hj1D-13">
          <mxGeometry width="26" height="16" as="geometry" />
        </mxCell>
        <mxCell id="Equ55bX3IU3hU9m5Hj1D-15" value="" style="rounded=0;whiteSpace=wrap;html=1;fillColor=#000000;strokeColor=none;" vertex="1" parent="Equ55bX3IU3hU9m5Hj1D-13">
          <mxGeometry y="25" width="26" height="16" as="geometry" />
        </mxCell>
        <mxCell id="Equ55bX3IU3hU9m5Hj1D-16" value="" style="rounded=0;whiteSpace=wrap;html=1;fillColor=#000000;strokeColor=none;" vertex="1" parent="Equ55bX3IU3hU9m5Hj1D-5">
          <mxGeometry x="682.46" y="39.5" width="18" height="16" as="geometry" />
        </mxCell>
        <mxCell id="Equ55bX3IU3hU9m5Hj1D-17" value="" style="rounded=0;whiteSpace=wrap;html=1;fillColor=#000000;strokeColor=none;" vertex="1" parent="Equ55bX3IU3hU9m5Hj1D-5">
          <mxGeometry x="682.46" y="14.5" width="18" height="16" as="geometry" />
        </mxCell>
        <mxCell id="Equ55bX3IU3hU9m5Hj1D-18" value="" style="group" vertex="1" connectable="0" parent="1">
          <mxGeometry x="240" y="460" width="795.46" height="70" as="geometry" />
        </mxCell>
        <mxCell id="Equ55bX3IU3hU9m5Hj1D-19" value="" style="group" vertex="1" connectable="0" parent="Equ55bX3IU3hU9m5Hj1D-18">
          <mxGeometry width="795.46" height="70" as="geometry" />
        </mxCell>
        <mxCell id="Equ55bX3IU3hU9m5Hj1D-20" value="" style="rounded=0;whiteSpace=wrap;html=1;fillColor=#CFCFCF;strokeColor=#000000;shadow=1;aspect=fixed;strokeWidth=2;movable=1;resizable=1;rotatable=1;deletable=1;editable=1;locked=0;connectable=1;container=0;" vertex="1" parent="Equ55bX3IU3hU9m5Hj1D-19">
          <mxGeometry width="795.46" height="70" as="geometry" />
        </mxCell>
        <mxCell id="Equ55bX3IU3hU9m5Hj1D-21" value="" style="rounded=0;whiteSpace=wrap;html=1;fillColor=none;strokeColor=#000000;strokeWidth=2;container=0;" vertex="1" parent="Equ55bX3IU3hU9m5Hj1D-19">
          <mxGeometry x="30.190000000000055" width="736" height="70" as="geometry" />
        </mxCell>
        <mxCell id="Equ55bX3IU3hU9m5Hj1D-22" value="" style="group" vertex="1" connectable="0" parent="Equ55bX3IU3hU9m5Hj1D-18">
          <mxGeometry x="709" y="14.5" width="26" height="41" as="geometry" />
        </mxCell>
        <mxCell id="Equ55bX3IU3hU9m5Hj1D-23" value="" style="rounded=0;whiteSpace=wrap;html=1;fillColor=#000000;strokeColor=none;container=0;" vertex="1" parent="Equ55bX3IU3hU9m5Hj1D-22">
          <mxGeometry width="26" height="16" as="geometry" />
        </mxCell>
        <mxCell id="Equ55bX3IU3hU9m5Hj1D-24" value="" style="rounded=0;whiteSpace=wrap;html=1;fillColor=#000000;strokeColor=none;container=0;" vertex="1" parent="Equ55bX3IU3hU9m5Hj1D-22">
          <mxGeometry y="25" width="26" height="16" as="geometry" />
        </mxCell>
        <mxCell id="Equ55bX3IU3hU9m5Hj1D-25" value="" style="group" vertex="1" connectable="0" parent="Equ55bX3IU3hU9m5Hj1D-18">
          <mxGeometry x="674" y="14.5" width="26" height="41" as="geometry" />
        </mxCell>
        <mxCell id="Equ55bX3IU3hU9m5Hj1D-26" value="" style="rounded=0;whiteSpace=wrap;html=1;fillColor=#000000;strokeColor=none;container=0;" vertex="1" parent="Equ55bX3IU3hU9m5Hj1D-25">
          <mxGeometry width="26" height="16" as="geometry" />
        </mxCell>
        <mxCell id="Equ55bX3IU3hU9m5Hj1D-27" value="" style="rounded=0;whiteSpace=wrap;html=1;fillColor=#000000;strokeColor=none;container=0;" vertex="1" parent="Equ55bX3IU3hU9m5Hj1D-25">
          <mxGeometry y="25" width="26" height="16" as="geometry" />
        </mxCell>
        <mxCell id="Equ55bX3IU3hU9m5Hj1D-28" value="" style="group" vertex="1" connectable="0" parent="Equ55bX3IU3hU9m5Hj1D-18">
          <mxGeometry x="42.460000000000036" y="15" width="42" height="40" as="geometry" />
        </mxCell>
        <mxCell id="Equ55bX3IU3hU9m5Hj1D-29" value="" style="rounded=1;whiteSpace=wrap;html=1;fillColor=default;strokeColor=none;container=0;" vertex="1" parent="Equ55bX3IU3hU9m5Hj1D-28">
          <mxGeometry width="42" height="40" as="geometry" />
        </mxCell>
        <mxCell id="Equ55bX3IU3hU9m5Hj1D-30" value="" style="fontColor=#000000;verticalAlign=middle;verticalLabelPosition=middle;labelPosition=right;align=left;html=1;outlineConnect=0;fillColor=#d6d6d6;strokeColor=#999;gradientColor=none;gradientDirection=north;strokeWidth=2;shape=stencil(ZZExb8MgEIV/DWOQc6hJPaZpM3Xokrk6Y2JT2eCCXdqlv71HLlGCKoHgfe+E7h1C7WOPkxFQYZyMnoV6FgBfGCw2A2Egp2e4hoq1w9EwOjb2c7GzJfjqO892KsrVi6h2It8rofYnH0wX/OLawrjadsQu9xKD5kf6eZ6iUFR3oJVSklGji34J2kjtR4K/tEfTWqTzLfiPHAIOt7JCJNOQzr1GOp8CunZ1VcslzPtAQE6u4zjf3Mnq4VHWNaOfC9qAhHURGtRW1ptibPcoxygHQuTfTM6Uv+UM/gA=);labelBackgroundColor=none;shadow=0;glass=0;sketch=1;aspect=fixed;container=0;" vertex="1" parent="Equ55bX3IU3hU9m5Hj1D-28">
          <mxGeometry x="9" y="8" width="24" height="24" as="geometry" />
        </mxCell>
        <mxCell id="Equ55bX3IU3hU9m5Hj1D-31" value="" style="group" vertex="1" connectable="0" parent="Equ55bX3IU3hU9m5Hj1D-18">
          <mxGeometry x="268" y="14.5" width="390" height="41" as="geometry" />
        </mxCell>
        <mxCell id="Equ55bX3IU3hU9m5Hj1D-32" value="" style="rounded=0;whiteSpace=wrap;html=1;fillColor=#000000;strokeColor=none;container=0;" vertex="1" parent="Equ55bX3IU3hU9m5Hj1D-31">
          <mxGeometry x="364" width="26" height="16" as="geometry" />
        </mxCell>
        <mxCell id="Equ55bX3IU3hU9m5Hj1D-33" value="" style="rounded=0;whiteSpace=wrap;html=1;fillColor=#000000;strokeColor=none;container=0;" vertex="1" parent="Equ55bX3IU3hU9m5Hj1D-31">
          <mxGeometry x="364" y="25" width="26" height="16" as="geometry" />
        </mxCell>
        <mxCell id="Equ55bX3IU3hU9m5Hj1D-34" value="" style="rounded=0;whiteSpace=wrap;html=1;fillColor=#000000;strokeColor=none;container=0;" vertex="1" parent="Equ55bX3IU3hU9m5Hj1D-31">
          <mxGeometry x="336" width="26" height="16" as="geometry" />
        </mxCell>
        <mxCell id="Equ55bX3IU3hU9m5Hj1D-35" style="edgeStyle=orthogonalEdgeStyle;rounded=0;orthogonalLoop=1;jettySize=auto;html=1;exitX=0.5;exitY=1;exitDx=0;exitDy=0;" edge="1" parent="Equ55bX3IU3hU9m5Hj1D-31" source="Equ55bX3IU3hU9m5Hj1D-36">
          <mxGeometry relative="1" as="geometry">
            <mxPoint x="1803.25" y="35.5" as="targetPoint" />
            <Array as="points">
              <mxPoint x="349" y="86" />
              <mxPoint x="1803" y="86" />
            </Array>
          </mxGeometry>
        </mxCell>
        <mxCell id="Equ55bX3IU3hU9m5Hj1D-36" value="" style="rounded=0;whiteSpace=wrap;html=1;fillColor=#000000;strokeColor=none;container=0;" vertex="1" parent="Equ55bX3IU3hU9m5Hj1D-31">
          <mxGeometry x="336" y="25" width="26" height="16" as="geometry" />
        </mxCell>
        <mxCell id="Equ55bX3IU3hU9m5Hj1D-37" value="" style="rounded=0;whiteSpace=wrap;html=1;fillColor=#000000;strokeColor=none;container=0;" vertex="1" parent="Equ55bX3IU3hU9m5Hj1D-31">
          <mxGeometry x="308" width="26" height="16" as="geometry" />
        </mxCell>
        <mxCell id="Equ55bX3IU3hU9m5Hj1D-38" value="" style="rounded=0;whiteSpace=wrap;html=1;fillColor=#000000;strokeColor=none;container=0;" vertex="1" parent="Equ55bX3IU3hU9m5Hj1D-31">
          <mxGeometry x="308" y="25" width="26" height="16" as="geometry" />
        </mxCell>
        <mxCell id="Equ55bX3IU3hU9m5Hj1D-39" value="" style="rounded=0;whiteSpace=wrap;html=1;fillColor=#000000;strokeColor=none;container=0;" vertex="1" parent="Equ55bX3IU3hU9m5Hj1D-31">
          <mxGeometry x="280" width="26" height="16" as="geometry" />
        </mxCell>
        <mxCell id="Equ55bX3IU3hU9m5Hj1D-40" value="" style="rounded=0;whiteSpace=wrap;html=1;fillColor=#000000;strokeColor=none;container=0;" vertex="1" parent="Equ55bX3IU3hU9m5Hj1D-31">
          <mxGeometry x="280" y="25" width="26" height="16" as="geometry" />
        </mxCell>
        <mxCell id="Equ55bX3IU3hU9m5Hj1D-41" value="" style="rounded=0;whiteSpace=wrap;html=1;fillColor=#000000;strokeColor=none;container=0;" vertex="1" parent="Equ55bX3IU3hU9m5Hj1D-31">
          <mxGeometry x="252" width="26" height="16" as="geometry" />
        </mxCell>
        <mxCell id="Equ55bX3IU3hU9m5Hj1D-42" value="" style="rounded=0;whiteSpace=wrap;html=1;fillColor=#000000;strokeColor=none;container=0;" vertex="1" parent="Equ55bX3IU3hU9m5Hj1D-31">
          <mxGeometry x="252" y="25" width="26" height="16" as="geometry" />
        </mxCell>
        <mxCell id="Equ55bX3IU3hU9m5Hj1D-43" value="" style="rounded=0;whiteSpace=wrap;html=1;fillColor=#000000;strokeColor=none;container=0;" vertex="1" parent="Equ55bX3IU3hU9m5Hj1D-31">
          <mxGeometry x="224" width="26" height="16" as="geometry" />
        </mxCell>
        <mxCell id="Equ55bX3IU3hU9m5Hj1D-44" value="" style="rounded=0;whiteSpace=wrap;html=1;fillColor=#000000;strokeColor=none;container=0;" vertex="1" parent="Equ55bX3IU3hU9m5Hj1D-31">
          <mxGeometry x="224" y="25" width="26" height="16" as="geometry" />
        </mxCell>
        <mxCell id="Equ55bX3IU3hU9m5Hj1D-45" value="" style="rounded=0;whiteSpace=wrap;html=1;fillColor=#000000;strokeColor=none;container=0;" vertex="1" parent="Equ55bX3IU3hU9m5Hj1D-31">
          <mxGeometry x="196" width="26" height="16" as="geometry" />
        </mxCell>
        <mxCell id="Equ55bX3IU3hU9m5Hj1D-46" value="" style="rounded=0;whiteSpace=wrap;html=1;fillColor=#000000;strokeColor=none;container=0;" vertex="1" parent="Equ55bX3IU3hU9m5Hj1D-31">
          <mxGeometry x="196" y="25" width="26" height="16" as="geometry" />
        </mxCell>
        <mxCell id="Equ55bX3IU3hU9m5Hj1D-47" value="" style="rounded=0;whiteSpace=wrap;html=1;fillColor=#000000;strokeColor=none;container=0;" vertex="1" parent="Equ55bX3IU3hU9m5Hj1D-31">
          <mxGeometry x="168" width="26" height="16" as="geometry" />
        </mxCell>
        <mxCell id="Equ55bX3IU3hU9m5Hj1D-48" value="" style="rounded=0;whiteSpace=wrap;html=1;fillColor=#000000;strokeColor=none;container=0;" vertex="1" parent="Equ55bX3IU3hU9m5Hj1D-31">
          <mxGeometry x="168" y="25" width="26" height="16" as="geometry" />
        </mxCell>
        <mxCell id="Equ55bX3IU3hU9m5Hj1D-49" value="" style="rounded=0;whiteSpace=wrap;html=1;fillColor=#000000;strokeColor=none;container=0;" vertex="1" parent="Equ55bX3IU3hU9m5Hj1D-31">
          <mxGeometry x="140" width="26" height="16" as="geometry" />
        </mxCell>
        <mxCell id="Equ55bX3IU3hU9m5Hj1D-50" value="" style="rounded=0;whiteSpace=wrap;html=1;fillColor=#000000;strokeColor=none;container=0;" vertex="1" parent="Equ55bX3IU3hU9m5Hj1D-31">
          <mxGeometry x="140" y="25" width="26" height="16" as="geometry" />
        </mxCell>
        <mxCell id="Equ55bX3IU3hU9m5Hj1D-51" value="" style="rounded=0;whiteSpace=wrap;html=1;fillColor=#000000;strokeColor=none;container=0;" vertex="1" parent="Equ55bX3IU3hU9m5Hj1D-31">
          <mxGeometry x="112" width="26" height="16" as="geometry" />
        </mxCell>
        <mxCell id="Equ55bX3IU3hU9m5Hj1D-52" value="" style="rounded=0;whiteSpace=wrap;html=1;fillColor=#000000;strokeColor=none;container=0;" vertex="1" parent="Equ55bX3IU3hU9m5Hj1D-31">
          <mxGeometry x="112" y="25" width="26" height="16" as="geometry" />
        </mxCell>
        <mxCell id="Equ55bX3IU3hU9m5Hj1D-53" value="" style="rounded=0;whiteSpace=wrap;html=1;fillColor=#000000;strokeColor=none;container=0;" vertex="1" parent="Equ55bX3IU3hU9m5Hj1D-31">
          <mxGeometry x="84" width="26" height="16" as="geometry" />
        </mxCell>
        <mxCell id="Equ55bX3IU3hU9m5Hj1D-54" value="" style="rounded=0;whiteSpace=wrap;html=1;fillColor=#000000;strokeColor=none;container=0;" vertex="1" parent="Equ55bX3IU3hU9m5Hj1D-31">
          <mxGeometry x="84" y="25" width="26" height="16" as="geometry" />
        </mxCell>
        <mxCell id="Equ55bX3IU3hU9m5Hj1D-55" value="" style="rounded=0;whiteSpace=wrap;html=1;fillColor=#000000;strokeColor=none;container=0;" vertex="1" parent="Equ55bX3IU3hU9m5Hj1D-31">
          <mxGeometry x="56" width="26" height="16" as="geometry" />
        </mxCell>
        <mxCell id="Equ55bX3IU3hU9m5Hj1D-56" value="" style="rounded=0;whiteSpace=wrap;html=1;fillColor=#000000;strokeColor=none;container=0;" vertex="1" parent="Equ55bX3IU3hU9m5Hj1D-31">
          <mxGeometry x="56" y="25" width="26" height="16" as="geometry" />
        </mxCell>
        <mxCell id="Equ55bX3IU3hU9m5Hj1D-57" value="" style="rounded=0;whiteSpace=wrap;html=1;fillColor=#000000;strokeColor=none;container=0;" vertex="1" parent="Equ55bX3IU3hU9m5Hj1D-31">
          <mxGeometry x="28" width="26" height="16" as="geometry" />
        </mxCell>
        <mxCell id="Equ55bX3IU3hU9m5Hj1D-58" value="" style="rounded=0;whiteSpace=wrap;html=1;fillColor=#000000;strokeColor=none;container=0;" vertex="1" parent="Equ55bX3IU3hU9m5Hj1D-31">
          <mxGeometry x="28" y="25" width="26" height="16" as="geometry" />
        </mxCell>
        <mxCell id="Equ55bX3IU3hU9m5Hj1D-59" value="" style="rounded=0;whiteSpace=wrap;html=1;fillColor=#000000;strokeColor=none;container=0;" vertex="1" parent="Equ55bX3IU3hU9m5Hj1D-31">
          <mxGeometry width="26" height="16" as="geometry" />
        </mxCell>
        <mxCell id="Equ55bX3IU3hU9m5Hj1D-60" value="" style="rounded=0;whiteSpace=wrap;html=1;fillColor=#000000;strokeColor=none;container=0;" vertex="1" parent="Equ55bX3IU3hU9m5Hj1D-31">
          <mxGeometry y="25" width="26" height="16" as="geometry" />
        </mxCell>
        <mxCell id="Equ55bX3IU3hU9m5Hj1D-61" value="" style="group" vertex="1" connectable="0" parent="1">
          <mxGeometry x="240" y="880" width="795.46" height="70" as="geometry" />
        </mxCell>
        <mxCell id="Equ55bX3IU3hU9m5Hj1D-62" value="" style="group" vertex="1" connectable="0" parent="Equ55bX3IU3hU9m5Hj1D-61">
          <mxGeometry width="795.46" height="70" as="geometry" />
        </mxCell>
        <mxCell id="Equ55bX3IU3hU9m5Hj1D-63" value="" style="rounded=0;whiteSpace=wrap;html=1;fillColor=#CFCFCF;strokeColor=#000000;shadow=1;aspect=fixed;strokeWidth=2;movable=1;resizable=1;rotatable=1;deletable=1;editable=1;locked=0;connectable=1;container=0;" vertex="1" parent="Equ55bX3IU3hU9m5Hj1D-62">
          <mxGeometry width="795.46" height="70" as="geometry" />
        </mxCell>
        <mxCell id="Equ55bX3IU3hU9m5Hj1D-64" value="" style="rounded=0;whiteSpace=wrap;html=1;fillColor=none;strokeColor=#000000;strokeWidth=2;container=0;" vertex="1" parent="Equ55bX3IU3hU9m5Hj1D-62">
          <mxGeometry x="30.190000000000055" width="736" height="70" as="geometry" />
        </mxCell>
        <mxCell id="Equ55bX3IU3hU9m5Hj1D-65" value="" style="group" vertex="1" connectable="0" parent="Equ55bX3IU3hU9m5Hj1D-61">
          <mxGeometry x="709.46" y="14.5" width="26" height="41" as="geometry" />
        </mxCell>
        <mxCell id="Equ55bX3IU3hU9m5Hj1D-66" value="" style="rounded=0;whiteSpace=wrap;html=1;fillColor=#000000;strokeColor=none;container=0;" vertex="1" parent="Equ55bX3IU3hU9m5Hj1D-65">
          <mxGeometry width="26" height="16" as="geometry" />
        </mxCell>
        <mxCell id="Equ55bX3IU3hU9m5Hj1D-67" value="" style="rounded=0;whiteSpace=wrap;html=1;fillColor=#000000;strokeColor=none;container=0;" vertex="1" parent="Equ55bX3IU3hU9m5Hj1D-65">
          <mxGeometry y="25" width="26" height="16" as="geometry" />
        </mxCell>
        <mxCell id="Equ55bX3IU3hU9m5Hj1D-68" value="" style="group" vertex="1" connectable="0" parent="Equ55bX3IU3hU9m5Hj1D-61">
          <mxGeometry x="674" y="14.5" width="26" height="41" as="geometry" />
        </mxCell>
        <mxCell id="Equ55bX3IU3hU9m5Hj1D-69" value="" style="rounded=0;whiteSpace=wrap;html=1;fillColor=#000000;strokeColor=none;container=0;" vertex="1" parent="Equ55bX3IU3hU9m5Hj1D-68">
          <mxGeometry width="26" height="16" as="geometry" />
        </mxCell>
        <mxCell id="Equ55bX3IU3hU9m5Hj1D-70" value="" style="rounded=0;whiteSpace=wrap;html=1;fillColor=#000000;strokeColor=none;container=0;" vertex="1" parent="Equ55bX3IU3hU9m5Hj1D-68">
          <mxGeometry y="25" width="26" height="16" as="geometry" />
        </mxCell>
        <mxCell id="Equ55bX3IU3hU9m5Hj1D-71" value="" style="group" vertex="1" connectable="0" parent="Equ55bX3IU3hU9m5Hj1D-61">
          <mxGeometry x="42.460000000000036" y="15" width="42" height="40" as="geometry" />
        </mxCell>
        <mxCell id="Equ55bX3IU3hU9m5Hj1D-72" value="" style="rounded=1;whiteSpace=wrap;html=1;fillColor=default;strokeColor=none;container=0;" vertex="1" parent="Equ55bX3IU3hU9m5Hj1D-71">
          <mxGeometry width="42" height="40" as="geometry" />
        </mxCell>
        <mxCell id="Equ55bX3IU3hU9m5Hj1D-73" value="" style="fontColor=#000000;verticalAlign=middle;verticalLabelPosition=middle;labelPosition=right;align=left;html=1;outlineConnect=0;fillColor=#d6d6d6;strokeColor=#999;gradientColor=none;gradientDirection=north;strokeWidth=2;shape=stencil(ZZExb8MgEIV/DWOQc6hJPaZpM3Xokrk6Y2JT2eCCXdqlv71HLlGCKoHgfe+E7h1C7WOPkxFQYZyMnoV6FgBfGCw2A2Egp2e4hoq1w9EwOjb2c7GzJfjqO892KsrVi6h2It8rofYnH0wX/OLawrjadsQu9xKD5kf6eZ6iUFR3oJVSklGji34J2kjtR4K/tEfTWqTzLfiPHAIOt7JCJNOQzr1GOp8CunZ1VcslzPtAQE6u4zjf3Mnq4VHWNaOfC9qAhHURGtRW1ptibPcoxygHQuTfTM6Uv+UM/gA=);labelBackgroundColor=none;shadow=0;glass=0;sketch=1;aspect=fixed;container=0;" vertex="1" parent="Equ55bX3IU3hU9m5Hj1D-71">
          <mxGeometry x="9" y="8" width="24" height="24" as="geometry" />
        </mxCell>
        <mxCell id="Equ55bX3IU3hU9m5Hj1D-74" value="" style="group" vertex="1" connectable="0" parent="Equ55bX3IU3hU9m5Hj1D-61">
          <mxGeometry x="104" y="17.5" width="172" height="35" as="geometry" />
        </mxCell>
        <mxCell id="Equ55bX3IU3hU9m5Hj1D-75" value="" style="rounded=0;whiteSpace=wrap;html=1;fillColor=#000000;strokeColor=none;" vertex="1" parent="Equ55bX3IU3hU9m5Hj1D-74">
          <mxGeometry x="110" width="18" height="16" as="geometry" />
        </mxCell>
        <mxCell id="Equ55bX3IU3hU9m5Hj1D-76" value="" style="rounded=0;whiteSpace=wrap;html=1;fillColor=#000000;strokeColor=none;" vertex="1" parent="Equ55bX3IU3hU9m5Hj1D-74">
          <mxGeometry x="88" width="18" height="16" as="geometry" />
        </mxCell>
        <mxCell id="Equ55bX3IU3hU9m5Hj1D-77" value="" style="rounded=0;whiteSpace=wrap;html=1;fillColor=#000000;strokeColor=none;" vertex="1" parent="Equ55bX3IU3hU9m5Hj1D-74">
          <mxGeometry x="66" width="18" height="16" as="geometry" />
        </mxCell>
        <mxCell id="Equ55bX3IU3hU9m5Hj1D-78" value="" style="rounded=0;whiteSpace=wrap;html=1;fillColor=#000000;strokeColor=none;" vertex="1" parent="Equ55bX3IU3hU9m5Hj1D-74">
          <mxGeometry x="44" width="18" height="16" as="geometry" />
        </mxCell>
        <mxCell id="Equ55bX3IU3hU9m5Hj1D-79" value="" style="rounded=0;whiteSpace=wrap;html=1;fillColor=#000000;strokeColor=none;" vertex="1" parent="Equ55bX3IU3hU9m5Hj1D-74">
          <mxGeometry x="22" width="18" height="16" as="geometry" />
        </mxCell>
        <mxCell id="Equ55bX3IU3hU9m5Hj1D-80" value="" style="rounded=0;whiteSpace=wrap;html=1;fillColor=#000000;strokeColor=none;" vertex="1" parent="Equ55bX3IU3hU9m5Hj1D-74">
          <mxGeometry width="18" height="16" as="geometry" />
        </mxCell>
        <mxCell id="Equ55bX3IU3hU9m5Hj1D-81" value="" style="rounded=0;whiteSpace=wrap;html=1;fillColor=#000000;strokeColor=none;" vertex="1" parent="Equ55bX3IU3hU9m5Hj1D-74">
          <mxGeometry y="19" width="18" height="16" as="geometry" />
        </mxCell>
        <mxCell id="Equ55bX3IU3hU9m5Hj1D-82" value="" style="rounded=0;whiteSpace=wrap;html=1;fillColor=#000000;strokeColor=none;" vertex="1" parent="Equ55bX3IU3hU9m5Hj1D-74">
          <mxGeometry x="22" y="19" width="18" height="16" as="geometry" />
        </mxCell>
        <mxCell id="Equ55bX3IU3hU9m5Hj1D-83" value="" style="rounded=0;whiteSpace=wrap;html=1;fillColor=#000000;strokeColor=none;" vertex="1" parent="Equ55bX3IU3hU9m5Hj1D-74">
          <mxGeometry x="44" y="19" width="18" height="16" as="geometry" />
        </mxCell>
        <mxCell id="Equ55bX3IU3hU9m5Hj1D-84" value="" style="rounded=0;whiteSpace=wrap;html=1;fillColor=#000000;strokeColor=none;" vertex="1" parent="Equ55bX3IU3hU9m5Hj1D-74">
          <mxGeometry x="66" y="19" width="18" height="16" as="geometry" />
        </mxCell>
        <mxCell id="Equ55bX3IU3hU9m5Hj1D-85" value="" style="rounded=0;whiteSpace=wrap;html=1;fillColor=#000000;strokeColor=none;" vertex="1" parent="Equ55bX3IU3hU9m5Hj1D-74">
          <mxGeometry x="88" y="19" width="18" height="16" as="geometry" />
        </mxCell>
        <mxCell id="Equ55bX3IU3hU9m5Hj1D-86" value="" style="rounded=0;whiteSpace=wrap;html=1;fillColor=#000000;strokeColor=none;" vertex="1" parent="Equ55bX3IU3hU9m5Hj1D-74">
          <mxGeometry x="110" y="19" width="18" height="16" as="geometry" />
        </mxCell>
        <mxCell id="Equ55bX3IU3hU9m5Hj1D-87" value="" style="rounded=0;whiteSpace=wrap;html=1;fillColor=#000000;strokeColor=none;" vertex="1" parent="Equ55bX3IU3hU9m5Hj1D-74">
          <mxGeometry x="132" width="18" height="16" as="geometry" />
        </mxCell>
        <mxCell id="Equ55bX3IU3hU9m5Hj1D-88" value="" style="rounded=0;whiteSpace=wrap;html=1;fillColor=#000000;strokeColor=none;" vertex="1" parent="Equ55bX3IU3hU9m5Hj1D-74">
          <mxGeometry x="132" y="19" width="18" height="16" as="geometry" />
        </mxCell>
        <mxCell id="Equ55bX3IU3hU9m5Hj1D-89" value="" style="rounded=0;whiteSpace=wrap;html=1;fillColor=#000000;strokeColor=none;" vertex="1" parent="Equ55bX3IU3hU9m5Hj1D-74">
          <mxGeometry x="154" width="18" height="16" as="geometry" />
        </mxCell>
        <mxCell id="Equ55bX3IU3hU9m5Hj1D-90" value="" style="rounded=0;whiteSpace=wrap;html=1;fillColor=#000000;strokeColor=none;" vertex="1" parent="Equ55bX3IU3hU9m5Hj1D-74">
          <mxGeometry x="154" y="19" width="18" height="16" as="geometry" />
        </mxCell>
        <mxCell id="Equ55bX3IU3hU9m5Hj1D-91" value="" style="group" vertex="1" connectable="0" parent="Equ55bX3IU3hU9m5Hj1D-61">
          <mxGeometry x="483" y="17.5" width="172" height="35" as="geometry" />
        </mxCell>
        <mxCell id="Equ55bX3IU3hU9m5Hj1D-92" value="" style="rounded=0;whiteSpace=wrap;html=1;fillColor=#000000;strokeColor=none;" vertex="1" parent="Equ55bX3IU3hU9m5Hj1D-91">
          <mxGeometry x="110" width="18" height="16" as="geometry" />
        </mxCell>
        <mxCell id="Equ55bX3IU3hU9m5Hj1D-93" value="" style="rounded=0;whiteSpace=wrap;html=1;fillColor=#000000;strokeColor=none;" vertex="1" parent="Equ55bX3IU3hU9m5Hj1D-91">
          <mxGeometry x="88" width="18" height="16" as="geometry" />
        </mxCell>
        <mxCell id="Equ55bX3IU3hU9m5Hj1D-94" value="" style="rounded=0;whiteSpace=wrap;html=1;fillColor=#000000;strokeColor=none;" vertex="1" parent="Equ55bX3IU3hU9m5Hj1D-91">
          <mxGeometry x="66" width="18" height="16" as="geometry" />
        </mxCell>
        <mxCell id="Equ55bX3IU3hU9m5Hj1D-95" value="" style="rounded=0;whiteSpace=wrap;html=1;fillColor=#000000;strokeColor=none;" vertex="1" parent="Equ55bX3IU3hU9m5Hj1D-91">
          <mxGeometry x="44" width="18" height="16" as="geometry" />
        </mxCell>
        <mxCell id="Equ55bX3IU3hU9m5Hj1D-96" value="" style="rounded=0;whiteSpace=wrap;html=1;fillColor=#000000;strokeColor=none;" vertex="1" parent="Equ55bX3IU3hU9m5Hj1D-91">
          <mxGeometry x="22" width="18" height="16" as="geometry" />
        </mxCell>
        <mxCell id="Equ55bX3IU3hU9m5Hj1D-97" value="" style="rounded=0;whiteSpace=wrap;html=1;fillColor=#000000;strokeColor=none;" vertex="1" parent="Equ55bX3IU3hU9m5Hj1D-91">
          <mxGeometry width="18" height="16" as="geometry" />
        </mxCell>
        <mxCell id="Equ55bX3IU3hU9m5Hj1D-98" value="" style="rounded=0;whiteSpace=wrap;html=1;fillColor=#000000;strokeColor=none;" vertex="1" parent="Equ55bX3IU3hU9m5Hj1D-91">
          <mxGeometry y="19" width="18" height="16" as="geometry" />
        </mxCell>
        <mxCell id="Equ55bX3IU3hU9m5Hj1D-99" value="" style="rounded=0;whiteSpace=wrap;html=1;fillColor=#000000;strokeColor=none;" vertex="1" parent="Equ55bX3IU3hU9m5Hj1D-91">
          <mxGeometry x="22" y="19" width="18" height="16" as="geometry" />
        </mxCell>
        <mxCell id="Equ55bX3IU3hU9m5Hj1D-100" value="" style="rounded=0;whiteSpace=wrap;html=1;fillColor=#000000;strokeColor=none;" vertex="1" parent="Equ55bX3IU3hU9m5Hj1D-91">
          <mxGeometry x="44" y="19" width="18" height="16" as="geometry" />
        </mxCell>
        <mxCell id="Equ55bX3IU3hU9m5Hj1D-101" value="" style="rounded=0;whiteSpace=wrap;html=1;fillColor=#000000;strokeColor=none;" vertex="1" parent="Equ55bX3IU3hU9m5Hj1D-91">
          <mxGeometry x="66" y="19" width="18" height="16" as="geometry" />
        </mxCell>
        <mxCell id="Equ55bX3IU3hU9m5Hj1D-102" value="" style="rounded=0;whiteSpace=wrap;html=1;fillColor=#000000;strokeColor=none;" vertex="1" parent="Equ55bX3IU3hU9m5Hj1D-91">
          <mxGeometry x="88" y="19" width="18" height="16" as="geometry" />
        </mxCell>
        <mxCell id="Equ55bX3IU3hU9m5Hj1D-103" value="" style="rounded=0;whiteSpace=wrap;html=1;fillColor=#000000;strokeColor=none;" vertex="1" parent="Equ55bX3IU3hU9m5Hj1D-91">
          <mxGeometry x="110" y="19" width="18" height="16" as="geometry" />
        </mxCell>
        <mxCell id="Equ55bX3IU3hU9m5Hj1D-104" value="" style="rounded=0;whiteSpace=wrap;html=1;fillColor=#000000;strokeColor=none;" vertex="1" parent="Equ55bX3IU3hU9m5Hj1D-91">
          <mxGeometry x="132" width="18" height="16" as="geometry" />
        </mxCell>
        <mxCell id="Equ55bX3IU3hU9m5Hj1D-105" value="" style="rounded=0;whiteSpace=wrap;html=1;fillColor=#000000;strokeColor=none;" vertex="1" parent="Equ55bX3IU3hU9m5Hj1D-91">
          <mxGeometry x="132" y="19" width="18" height="16" as="geometry" />
        </mxCell>
        <mxCell id="Equ55bX3IU3hU9m5Hj1D-106" value="" style="rounded=0;whiteSpace=wrap;html=1;fillColor=#000000;strokeColor=none;" vertex="1" parent="Equ55bX3IU3hU9m5Hj1D-91">
          <mxGeometry x="154" width="18" height="16" as="geometry" />
        </mxCell>
        <mxCell id="Equ55bX3IU3hU9m5Hj1D-107" value="" style="rounded=0;whiteSpace=wrap;html=1;fillColor=#000000;strokeColor=none;" vertex="1" parent="Equ55bX3IU3hU9m5Hj1D-91">
          <mxGeometry x="154" y="19" width="18" height="16" as="geometry" />
        </mxCell>
        <mxCell id="Equ55bX3IU3hU9m5Hj1D-108" value="" style="group" vertex="1" connectable="0" parent="Equ55bX3IU3hU9m5Hj1D-61">
          <mxGeometry x="293" y="17.5" width="172" height="35" as="geometry" />
        </mxCell>
        <mxCell id="Equ55bX3IU3hU9m5Hj1D-109" value="" style="rounded=0;whiteSpace=wrap;html=1;fillColor=#000000;strokeColor=none;" vertex="1" parent="Equ55bX3IU3hU9m5Hj1D-108">
          <mxGeometry x="110" width="18" height="16" as="geometry" />
        </mxCell>
        <mxCell id="Equ55bX3IU3hU9m5Hj1D-110" value="" style="rounded=0;whiteSpace=wrap;html=1;fillColor=#000000;strokeColor=none;" vertex="1" parent="Equ55bX3IU3hU9m5Hj1D-108">
          <mxGeometry x="88" width="18" height="16" as="geometry" />
        </mxCell>
        <mxCell id="Equ55bX3IU3hU9m5Hj1D-111" value="" style="rounded=0;whiteSpace=wrap;html=1;fillColor=#000000;strokeColor=none;" vertex="1" parent="Equ55bX3IU3hU9m5Hj1D-108">
          <mxGeometry x="66" width="18" height="16" as="geometry" />
        </mxCell>
        <mxCell id="Equ55bX3IU3hU9m5Hj1D-112" value="" style="rounded=0;whiteSpace=wrap;html=1;fillColor=#000000;strokeColor=none;" vertex="1" parent="Equ55bX3IU3hU9m5Hj1D-108">
          <mxGeometry x="44" width="18" height="16" as="geometry" />
        </mxCell>
        <mxCell id="Equ55bX3IU3hU9m5Hj1D-113" value="" style="rounded=0;whiteSpace=wrap;html=1;fillColor=#000000;strokeColor=none;" vertex="1" parent="Equ55bX3IU3hU9m5Hj1D-108">
          <mxGeometry x="22" width="18" height="16" as="geometry" />
        </mxCell>
        <mxCell id="Equ55bX3IU3hU9m5Hj1D-114" value="" style="rounded=0;whiteSpace=wrap;html=1;fillColor=#000000;strokeColor=none;" vertex="1" parent="Equ55bX3IU3hU9m5Hj1D-108">
          <mxGeometry width="18" height="16" as="geometry" />
        </mxCell>
        <mxCell id="Equ55bX3IU3hU9m5Hj1D-115" value="" style="rounded=0;whiteSpace=wrap;html=1;fillColor=#000000;strokeColor=none;" vertex="1" parent="Equ55bX3IU3hU9m5Hj1D-108">
          <mxGeometry y="19" width="18" height="16" as="geometry" />
        </mxCell>
        <mxCell id="Equ55bX3IU3hU9m5Hj1D-116" value="" style="rounded=0;whiteSpace=wrap;html=1;fillColor=#000000;strokeColor=none;" vertex="1" parent="Equ55bX3IU3hU9m5Hj1D-108">
          <mxGeometry x="22" y="19" width="18" height="16" as="geometry" />
        </mxCell>
        <mxCell id="Equ55bX3IU3hU9m5Hj1D-117" value="" style="rounded=0;whiteSpace=wrap;html=1;fillColor=#000000;strokeColor=none;" vertex="1" parent="Equ55bX3IU3hU9m5Hj1D-108">
          <mxGeometry x="44" y="19" width="18" height="16" as="geometry" />
        </mxCell>
        <mxCell id="Equ55bX3IU3hU9m5Hj1D-118" value="" style="rounded=0;whiteSpace=wrap;html=1;fillColor=#000000;strokeColor=none;" vertex="1" parent="Equ55bX3IU3hU9m5Hj1D-108">
          <mxGeometry x="66" y="19" width="18" height="16" as="geometry" />
        </mxCell>
        <mxCell id="Equ55bX3IU3hU9m5Hj1D-119" value="" style="rounded=0;whiteSpace=wrap;html=1;fillColor=#000000;strokeColor=none;" vertex="1" parent="Equ55bX3IU3hU9m5Hj1D-108">
          <mxGeometry x="88" y="19" width="18" height="16" as="geometry" />
        </mxCell>
        <mxCell id="Equ55bX3IU3hU9m5Hj1D-120" value="" style="rounded=0;whiteSpace=wrap;html=1;fillColor=#000000;strokeColor=none;" vertex="1" parent="Equ55bX3IU3hU9m5Hj1D-108">
          <mxGeometry x="110" y="19" width="18" height="16" as="geometry" />
        </mxCell>
        <mxCell id="Equ55bX3IU3hU9m5Hj1D-121" value="" style="rounded=0;whiteSpace=wrap;html=1;fillColor=#000000;strokeColor=none;" vertex="1" parent="Equ55bX3IU3hU9m5Hj1D-108">
          <mxGeometry x="132" width="18" height="16" as="geometry" />
        </mxCell>
        <mxCell id="Equ55bX3IU3hU9m5Hj1D-122" value="" style="rounded=0;whiteSpace=wrap;html=1;fillColor=#000000;strokeColor=none;" vertex="1" parent="Equ55bX3IU3hU9m5Hj1D-108">
          <mxGeometry x="132" y="19" width="18" height="16" as="geometry" />
        </mxCell>
        <mxCell id="Equ55bX3IU3hU9m5Hj1D-123" value="" style="rounded=0;whiteSpace=wrap;html=1;fillColor=#000000;strokeColor=none;" vertex="1" parent="Equ55bX3IU3hU9m5Hj1D-108">
          <mxGeometry x="154" width="18" height="16" as="geometry" />
        </mxCell>
        <mxCell id="Equ55bX3IU3hU9m5Hj1D-124" value="" style="rounded=0;whiteSpace=wrap;html=1;fillColor=#000000;strokeColor=none;" vertex="1" parent="Equ55bX3IU3hU9m5Hj1D-108">
          <mxGeometry x="154" y="19" width="18" height="16" as="geometry" />
        </mxCell>
        <mxCell id="Equ55bX3IU3hU9m5Hj1D-125" value="&lt;font style=&quot;font-size: 25px;&quot;&gt;REA-V-FW&lt;/font&gt;" style="text;html=1;align=center;verticalAlign=middle;resizable=0;points=[];autosize=1;strokeColor=none;fillColor=none;" vertex="1" parent="1">
          <mxGeometry x="240" y="290" width="150" height="40" as="geometry" />
        </mxCell>
        <mxCell id="Equ55bX3IU3hU9m5Hj1D-126" value="&lt;font style=&quot;font-size: 25px;&quot;&gt;REA-V-AGG-01&lt;/font&gt;" style="text;html=1;align=center;verticalAlign=middle;resizable=0;points=[];autosize=1;strokeColor=none;fillColor=none;" vertex="1" parent="1">
          <mxGeometry x="240" y="420" width="200" height="40" as="geometry" />
        </mxCell>
        <mxCell id="Equ55bX3IU3hU9m5Hj1D-127" value="" style="group" connectable="0" vertex="1" parent="1">
          <mxGeometry x="240" y="1030" width="795.46" height="140" as="geometry" />
        </mxCell>
        <mxCell id="Equ55bX3IU3hU9m5Hj1D-128" value="" style="group" connectable="0" vertex="1" parent="Equ55bX3IU3hU9m5Hj1D-127">
          <mxGeometry width="795.46" height="140" as="geometry" />
        </mxCell>
        <mxCell id="Equ55bX3IU3hU9m5Hj1D-129" value="" style="rounded=0;whiteSpace=wrap;html=1;fillColor=#CFCFCF;strokeColor=#000000;shadow=1;aspect=fixed;strokeWidth=2;movable=1;resizable=1;rotatable=1;deletable=1;editable=1;locked=0;connectable=1;" vertex="1" parent="Equ55bX3IU3hU9m5Hj1D-128">
          <mxGeometry width="795.46" height="140" as="geometry" />
        </mxCell>
        <mxCell id="Equ55bX3IU3hU9m5Hj1D-130" value="" style="rounded=0;whiteSpace=wrap;html=1;fillColor=none;strokeColor=#000000;strokeWidth=2;movable=1;resizable=1;rotatable=1;deletable=1;editable=1;locked=0;connectable=1;" vertex="1" parent="Equ55bX3IU3hU9m5Hj1D-128">
          <mxGeometry x="30.190000000000026" width="736" height="140" as="geometry" />
        </mxCell>
        <mxCell id="Equ55bX3IU3hU9m5Hj1D-131" value="" style="group" connectable="0" vertex="1" parent="Equ55bX3IU3hU9m5Hj1D-127">
          <mxGeometry x="42.460000000000036" y="15" width="42" height="40" as="geometry" />
        </mxCell>
        <mxCell id="Equ55bX3IU3hU9m5Hj1D-132" value="" style="rounded=1;whiteSpace=wrap;html=1;fillColor=default;strokeColor=none;" vertex="1" parent="Equ55bX3IU3hU9m5Hj1D-131">
          <mxGeometry width="42" height="40" as="geometry" />
        </mxCell>
        <mxCell id="Equ55bX3IU3hU9m5Hj1D-133" value="" style="fontColor=#000000;verticalAlign=middle;verticalLabelPosition=middle;labelPosition=right;align=left;html=1;outlineConnect=0;fillColor=#d6d6d6;strokeColor=#999;gradientColor=none;gradientDirection=north;strokeWidth=2;shape=stencil(ZZExb8MgEIV/DWOQc6hJPaZpM3Xokrk6Y2JT2eCCXdqlv71HLlGCKoHgfe+E7h1C7WOPkxFQYZyMnoV6FgBfGCw2A2Egp2e4hoq1w9EwOjb2c7GzJfjqO892KsrVi6h2It8rofYnH0wX/OLawrjadsQu9xKD5kf6eZ6iUFR3oJVSklGji34J2kjtR4K/tEfTWqTzLfiPHAIOt7JCJNOQzr1GOp8CunZ1VcslzPtAQE6u4zjf3Mnq4VHWNaOfC9qAhHURGtRW1ptibPcoxygHQuTfTM6Uv+UM/gA=);labelBackgroundColor=none;shadow=0;glass=0;sketch=1;aspect=fixed;" vertex="1" parent="Equ55bX3IU3hU9m5Hj1D-131">
          <mxGeometry x="9" y="8" width="24" height="24" as="geometry" />
        </mxCell>
        <mxCell id="Equ55bX3IU3hU9m5Hj1D-134" value="" style="rounded=0;whiteSpace=wrap;html=1;fillColor=#000000;strokeColor=none;" vertex="1" parent="Equ55bX3IU3hU9m5Hj1D-127">
          <mxGeometry x="682.46" y="39.5" width="18" height="16" as="geometry" />
        </mxCell>
        <mxCell id="Equ55bX3IU3hU9m5Hj1D-135" value="" style="group" connectable="0" vertex="1" parent="Equ55bX3IU3hU9m5Hj1D-127">
          <mxGeometry x="709.46" y="14.5" width="26" height="41" as="geometry" />
        </mxCell>
        <mxCell id="Equ55bX3IU3hU9m5Hj1D-136" value="" style="rounded=0;whiteSpace=wrap;html=1;fillColor=#000000;strokeColor=none;" vertex="1" parent="Equ55bX3IU3hU9m5Hj1D-135">
          <mxGeometry y="25" width="26" height="16" as="geometry" />
        </mxCell>
        <mxCell id="Equ55bX3IU3hU9m5Hj1D-137" value="&lt;span style=&quot;color: rgba(0, 0, 0, 0); font-family: monospace; font-size: 0px; text-align: start; text-wrap: nowrap;&quot;&gt;%3CmxGraphModel%3E%3Croot%3E%3CmxCell%20id%3D%220%22%2F%3E%3CmxCell%20id%3D%221%22%20parent%3D%220%22%2F%3E%3CmxCell%20id%3D%222%22%20value%3D%22%22%20style%3D%22group%22%20vertex%3D%221%22%20connectable%3D%220%22%20parent%3D%221%22%3E%3CmxGeometry%20x%3D%2221.539999999999964%22%20y%3D%22235%22%20width%3D%22795.46%22%20height%3D%2270%22%20as%3D%22geometry%22%2F%3E%3C%2FmxCell%3E%3CmxCell%20id%3D%223%22%20value%3D%22%22%20style%3D%22group%3Bmovable%3D1%3Bresizable%3D1%3Brotatable%3D1%3Bdeletable%3D1%3Beditable%3D1%3Blocked%3D0%3Bconnectable%3D1%3B%22%20vertex%3D%221%22%20connectable%3D%220%22%20parent%3D%222%22%3E%3CmxGeometry%20width%3D%22795.46%22%20height%3D%2270%22%20as%3D%22geometry%22%2F%3E%3C%2FmxCell%3E%3CmxCell%20id%3D%224%22%20value%3D%22%22%20style%3D%22rounded%3D0%3BwhiteSpace%3Dwrap%3Bhtml%3D1%3BfillColor%3D%23CFCFCF%3BstrokeColor%3D%23000000%3Bshadow%3D1%3Baspect%3Dfixed%3BstrokeWidth%3D2%3Bmovable%3D1%3Bresizable%3D1%3Brotatable%3D1%3Bdeletable%3D1%3Beditable%3D1%3Blocked%3D0%3Bconnectable%3D1%3B%22%20vertex%3D%221%22%20parent%3D%223%22%3E%3CmxGeometry%20width%3D%22795.46%22%20height%3D%2270%22%20as%3D%22geometry%22%2F%3E%3C%2FmxCell%3E%3CmxCell%20id%3D%225%22%20value%3D%22%22%20style%3D%22rounded%3D0%3BwhiteSpace%3Dwrap%3Bhtml%3D1%3BfillColor%3Dnone%3BstrokeColor%3D%23000000%3BstrokeWidth%3D2%3Bmovable%3D1%3Bresizable%3D1%3Brotatable%3D1%3Bdeletable%3D1%3Beditable%3D1%3Blocked%3D0%3Bconnectable%3D1%3B%22%20vertex%3D%221%22%20parent%3D%223%22%3E%3CmxGeometry%20x%3D%2230.19000000000002%22%20width%3D%22736%22%20height%3D%2270%22%20as%3D%22geometry%22%2F%3E%3C%2FmxCell%3E%3CmxCell%20id%3D%226%22%20value%3D%22%22%20style%3D%22rounded%3D0%3BwhiteSpace%3Dwrap%3Bhtml%3D1%3BstrokeColor%3D%23000000%3BfillColor%3D%23CCCCCC%3B%22%20vertex%3D%221%22%20parent%3D%223%22%3E%3CmxGeometry%20x%3D%22370.46000000000004%22%20y%3D%2213.5%22%20width%3D%22172%22%20height%3D%2243%22%20as%3D%22geometry%22%2F%3E%3C%2FmxCell%3E%3CmxCell%20id%3D%227%22%20value%3D%22%22%20style%3D%22group%22%20vertex%3D%221%22%20connectable%3D%220%22%20parent%3D%222%22%3E%3CmxGeometry%20x%3D%2242.460000000000036%22%20y%3D%2215%22%20width%3D%2242%22%20height%3D%2240%22%20as%3D%22geometry%22%2F%3E%3C%2FmxCell%3E%3CmxCell%20id%3D%228%22%20value%3D%22%22%20style%3D%22rounded%3D1%3BwhiteSpace%3Dwrap%3Bhtml%3D1%3BfillColor%3Ddefault%3BstrokeColor%3Dnone%3B%22%20vertex%3D%221%22%20parent%3D%227%22%3E%3CmxGeometry%20width%3D%2242%22%20height%3D%2240%22%20as%3D%22geometry%22%2F%3E%3C%2FmxCell%3E%3CmxCell%20id%3D%229%22%20value%3D%22%22%20style%3D%22fontColor%3D%23000000%3BverticalAlign%3Dmiddle%3BverticalLabelPosition%3Dmiddle%3BlabelPosition%3Dright%3Balign%3Dleft%3Bhtml%3D1%3BoutlineConnect%3D0%3BfillColor%3D%23d6d6d6%3BstrokeColor%3D%23999%3BgradientColor%3Dnone%3BgradientDirection%3Dnorth%3BstrokeWidth%3D2%3Bshape%3Dstencil(ZZExb8MgEIV%2FDWOQc6hJPaZpM3Xokrk6Y2JT2eCCXdqlv71HLlGCKoHgfe%2BE7h1C7WOPkxFQYZyMnoV6FgBfGCw2A2Egp2e4hoq1w9EwOjb2c7GzJfjqO892KsrVi6h2It8rofYnH0wX%2FOLawrjadsQu9xKD5kf6eZ6iUFR3oJVSklGji34J2kjtR4K%2FtEfTWqTzLfiPHAIOt7JCJNOQzr1GOp8CunZ1VcslzPtAQE6u4zjf3Mnq4VHWNaOfC9qAhHURGtRW1ptibPcoxygHQuTfTM6Uv%2BUM%2FgA%3D)%3BlabelBackgroundColor%3Dnone%3Bshadow%3D0%3Bglass%3D0%3Bsketch%3D1%3Baspect%3Dfixed%3B%22%20vertex%3D%221%22%20parent%3D%227%22%3E%3CmxGeometry%20x%3D%229%22%20y%3D%228%22%20width%3D%2224%22%20height%3D%2224%22%20as%3D%22geometry%22%2F%3E%3C%2FmxCell%3E%3CmxCell%20id%3D%2210%22%20value%3D%22%22%20style%3D%22group%22%20vertex%3D%221%22%20connectable%3D%220%22%20parent%3D%222%22%3E%3CmxGeometry%20x%3D%22709.46%22%20y%3D%2214.5%22%20width%3D%2226%22%20height%3D%2241%22%20as%3D%22geometry%22%2F%3E%3C%2FmxCell%3E%3CmxCell%20id%3D%2211%22%20value%3D%22%22%20style%3D%22group%22%20vertex%3D%221%22%20connectable%3D%220%22%20parent%3D%2210%22%3E%3CmxGeometry%20width%3D%2226%22%20height%3D%2241%22%20as%3D%22geometry%22%2F%3E%3C%2FmxCell%3E%3CmxCell%20id%3D%2212%22%20value%3D%22%22%20style%3D%22rounded%3D0%3BwhiteSpace%3Dwrap%3Bhtml%3D1%3BfillColor%3D%23000000%3BstrokeColor%3Dnone%3B%22%20vertex%3D%221%22%20parent%3D%2211%22%3E%3CmxGeometry%20width%3D%2226%22%20height%3D%2216%22%20as%3D%22geometry%22%2F%3E%3C%2FmxCell%3E%3CmxCell%20id%3D%2213%22%20value%3D%22%22%20style%3D%22rounded%3D0%3BwhiteSpace%3Dwrap%3Bhtml%3D1%3BfillColor%3D%23000000%3BstrokeColor%3Dnone%3B%22%20vertex%3D%221%22%20parent%3D%2211%22%3E%3CmxGeometry%20y%3D%2225%22%20width%3D%2226%22%20height%3D%2216%22%20as%3D%22geometry%22%2F%3E%3C%2FmxCell%3E%3CmxCell%20id%3D%2214%22%20value%3D%22%22%20style%3D%22rounded%3D0%3BwhiteSpace%3Dwrap%3Bhtml%3D1%3BfillColor%3D%23000000%3BstrokeColor%3Dnone%3B%22%20vertex%3D%221%22%20parent%3D%222%22%3E%3CmxGeometry%20x%3D%22682.46%22%20y%3D%2239.5%22%20width%3D%2218%22%20height%3D%2216%22%20as%3D%22geometry%22%2F%3E%3C%2FmxCell%3E%3CmxCell%20id%3D%2215%22%20value%3D%22%22%20style%3D%22group%22%20vertex%3D%221%22%20connectable%3D%220%22%20parent%3D%222%22%3E%3CmxGeometry%20x%3D%22569.46%22%20y%3D%2220.5%22%20width%3D%2284%22%20height%3D%2235%22%20as%3D%22geometry%22%2F%3E%3C%2FmxCell%3E%3CmxCell%20id%3D%2216%22%20value%3D%22%22%20style%3D%22rounded%3D0%3BwhiteSpace%3Dwrap%3Bhtml%3D1%3BfillColor%3D%23000000%3BstrokeColor%3Dnone%3B%22%20vertex%3D%221%22%20parent%3D%2215%22%3E%3CmxGeometry%20x%3D%2266%22%20width%3D%2218%22%20height%3D%2216%22%20as%3D%22geometry%22%2F%3E%3C%2FmxCell%3E%3CmxCell%20id%3D%2217%22%20value%3D%22%22%20style%3D%22rounded%3D0%3BwhiteSpace%3Dwrap%3Bhtml%3D1%3BfillColor%3D%23000000%3BstrokeColor%3Dnone%3B%22%20vertex%3D%221%22%20parent%3D%2215%22%3E%3CmxGeometry%20x%3D%2244%22%20width%3D%2218%22%20height%3D%2216%22%20as%3D%22geometry%22%2F%3E%3C%2FmxCell%3E%3CmxCell%20id%3D%2218%22%20value%3D%22%22%20style%3D%22rounded%3D0%3BwhiteSpace%3Dwrap%3Bhtml%3D1%3BfillColor%3D%23000000%3BstrokeColor%3Dnone%3B%22%20vertex%3D%221%22%20parent%3D%2215%22%3E%3CmxGeometry%20x%3D%2222%22%20width%3D%2218%22%20height%3D%2216%22%20as%3D%22geometry%22%2F%3E%3C%2FmxCell%3E%3CmxCell%20id%3D%2219%22%20value%3D%22%22%20style%3D%22rounded%3D0%3BwhiteSpace%3Dwrap%3Bhtml%3D1%3BfillColor%3D%23000000%3BstrokeColor%3Dnone%3B%22%20vertex%3D%221%22%20parent%3D%2215%22%3E%3CmxGeometry%20width%3D%2218%22%20height%3D%2216%22%20as%3D%22geometry%22%2F%3E%3C%2FmxCell%3E%3CmxCell%20id%3D%2220%22%20value%3D%22%22%20style%3D%22rounded%3D0%3BwhiteSpace%3Dwrap%3Bhtml%3D1%3BfillColor%3D%23000000%3BstrokeColor%3Dnone%3B%22%20vertex%3D%221%22%20parent%3D%2215%22%3E%3CmxGeometry%20y%3D%2219%22%20width%3D%2218%22%20height%3D%2216%22%20as%3D%22geometry%22%2F%3E%3C%2FmxCell%3E%3CmxCell%20id%3D%2221%22%20value%3D%22%22%20style%3D%22rounded%3D0%3BwhiteSpace%3Dwrap%3Bhtml%3D1%3BfillColor%3D%23000000%3BstrokeColor%3Dnone%3B%22%20vertex%3D%221%22%20parent%3D%2215%22%3E%3CmxGeometry%20x%3D%2222%22%20y%3D%2219%22%20width%3D%2218%22%20height%3D%2216%22%20as%3D%22geometry%22%2F%3E%3C%2FmxCell%3E%3CmxCell%20id%3D%2222%22%20value%3D%22%22%20style%3D%22rounded%3D0%3BwhiteSpace%3Dwrap%3Bhtml%3D1%3BfillColor%3D%23000000%3BstrokeColor%3Dnone%3B%22%20vertex%3D%221%22%20parent%3D%2215%22%3E%3CmxGeometry%20x%3D%2244%22%20y%3D%2219%22%20width%3D%2218%22%20height%3D%2216%22%20as%3D%22geometry%22%2F%3E%3C%2FmxCell%3E%3CmxCell%20id%3D%2223%22%20value%3D%22%22%20style%3D%22rounded%3D0%3BwhiteSpace%3Dwrap%3Bhtml%3D1%3BfillColor%3D%23000000%3BstrokeColor%3Dnone%3B%22%20vertex%3D%221%22%20parent%3D%2215%22%3E%3CmxGeometry%20x%3D%2266%22%20y%3D%2219%22%20width%3D%2218%22%20height%3D%2216%22%20as%3D%22geometry%22%2F%3E%3C%2FmxCell%3E%3C%2Froot%3E%3C%2FmxGraphModel%3E&lt;/span&gt;" style="rounded=0;whiteSpace=wrap;html=1;strokeColor=#000000;fillColor=#CCCCCC;" vertex="1" parent="Equ55bX3IU3hU9m5Hj1D-127">
          <mxGeometry x="99.46000000000004" y="13.5" width="172" height="43" as="geometry" />
        </mxCell>
        <mxCell id="Equ55bX3IU3hU9m5Hj1D-138" value="&lt;span style=&quot;color: rgba(0, 0, 0, 0); font-family: monospace; font-size: 0px; text-align: start; text-wrap: nowrap;&quot;&gt;%3CmxGraphModel%3E%3Croot%3E%3CmxCell%20id%3D%220%22%2F%3E%3CmxCell%20id%3D%221%22%20parent%3D%220%22%2F%3E%3CmxCell%20id%3D%222%22%20value%3D%22%22%20style%3D%22group%22%20vertex%3D%221%22%20connectable%3D%220%22%20parent%3D%221%22%3E%3CmxGeometry%20x%3D%2221.539999999999964%22%20y%3D%22235%22%20width%3D%22795.46%22%20height%3D%2270%22%20as%3D%22geometry%22%2F%3E%3C%2FmxCell%3E%3CmxCell%20id%3D%223%22%20value%3D%22%22%20style%3D%22group%3Bmovable%3D1%3Bresizable%3D1%3Brotatable%3D1%3Bdeletable%3D1%3Beditable%3D1%3Blocked%3D0%3Bconnectable%3D1%3B%22%20vertex%3D%221%22%20connectable%3D%220%22%20parent%3D%222%22%3E%3CmxGeometry%20width%3D%22795.46%22%20height%3D%2270%22%20as%3D%22geometry%22%2F%3E%3C%2FmxCell%3E%3CmxCell%20id%3D%224%22%20value%3D%22%22%20style%3D%22rounded%3D0%3BwhiteSpace%3Dwrap%3Bhtml%3D1%3BfillColor%3D%23CFCFCF%3BstrokeColor%3D%23000000%3Bshadow%3D1%3Baspect%3Dfixed%3BstrokeWidth%3D2%3Bmovable%3D1%3Bresizable%3D1%3Brotatable%3D1%3Bdeletable%3D1%3Beditable%3D1%3Blocked%3D0%3Bconnectable%3D1%3B%22%20vertex%3D%221%22%20parent%3D%223%22%3E%3CmxGeometry%20width%3D%22795.46%22%20height%3D%2270%22%20as%3D%22geometry%22%2F%3E%3C%2FmxCell%3E%3CmxCell%20id%3D%225%22%20value%3D%22%22%20style%3D%22rounded%3D0%3BwhiteSpace%3Dwrap%3Bhtml%3D1%3BfillColor%3Dnone%3BstrokeColor%3D%23000000%3BstrokeWidth%3D2%3Bmovable%3D1%3Bresizable%3D1%3Brotatable%3D1%3Bdeletable%3D1%3Beditable%3D1%3Blocked%3D0%3Bconnectable%3D1%3B%22%20vertex%3D%221%22%20parent%3D%223%22%3E%3CmxGeometry%20x%3D%2230.19000000000002%22%20width%3D%22736%22%20height%3D%2270%22%20as%3D%22geometry%22%2F%3E%3C%2FmxCell%3E%3CmxCell%20id%3D%226%22%20value%3D%22%22%20style%3D%22rounded%3D0%3BwhiteSpace%3Dwrap%3Bhtml%3D1%3BstrokeColor%3D%23000000%3BfillColor%3D%23CCCCCC%3B%22%20vertex%3D%221%22%20parent%3D%223%22%3E%3CmxGeometry%20x%3D%22370.46000000000004%22%20y%3D%2213.5%22%20width%3D%22172%22%20height%3D%2243%22%20as%3D%22geometry%22%2F%3E%3C%2FmxCell%3E%3CmxCell%20id%3D%227%22%20value%3D%22%22%20style%3D%22group%22%20vertex%3D%221%22%20connectable%3D%220%22%20parent%3D%222%22%3E%3CmxGeometry%20x%3D%2242.460000000000036%22%20y%3D%2215%22%20width%3D%2242%22%20height%3D%2240%22%20as%3D%22geometry%22%2F%3E%3C%2FmxCell%3E%3CmxCell%20id%3D%228%22%20value%3D%22%22%20style%3D%22rounded%3D1%3BwhiteSpace%3Dwrap%3Bhtml%3D1%3BfillColor%3Ddefault%3BstrokeColor%3Dnone%3B%22%20vertex%3D%221%22%20parent%3D%227%22%3E%3CmxGeometry%20width%3D%2242%22%20height%3D%2240%22%20as%3D%22geometry%22%2F%3E%3C%2FmxCell%3E%3CmxCell%20id%3D%229%22%20value%3D%22%22%20style%3D%22fontColor%3D%23000000%3BverticalAlign%3Dmiddle%3BverticalLabelPosition%3Dmiddle%3BlabelPosition%3Dright%3Balign%3Dleft%3Bhtml%3D1%3BoutlineConnect%3D0%3BfillColor%3D%23d6d6d6%3BstrokeColor%3D%23999%3BgradientColor%3Dnone%3BgradientDirection%3Dnorth%3BstrokeWidth%3D2%3Bshape%3Dstencil(ZZExb8MgEIV%2FDWOQc6hJPaZpM3Xokrk6Y2JT2eCCXdqlv71HLlGCKoHgfe%2BE7h1C7WOPkxFQYZyMnoV6FgBfGCw2A2Egp2e4hoq1w9EwOjb2c7GzJfjqO892KsrVi6h2It8rofYnH0wX%2FOLawrjadsQu9xKD5kf6eZ6iUFR3oJVSklGji34J2kjtR4K%2FtEfTWqTzLfiPHAIOt7JCJNOQzr1GOp8CunZ1VcslzPtAQE6u4zjf3Mnq4VHWNaOfC9qAhHURGtRW1ptibPcoxygHQuTfTM6Uv%2BUM%2FgA%3D)%3BlabelBackgroundColor%3Dnone%3Bshadow%3D0%3Bglass%3D0%3Bsketch%3D1%3Baspect%3Dfixed%3B%22%20vertex%3D%221%22%20parent%3D%227%22%3E%3CmxGeometry%20x%3D%229%22%20y%3D%228%22%20width%3D%2224%22%20height%3D%2224%22%20as%3D%22geometry%22%2F%3E%3C%2FmxCell%3E%3CmxCell%20id%3D%2210%22%20value%3D%22%22%20style%3D%22group%22%20vertex%3D%221%22%20connectable%3D%220%22%20parent%3D%222%22%3E%3CmxGeometry%20x%3D%22709.46%22%20y%3D%2214.5%22%20width%3D%2226%22%20height%3D%2241%22%20as%3D%22geometry%22%2F%3E%3C%2FmxCell%3E%3CmxCell%20id%3D%2211%22%20value%3D%22%22%20style%3D%22group%22%20vertex%3D%221%22%20connectable%3D%220%22%20parent%3D%2210%22%3E%3CmxGeometry%20width%3D%2226%22%20height%3D%2241%22%20as%3D%22geometry%22%2F%3E%3C%2FmxCell%3E%3CmxCell%20id%3D%2212%22%20value%3D%22%22%20style%3D%22rounded%3D0%3BwhiteSpace%3Dwrap%3Bhtml%3D1%3BfillColor%3D%23000000%3BstrokeColor%3Dnone%3B%22%20vertex%3D%221%22%20parent%3D%2211%22%3E%3CmxGeometry%20width%3D%2226%22%20height%3D%2216%22%20as%3D%22geometry%22%2F%3E%3C%2FmxCell%3E%3CmxCell%20id%3D%2213%22%20value%3D%22%22%20style%3D%22rounded%3D0%3BwhiteSpace%3Dwrap%3Bhtml%3D1%3BfillColor%3D%23000000%3BstrokeColor%3Dnone%3B%22%20vertex%3D%221%22%20parent%3D%2211%22%3E%3CmxGeometry%20y%3D%2225%22%20width%3D%2226%22%20height%3D%2216%22%20as%3D%22geometry%22%2F%3E%3C%2FmxCell%3E%3CmxCell%20id%3D%2214%22%20value%3D%22%22%20style%3D%22rounded%3D0%3BwhiteSpace%3Dwrap%3Bhtml%3D1%3BfillColor%3D%23000000%3BstrokeColor%3Dnone%3B%22%20vertex%3D%221%22%20parent%3D%222%22%3E%3CmxGeometry%20x%3D%22682.46%22%20y%3D%2239.5%22%20width%3D%2218%22%20height%3D%2216%22%20as%3D%22geometry%22%2F%3E%3C%2FmxCell%3E%3CmxCell%20id%3D%2215%22%20value%3D%22%22%20style%3D%22group%22%20vertex%3D%221%22%20connectable%3D%220%22%20parent%3D%222%22%3E%3CmxGeometry%20x%3D%22569.46%22%20y%3D%2220.5%22%20width%3D%2284%22%20height%3D%2235%22%20as%3D%22geometry%22%2F%3E%3C%2FmxCell%3E%3CmxCell%20id%3D%2216%22%20value%3D%22%22%20style%3D%22rounded%3D0%3BwhiteSpace%3Dwrap%3Bhtml%3D1%3BfillColor%3D%23000000%3BstrokeColor%3Dnone%3B%22%20vertex%3D%221%22%20parent%3D%2215%22%3E%3CmxGeometry%20x%3D%2266%22%20width%3D%2218%22%20height%3D%2216%22%20as%3D%22geometry%22%2F%3E%3C%2FmxCell%3E%3CmxCell%20id%3D%2217%22%20value%3D%22%22%20style%3D%22rounded%3D0%3BwhiteSpace%3Dwrap%3Bhtml%3D1%3BfillColor%3D%23000000%3BstrokeColor%3Dnone%3B%22%20vertex%3D%221%22%20parent%3D%2215%22%3E%3CmxGeometry%20x%3D%2244%22%20width%3D%2218%22%20height%3D%2216%22%20as%3D%22geometry%22%2F%3E%3C%2FmxCell%3E%3CmxCell%20id%3D%2218%22%20value%3D%22%22%20style%3D%22rounded%3D0%3BwhiteSpace%3Dwrap%3Bhtml%3D1%3BfillColor%3D%23000000%3BstrokeColor%3Dnone%3B%22%20vertex%3D%221%22%20parent%3D%2215%22%3E%3CmxGeometry%20x%3D%2222%22%20width%3D%2218%22%20height%3D%2216%22%20as%3D%22geometry%22%2F%3E%3C%2FmxCell%3E%3CmxCell%20id%3D%2219%22%20value%3D%22%22%20style%3D%22rounded%3D0%3BwhiteSpace%3Dwrap%3Bhtml%3D1%3BfillColor%3D%23000000%3BstrokeColor%3Dnone%3B%22%20vertex%3D%221%22%20parent%3D%2215%22%3E%3CmxGeometry%20width%3D%2218%22%20height%3D%2216%22%20as%3D%22geometry%22%2F%3E%3C%2FmxCell%3E%3CmxCell%20id%3D%2220%22%20value%3D%22%22%20style%3D%22rounded%3D0%3BwhiteSpace%3Dwrap%3Bhtml%3D1%3BfillColor%3D%23000000%3BstrokeColor%3Dnone%3B%22%20vertex%3D%221%22%20parent%3D%2215%22%3E%3CmxGeometry%20y%3D%2219%22%20width%3D%2218%22%20height%3D%2216%22%20as%3D%22geometry%22%2F%3E%3C%2FmxCell%3E%3CmxCell%20id%3D%2221%22%20value%3D%22%22%20style%3D%22rounded%3D0%3BwhiteSpace%3Dwrap%3Bhtml%3D1%3BfillColor%3D%23000000%3BstrokeColor%3Dnone%3B%22%20vertex%3D%221%22%20parent%3D%2215%22%3E%3CmxGeometry%20x%3D%2222%22%20y%3D%2219%22%20width%3D%2218%22%20height%3D%2216%22%20as%3D%22geometry%22%2F%3E%3C%2FmxCell%3E%3CmxCell%20id%3D%2222%22%20value%3D%22%22%20style%3D%22rounded%3D0%3BwhiteSpace%3Dwrap%3Bhtml%3D1%3BfillColor%3D%23000000%3BstrokeColor%3Dnone%3B%22%20vertex%3D%221%22%20parent%3D%2215%22%3E%3CmxGeometry%20x%3D%2244%22%20y%3D%2219%22%20width%3D%2218%22%20height%3D%2216%22%20as%3D%22geometry%22%2F%3E%3C%2FmxCell%3E%3CmxCell%20id%3D%2223%22%20value%3D%22%22%20style%3D%22rounded%3D0%3BwhiteSpace%3Dwrap%3Bhtml%3D1%3BfillColor%3D%23000000%3BstrokeColor%3Dnone%3B%22%20vertex%3D%221%22%20parent%3D%2215%22%3E%3CmxGeometry%20x%3D%2266%22%20y%3D%2219%22%20width%3D%2218%22%20height%3D%2216%22%20as%3D%22geometry%22%2F%3E%3C%2FmxCell%3E%3C%2Froot%3E%3C%2FmxGraphModel%3E&lt;/span&gt;" style="rounded=0;whiteSpace=wrap;html=1;strokeColor=#000000;fillColor=#CCCCCC;" vertex="1" parent="Equ55bX3IU3hU9m5Hj1D-127">
          <mxGeometry x="275.46000000000004" y="13.5" width="172" height="43" as="geometry" />
        </mxCell>
        <mxCell id="Equ55bX3IU3hU9m5Hj1D-139" value="&lt;span style=&quot;color: rgba(0, 0, 0, 0); font-family: monospace; font-size: 0px; text-align: start; text-wrap: nowrap;&quot;&gt;%3CmxGraphModel%3E%3Croot%3E%3CmxCell%20id%3D%220%22%2F%3E%3CmxCell%20id%3D%221%22%20parent%3D%220%22%2F%3E%3CmxCell%20id%3D%222%22%20value%3D%22%22%20style%3D%22group%22%20vertex%3D%221%22%20connectable%3D%220%22%20parent%3D%221%22%3E%3CmxGeometry%20x%3D%2221.539999999999964%22%20y%3D%22235%22%20width%3D%22795.46%22%20height%3D%2270%22%20as%3D%22geometry%22%2F%3E%3C%2FmxCell%3E%3CmxCell%20id%3D%223%22%20value%3D%22%22%20style%3D%22group%3Bmovable%3D1%3Bresizable%3D1%3Brotatable%3D1%3Bdeletable%3D1%3Beditable%3D1%3Blocked%3D0%3Bconnectable%3D1%3B%22%20vertex%3D%221%22%20connectable%3D%220%22%20parent%3D%222%22%3E%3CmxGeometry%20width%3D%22795.46%22%20height%3D%2270%22%20as%3D%22geometry%22%2F%3E%3C%2FmxCell%3E%3CmxCell%20id%3D%224%22%20value%3D%22%22%20style%3D%22rounded%3D0%3BwhiteSpace%3Dwrap%3Bhtml%3D1%3BfillColor%3D%23CFCFCF%3BstrokeColor%3D%23000000%3Bshadow%3D1%3Baspect%3Dfixed%3BstrokeWidth%3D2%3Bmovable%3D1%3Bresizable%3D1%3Brotatable%3D1%3Bdeletable%3D1%3Beditable%3D1%3Blocked%3D0%3Bconnectable%3D1%3B%22%20vertex%3D%221%22%20parent%3D%223%22%3E%3CmxGeometry%20width%3D%22795.46%22%20height%3D%2270%22%20as%3D%22geometry%22%2F%3E%3C%2FmxCell%3E%3CmxCell%20id%3D%225%22%20value%3D%22%22%20style%3D%22rounded%3D0%3BwhiteSpace%3Dwrap%3Bhtml%3D1%3BfillColor%3Dnone%3BstrokeColor%3D%23000000%3BstrokeWidth%3D2%3Bmovable%3D1%3Bresizable%3D1%3Brotatable%3D1%3Bdeletable%3D1%3Beditable%3D1%3Blocked%3D0%3Bconnectable%3D1%3B%22%20vertex%3D%221%22%20parent%3D%223%22%3E%3CmxGeometry%20x%3D%2230.19000000000002%22%20width%3D%22736%22%20height%3D%2270%22%20as%3D%22geometry%22%2F%3E%3C%2FmxCell%3E%3CmxCell%20id%3D%226%22%20value%3D%22%22%20style%3D%22rounded%3D0%3BwhiteSpace%3Dwrap%3Bhtml%3D1%3BstrokeColor%3D%23000000%3BfillColor%3D%23CCCCCC%3B%22%20vertex%3D%221%22%20parent%3D%223%22%3E%3CmxGeometry%20x%3D%22370.46000000000004%22%20y%3D%2213.5%22%20width%3D%22172%22%20height%3D%2243%22%20as%3D%22geometry%22%2F%3E%3C%2FmxCell%3E%3CmxCell%20id%3D%227%22%20value%3D%22%22%20style%3D%22group%22%20vertex%3D%221%22%20connectable%3D%220%22%20parent%3D%222%22%3E%3CmxGeometry%20x%3D%2242.460000000000036%22%20y%3D%2215%22%20width%3D%2242%22%20height%3D%2240%22%20as%3D%22geometry%22%2F%3E%3C%2FmxCell%3E%3CmxCell%20id%3D%228%22%20value%3D%22%22%20style%3D%22rounded%3D1%3BwhiteSpace%3Dwrap%3Bhtml%3D1%3BfillColor%3Ddefault%3BstrokeColor%3Dnone%3B%22%20vertex%3D%221%22%20parent%3D%227%22%3E%3CmxGeometry%20width%3D%2242%22%20height%3D%2240%22%20as%3D%22geometry%22%2F%3E%3C%2FmxCell%3E%3CmxCell%20id%3D%229%22%20value%3D%22%22%20style%3D%22fontColor%3D%23000000%3BverticalAlign%3Dmiddle%3BverticalLabelPosition%3Dmiddle%3BlabelPosition%3Dright%3Balign%3Dleft%3Bhtml%3D1%3BoutlineConnect%3D0%3BfillColor%3D%23d6d6d6%3BstrokeColor%3D%23999%3BgradientColor%3Dnone%3BgradientDirection%3Dnorth%3BstrokeWidth%3D2%3Bshape%3Dstencil(ZZExb8MgEIV%2FDWOQc6hJPaZpM3Xokrk6Y2JT2eCCXdqlv71HLlGCKoHgfe%2BE7h1C7WOPkxFQYZyMnoV6FgBfGCw2A2Egp2e4hoq1w9EwOjb2c7GzJfjqO892KsrVi6h2It8rofYnH0wX%2FOLawrjadsQu9xKD5kf6eZ6iUFR3oJVSklGji34J2kjtR4K%2FtEfTWqTzLfiPHAIOt7JCJNOQzr1GOp8CunZ1VcslzPtAQE6u4zjf3Mnq4VHWNaOfC9qAhHURGtRW1ptibPcoxygHQuTfTM6Uv%2BUM%2FgA%3D)%3BlabelBackgroundColor%3Dnone%3Bshadow%3D0%3Bglass%3D0%3Bsketch%3D1%3Baspect%3Dfixed%3B%22%20vertex%3D%221%22%20parent%3D%227%22%3E%3CmxGeometry%20x%3D%229%22%20y%3D%228%22%20width%3D%2224%22%20height%3D%2224%22%20as%3D%22geometry%22%2F%3E%3C%2FmxCell%3E%3CmxCell%20id%3D%2210%22%20value%3D%22%22%20style%3D%22group%22%20vertex%3D%221%22%20connectable%3D%220%22%20parent%3D%222%22%3E%3CmxGeometry%20x%3D%22709.46%22%20y%3D%2214.5%22%20width%3D%2226%22%20height%3D%2241%22%20as%3D%22geometry%22%2F%3E%3C%2FmxCell%3E%3CmxCell%20id%3D%2211%22%20value%3D%22%22%20style%3D%22group%22%20vertex%3D%221%22%20connectable%3D%220%22%20parent%3D%2210%22%3E%3CmxGeometry%20width%3D%2226%22%20height%3D%2241%22%20as%3D%22geometry%22%2F%3E%3C%2FmxCell%3E%3CmxCell%20id%3D%2212%22%20value%3D%22%22%20style%3D%22rounded%3D0%3BwhiteSpace%3Dwrap%3Bhtml%3D1%3BfillColor%3D%23000000%3BstrokeColor%3Dnone%3B%22%20vertex%3D%221%22%20parent%3D%2211%22%3E%3CmxGeometry%20width%3D%2226%22%20height%3D%2216%22%20as%3D%22geometry%22%2F%3E%3C%2FmxCell%3E%3CmxCell%20id%3D%2213%22%20value%3D%22%22%20style%3D%22rounded%3D0%3BwhiteSpace%3Dwrap%3Bhtml%3D1%3BfillColor%3D%23000000%3BstrokeColor%3Dnone%3B%22%20vertex%3D%221%22%20parent%3D%2211%22%3E%3CmxGeometry%20y%3D%2225%22%20width%3D%2226%22%20height%3D%2216%22%20as%3D%22geometry%22%2F%3E%3C%2FmxCell%3E%3CmxCell%20id%3D%2214%22%20value%3D%22%22%20style%3D%22rounded%3D0%3BwhiteSpace%3Dwrap%3Bhtml%3D1%3BfillColor%3D%23000000%3BstrokeColor%3Dnone%3B%22%20vertex%3D%221%22%20parent%3D%222%22%3E%3CmxGeometry%20x%3D%22682.46%22%20y%3D%2239.5%22%20width%3D%2218%22%20height%3D%2216%22%20as%3D%22geometry%22%2F%3E%3C%2FmxCell%3E%3CmxCell%20id%3D%2215%22%20value%3D%22%22%20style%3D%22group%22%20vertex%3D%221%22%20connectable%3D%220%22%20parent%3D%222%22%3E%3CmxGeometry%20x%3D%22569.46%22%20y%3D%2220.5%22%20width%3D%2284%22%20height%3D%2235%22%20as%3D%22geometry%22%2F%3E%3C%2FmxCell%3E%3CmxCell%20id%3D%2216%22%20value%3D%22%22%20style%3D%22rounded%3D0%3BwhiteSpace%3Dwrap%3Bhtml%3D1%3BfillColor%3D%23000000%3BstrokeColor%3Dnone%3B%22%20vertex%3D%221%22%20parent%3D%2215%22%3E%3CmxGeometry%20x%3D%2266%22%20width%3D%2218%22%20height%3D%2216%22%20as%3D%22geometry%22%2F%3E%3C%2FmxCell%3E%3CmxCell%20id%3D%2217%22%20value%3D%22%22%20style%3D%22rounded%3D0%3BwhiteSpace%3Dwrap%3Bhtml%3D1%3BfillColor%3D%23000000%3BstrokeColor%3Dnone%3B%22%20vertex%3D%221%22%20parent%3D%2215%22%3E%3CmxGeometry%20x%3D%2244%22%20width%3D%2218%22%20height%3D%2216%22%20as%3D%22geometry%22%2F%3E%3C%2FmxCell%3E%3CmxCell%20id%3D%2218%22%20value%3D%22%22%20style%3D%22rounded%3D0%3BwhiteSpace%3Dwrap%3Bhtml%3D1%3BfillColor%3D%23000000%3BstrokeColor%3Dnone%3B%22%20vertex%3D%221%22%20parent%3D%2215%22%3E%3CmxGeometry%20x%3D%2222%22%20width%3D%2218%22%20height%3D%2216%22%20as%3D%22geometry%22%2F%3E%3C%2FmxCell%3E%3CmxCell%20id%3D%2219%22%20value%3D%22%22%20style%3D%22rounded%3D0%3BwhiteSpace%3Dwrap%3Bhtml%3D1%3BfillColor%3D%23000000%3BstrokeColor%3Dnone%3B%22%20vertex%3D%221%22%20parent%3D%2215%22%3E%3CmxGeometry%20width%3D%2218%22%20height%3D%2216%22%20as%3D%22geometry%22%2F%3E%3C%2FmxCell%3E%3CmxCell%20id%3D%2220%22%20value%3D%22%22%20style%3D%22rounded%3D0%3BwhiteSpace%3Dwrap%3Bhtml%3D1%3BfillColor%3D%23000000%3BstrokeColor%3Dnone%3B%22%20vertex%3D%221%22%20parent%3D%2215%22%3E%3CmxGeometry%20y%3D%2219%22%20width%3D%2218%22%20height%3D%2216%22%20as%3D%22geometry%22%2F%3E%3C%2FmxCell%3E%3CmxCell%20id%3D%2221%22%20value%3D%22%22%20style%3D%22rounded%3D0%3BwhiteSpace%3Dwrap%3Bhtml%3D1%3BfillColor%3D%23000000%3BstrokeColor%3Dnone%3B%22%20vertex%3D%221%22%20parent%3D%2215%22%3E%3CmxGeometry%20x%3D%2222%22%20y%3D%2219%22%20width%3D%2218%22%20height%3D%2216%22%20as%3D%22geometry%22%2F%3E%3C%2FmxCell%3E%3CmxCell%20id%3D%2222%22%20value%3D%22%22%20style%3D%22rounded%3D0%3BwhiteSpace%3Dwrap%3Bhtml%3D1%3BfillColor%3D%23000000%3BstrokeColor%3Dnone%3B%22%20vertex%3D%221%22%20parent%3D%2215%22%3E%3CmxGeometry%20x%3D%2244%22%20y%3D%2219%22%20width%3D%2218%22%20height%3D%2216%22%20as%3D%22geometry%22%2F%3E%3C%2FmxCell%3E%3CmxCell%20id%3D%2223%22%20value%3D%22%22%20style%3D%22rounded%3D0%3BwhiteSpace%3Dwrap%3Bhtml%3D1%3BfillColor%3D%23000000%3BstrokeColor%3Dnone%3B%22%20vertex%3D%221%22%20parent%3D%2215%22%3E%3CmxGeometry%20x%3D%2266%22%20y%3D%2219%22%20width%3D%2218%22%20height%3D%2216%22%20as%3D%22geometry%22%2F%3E%3C%2FmxCell%3E%3C%2Froot%3E%3C%2FmxGraphModel%3E&lt;/span&gt;" style="rounded=0;whiteSpace=wrap;html=1;strokeColor=#000000;fillColor=#CCCCCC;" vertex="1" parent="Equ55bX3IU3hU9m5Hj1D-127">
          <mxGeometry x="451" y="13.5" width="172" height="43" as="geometry" />
        </mxCell>
        <mxCell id="Equ55bX3IU3hU9m5Hj1D-140" value="" style="group;flipV=0;" connectable="0" vertex="1" parent="Equ55bX3IU3hU9m5Hj1D-127">
          <mxGeometry x="48.19000000000004" y="79.5" width="700" height="43" as="geometry" />
        </mxCell>
        <mxCell id="Equ55bX3IU3hU9m5Hj1D-141" value="&lt;span style=&quot;color: rgba(0, 0, 0, 0); font-family: monospace; font-size: 0px; text-align: start; text-wrap: nowrap;&quot;&gt;%3CmxGraphModel%3E%3Croot%3E%3CmxCell%20id%3D%220%22%2F%3E%3CmxCell%20id%3D%221%22%20parent%3D%220%22%2F%3E%3CmxCell%20id%3D%222%22%20value%3D%22%22%20style%3D%22group%22%20vertex%3D%221%22%20connectable%3D%220%22%20parent%3D%221%22%3E%3CmxGeometry%20x%3D%2221.539999999999964%22%20y%3D%22235%22%20width%3D%22795.46%22%20height%3D%2270%22%20as%3D%22geometry%22%2F%3E%3C%2FmxCell%3E%3CmxCell%20id%3D%223%22%20value%3D%22%22%20style%3D%22group%3Bmovable%3D1%3Bresizable%3D1%3Brotatable%3D1%3Bdeletable%3D1%3Beditable%3D1%3Blocked%3D0%3Bconnectable%3D1%3B%22%20vertex%3D%221%22%20connectable%3D%220%22%20parent%3D%222%22%3E%3CmxGeometry%20width%3D%22795.46%22%20height%3D%2270%22%20as%3D%22geometry%22%2F%3E%3C%2FmxCell%3E%3CmxCell%20id%3D%224%22%20value%3D%22%22%20style%3D%22rounded%3D0%3BwhiteSpace%3Dwrap%3Bhtml%3D1%3BfillColor%3D%23CFCFCF%3BstrokeColor%3D%23000000%3Bshadow%3D1%3Baspect%3Dfixed%3BstrokeWidth%3D2%3Bmovable%3D1%3Bresizable%3D1%3Brotatable%3D1%3Bdeletable%3D1%3Beditable%3D1%3Blocked%3D0%3Bconnectable%3D1%3B%22%20vertex%3D%221%22%20parent%3D%223%22%3E%3CmxGeometry%20width%3D%22795.46%22%20height%3D%2270%22%20as%3D%22geometry%22%2F%3E%3C%2FmxCell%3E%3CmxCell%20id%3D%225%22%20value%3D%22%22%20style%3D%22rounded%3D0%3BwhiteSpace%3Dwrap%3Bhtml%3D1%3BfillColor%3Dnone%3BstrokeColor%3D%23000000%3BstrokeWidth%3D2%3Bmovable%3D1%3Bresizable%3D1%3Brotatable%3D1%3Bdeletable%3D1%3Beditable%3D1%3Blocked%3D0%3Bconnectable%3D1%3B%22%20vertex%3D%221%22%20parent%3D%223%22%3E%3CmxGeometry%20x%3D%2230.19000000000002%22%20width%3D%22736%22%20height%3D%2270%22%20as%3D%22geometry%22%2F%3E%3C%2FmxCell%3E%3CmxCell%20id%3D%226%22%20value%3D%22%22%20style%3D%22rounded%3D0%3BwhiteSpace%3Dwrap%3Bhtml%3D1%3BstrokeColor%3D%23000000%3BfillColor%3D%23CCCCCC%3B%22%20vertex%3D%221%22%20parent%3D%223%22%3E%3CmxGeometry%20x%3D%22370.46000000000004%22%20y%3D%2213.5%22%20width%3D%22172%22%20height%3D%2243%22%20as%3D%22geometry%22%2F%3E%3C%2FmxCell%3E%3CmxCell%20id%3D%227%22%20value%3D%22%22%20style%3D%22group%22%20vertex%3D%221%22%20connectable%3D%220%22%20parent%3D%222%22%3E%3CmxGeometry%20x%3D%2242.460000000000036%22%20y%3D%2215%22%20width%3D%2242%22%20height%3D%2240%22%20as%3D%22geometry%22%2F%3E%3C%2FmxCell%3E%3CmxCell%20id%3D%228%22%20value%3D%22%22%20style%3D%22rounded%3D1%3BwhiteSpace%3Dwrap%3Bhtml%3D1%3BfillColor%3Ddefault%3BstrokeColor%3Dnone%3B%22%20vertex%3D%221%22%20parent%3D%227%22%3E%3CmxGeometry%20width%3D%2242%22%20height%3D%2240%22%20as%3D%22geometry%22%2F%3E%3C%2FmxCell%3E%3CmxCell%20id%3D%229%22%20value%3D%22%22%20style%3D%22fontColor%3D%23000000%3BverticalAlign%3Dmiddle%3BverticalLabelPosition%3Dmiddle%3BlabelPosition%3Dright%3Balign%3Dleft%3Bhtml%3D1%3BoutlineConnect%3D0%3BfillColor%3D%23d6d6d6%3BstrokeColor%3D%23999%3BgradientColor%3Dnone%3BgradientDirection%3Dnorth%3BstrokeWidth%3D2%3Bshape%3Dstencil(ZZExb8MgEIV%2FDWOQc6hJPaZpM3Xokrk6Y2JT2eCCXdqlv71HLlGCKoHgfe%2BE7h1C7WOPkxFQYZyMnoV6FgBfGCw2A2Egp2e4hoq1w9EwOjb2c7GzJfjqO892KsrVi6h2It8rofYnH0wX%2FOLawrjadsQu9xKD5kf6eZ6iUFR3oJVSklGji34J2kjtR4K%2FtEfTWqTzLfiPHAIOt7JCJNOQzr1GOp8CunZ1VcslzPtAQE6u4zjf3Mnq4VHWNaOfC9qAhHURGtRW1ptibPcoxygHQuTfTM6Uv%2BUM%2FgA%3D)%3BlabelBackgroundColor%3Dnone%3Bshadow%3D0%3Bglass%3D0%3Bsketch%3D1%3Baspect%3Dfixed%3B%22%20vertex%3D%221%22%20parent%3D%227%22%3E%3CmxGeometry%20x%3D%229%22%20y%3D%228%22%20width%3D%2224%22%20height%3D%2224%22%20as%3D%22geometry%22%2F%3E%3C%2FmxCell%3E%3CmxCell%20id%3D%2210%22%20value%3D%22%22%20style%3D%22group%22%20vertex%3D%221%22%20connectable%3D%220%22%20parent%3D%222%22%3E%3CmxGeometry%20x%3D%22709.46%22%20y%3D%2214.5%22%20width%3D%2226%22%20height%3D%2241%22%20as%3D%22geometry%22%2F%3E%3C%2FmxCell%3E%3CmxCell%20id%3D%2211%22%20value%3D%22%22%20style%3D%22group%22%20vertex%3D%221%22%20connectable%3D%220%22%20parent%3D%2210%22%3E%3CmxGeometry%20width%3D%2226%22%20height%3D%2241%22%20as%3D%22geometry%22%2F%3E%3C%2FmxCell%3E%3CmxCell%20id%3D%2212%22%20value%3D%22%22%20style%3D%22rounded%3D0%3BwhiteSpace%3Dwrap%3Bhtml%3D1%3BfillColor%3D%23000000%3BstrokeColor%3Dnone%3B%22%20vertex%3D%221%22%20parent%3D%2211%22%3E%3CmxGeometry%20width%3D%2226%22%20height%3D%2216%22%20as%3D%22geometry%22%2F%3E%3C%2FmxCell%3E%3CmxCell%20id%3D%2213%22%20value%3D%22%22%20style%3D%22rounded%3D0%3BwhiteSpace%3Dwrap%3Bhtml%3D1%3BfillColor%3D%23000000%3BstrokeColor%3Dnone%3B%22%20vertex%3D%221%22%20parent%3D%2211%22%3E%3CmxGeometry%20y%3D%2225%22%20width%3D%2226%22%20height%3D%2216%22%20as%3D%22geometry%22%2F%3E%3C%2FmxCell%3E%3CmxCell%20id%3D%2214%22%20value%3D%22%22%20style%3D%22rounded%3D0%3BwhiteSpace%3Dwrap%3Bhtml%3D1%3BfillColor%3D%23000000%3BstrokeColor%3Dnone%3B%22%20vertex%3D%221%22%20parent%3D%222%22%3E%3CmxGeometry%20x%3D%22682.46%22%20y%3D%2239.5%22%20width%3D%2218%22%20height%3D%2216%22%20as%3D%22geometry%22%2F%3E%3C%2FmxCell%3E%3CmxCell%20id%3D%2215%22%20value%3D%22%22%20style%3D%22group%22%20vertex%3D%221%22%20connectable%3D%220%22%20parent%3D%222%22%3E%3CmxGeometry%20x%3D%22569.46%22%20y%3D%2220.5%22%20width%3D%2284%22%20height%3D%2235%22%20as%3D%22geometry%22%2F%3E%3C%2FmxCell%3E%3CmxCell%20id%3D%2216%22%20value%3D%22%22%20style%3D%22rounded%3D0%3BwhiteSpace%3Dwrap%3Bhtml%3D1%3BfillColor%3D%23000000%3BstrokeColor%3Dnone%3B%22%20vertex%3D%221%22%20parent%3D%2215%22%3E%3CmxGeometry%20x%3D%2266%22%20width%3D%2218%22%20height%3D%2216%22%20as%3D%22geometry%22%2F%3E%3C%2FmxCell%3E%3CmxCell%20id%3D%2217%22%20value%3D%22%22%20style%3D%22rounded%3D0%3BwhiteSpace%3Dwrap%3Bhtml%3D1%3BfillColor%3D%23000000%3BstrokeColor%3Dnone%3B%22%20vertex%3D%221%22%20parent%3D%2215%22%3E%3CmxGeometry%20x%3D%2244%22%20width%3D%2218%22%20height%3D%2216%22%20as%3D%22geometry%22%2F%3E%3C%2FmxCell%3E%3CmxCell%20id%3D%2218%22%20value%3D%22%22%20style%3D%22rounded%3D0%3BwhiteSpace%3Dwrap%3Bhtml%3D1%3BfillColor%3D%23000000%3BstrokeColor%3Dnone%3B%22%20vertex%3D%221%22%20parent%3D%2215%22%3E%3CmxGeometry%20x%3D%2222%22%20width%3D%2218%22%20height%3D%2216%22%20as%3D%22geometry%22%2F%3E%3C%2FmxCell%3E%3CmxCell%20id%3D%2219%22%20value%3D%22%22%20style%3D%22rounded%3D0%3BwhiteSpace%3Dwrap%3Bhtml%3D1%3BfillColor%3D%23000000%3BstrokeColor%3Dnone%3B%22%20vertex%3D%221%22%20parent%3D%2215%22%3E%3CmxGeometry%20width%3D%2218%22%20height%3D%2216%22%20as%3D%22geometry%22%2F%3E%3C%2FmxCell%3E%3CmxCell%20id%3D%2220%22%20value%3D%22%22%20style%3D%22rounded%3D0%3BwhiteSpace%3Dwrap%3Bhtml%3D1%3BfillColor%3D%23000000%3BstrokeColor%3Dnone%3B%22%20vertex%3D%221%22%20parent%3D%2215%22%3E%3CmxGeometry%20y%3D%2219%22%20width%3D%2218%22%20height%3D%2216%22%20as%3D%22geometry%22%2F%3E%3C%2FmxCell%3E%3CmxCell%20id%3D%2221%22%20value%3D%22%22%20style%3D%22rounded%3D0%3BwhiteSpace%3Dwrap%3Bhtml%3D1%3BfillColor%3D%23000000%3BstrokeColor%3Dnone%3B%22%20vertex%3D%221%22%20parent%3D%2215%22%3E%3CmxGeometry%20x%3D%2222%22%20y%3D%2219%22%20width%3D%2218%22%20height%3D%2216%22%20as%3D%22geometry%22%2F%3E%3C%2FmxCell%3E%3CmxCell%20id%3D%2222%22%20value%3D%22%22%20style%3D%22rounded%3D0%3BwhiteSpace%3Dwrap%3Bhtml%3D1%3BfillColor%3D%23000000%3BstrokeColor%3Dnone%3B%22%20vertex%3D%221%22%20parent%3D%2215%22%3E%3CmxGeometry%20x%3D%2244%22%20y%3D%2219%22%20width%3D%2218%22%20height%3D%2216%22%20as%3D%22geometry%22%2F%3E%3C%2FmxCell%3E%3CmxCell%20id%3D%2223%22%20value%3D%22%22%20style%3D%22rounded%3D0%3BwhiteSpace%3Dwrap%3Bhtml%3D1%3BfillColor%3D%23000000%3BstrokeColor%3Dnone%3B%22%20vertex%3D%221%22%20parent%3D%2215%22%3E%3CmxGeometry%20x%3D%2266%22%20y%3D%2219%22%20width%3D%2218%22%20height%3D%2216%22%20as%3D%22geometry%22%2F%3E%3C%2FmxCell%3E%3C%2Froot%3E%3C%2FmxGraphModel%3E&lt;/span&gt;" style="rounded=0;whiteSpace=wrap;html=1;strokeColor=#000000;fillColor=#CCCCCC;" vertex="1" parent="Equ55bX3IU3hU9m5Hj1D-140">
          <mxGeometry width="172" height="43" as="geometry" />
        </mxCell>
        <mxCell id="Equ55bX3IU3hU9m5Hj1D-142" value="&lt;span style=&quot;color: rgba(0, 0, 0, 0); font-family: monospace; font-size: 0px; text-align: start; text-wrap: nowrap;&quot;&gt;%3CmxGraphModel%3E%3Croot%3E%3CmxCell%20id%3D%220%22%2F%3E%3CmxCell%20id%3D%221%22%20parent%3D%220%22%2F%3E%3CmxCell%20id%3D%222%22%20value%3D%22%22%20style%3D%22group%22%20vertex%3D%221%22%20connectable%3D%220%22%20parent%3D%221%22%3E%3CmxGeometry%20x%3D%2221.539999999999964%22%20y%3D%22235%22%20width%3D%22795.46%22%20height%3D%2270%22%20as%3D%22geometry%22%2F%3E%3C%2FmxCell%3E%3CmxCell%20id%3D%223%22%20value%3D%22%22%20style%3D%22group%3Bmovable%3D1%3Bresizable%3D1%3Brotatable%3D1%3Bdeletable%3D1%3Beditable%3D1%3Blocked%3D0%3Bconnectable%3D1%3B%22%20vertex%3D%221%22%20connectable%3D%220%22%20parent%3D%222%22%3E%3CmxGeometry%20width%3D%22795.46%22%20height%3D%2270%22%20as%3D%22geometry%22%2F%3E%3C%2FmxCell%3E%3CmxCell%20id%3D%224%22%20value%3D%22%22%20style%3D%22rounded%3D0%3BwhiteSpace%3Dwrap%3Bhtml%3D1%3BfillColor%3D%23CFCFCF%3BstrokeColor%3D%23000000%3Bshadow%3D1%3Baspect%3Dfixed%3BstrokeWidth%3D2%3Bmovable%3D1%3Bresizable%3D1%3Brotatable%3D1%3Bdeletable%3D1%3Beditable%3D1%3Blocked%3D0%3Bconnectable%3D1%3B%22%20vertex%3D%221%22%20parent%3D%223%22%3E%3CmxGeometry%20width%3D%22795.46%22%20height%3D%2270%22%20as%3D%22geometry%22%2F%3E%3C%2FmxCell%3E%3CmxCell%20id%3D%225%22%20value%3D%22%22%20style%3D%22rounded%3D0%3BwhiteSpace%3Dwrap%3Bhtml%3D1%3BfillColor%3Dnone%3BstrokeColor%3D%23000000%3BstrokeWidth%3D2%3Bmovable%3D1%3Bresizable%3D1%3Brotatable%3D1%3Bdeletable%3D1%3Beditable%3D1%3Blocked%3D0%3Bconnectable%3D1%3B%22%20vertex%3D%221%22%20parent%3D%223%22%3E%3CmxGeometry%20x%3D%2230.19000000000002%22%20width%3D%22736%22%20height%3D%2270%22%20as%3D%22geometry%22%2F%3E%3C%2FmxCell%3E%3CmxCell%20id%3D%226%22%20value%3D%22%22%20style%3D%22rounded%3D0%3BwhiteSpace%3Dwrap%3Bhtml%3D1%3BstrokeColor%3D%23000000%3BfillColor%3D%23CCCCCC%3B%22%20vertex%3D%221%22%20parent%3D%223%22%3E%3CmxGeometry%20x%3D%22370.46000000000004%22%20y%3D%2213.5%22%20width%3D%22172%22%20height%3D%2243%22%20as%3D%22geometry%22%2F%3E%3C%2FmxCell%3E%3CmxCell%20id%3D%227%22%20value%3D%22%22%20style%3D%22group%22%20vertex%3D%221%22%20connectable%3D%220%22%20parent%3D%222%22%3E%3CmxGeometry%20x%3D%2242.460000000000036%22%20y%3D%2215%22%20width%3D%2242%22%20height%3D%2240%22%20as%3D%22geometry%22%2F%3E%3C%2FmxCell%3E%3CmxCell%20id%3D%228%22%20value%3D%22%22%20style%3D%22rounded%3D1%3BwhiteSpace%3Dwrap%3Bhtml%3D1%3BfillColor%3Ddefault%3BstrokeColor%3Dnone%3B%22%20vertex%3D%221%22%20parent%3D%227%22%3E%3CmxGeometry%20width%3D%2242%22%20height%3D%2240%22%20as%3D%22geometry%22%2F%3E%3C%2FmxCell%3E%3CmxCell%20id%3D%229%22%20value%3D%22%22%20style%3D%22fontColor%3D%23000000%3BverticalAlign%3Dmiddle%3BverticalLabelPosition%3Dmiddle%3BlabelPosition%3Dright%3Balign%3Dleft%3Bhtml%3D1%3BoutlineConnect%3D0%3BfillColor%3D%23d6d6d6%3BstrokeColor%3D%23999%3BgradientColor%3Dnone%3BgradientDirection%3Dnorth%3BstrokeWidth%3D2%3Bshape%3Dstencil(ZZExb8MgEIV%2FDWOQc6hJPaZpM3Xokrk6Y2JT2eCCXdqlv71HLlGCKoHgfe%2BE7h1C7WOPkxFQYZyMnoV6FgBfGCw2A2Egp2e4hoq1w9EwOjb2c7GzJfjqO892KsrVi6h2It8rofYnH0wX%2FOLawrjadsQu9xKD5kf6eZ6iUFR3oJVSklGji34J2kjtR4K%2FtEfTWqTzLfiPHAIOt7JCJNOQzr1GOp8CunZ1VcslzPtAQE6u4zjf3Mnq4VHWNaOfC9qAhHURGtRW1ptibPcoxygHQuTfTM6Uv%2BUM%2FgA%3D)%3BlabelBackgroundColor%3Dnone%3Bshadow%3D0%3Bglass%3D0%3Bsketch%3D1%3Baspect%3Dfixed%3B%22%20vertex%3D%221%22%20parent%3D%227%22%3E%3CmxGeometry%20x%3D%229%22%20y%3D%228%22%20width%3D%2224%22%20height%3D%2224%22%20as%3D%22geometry%22%2F%3E%3C%2FmxCell%3E%3CmxCell%20id%3D%2210%22%20value%3D%22%22%20style%3D%22group%22%20vertex%3D%221%22%20connectable%3D%220%22%20parent%3D%222%22%3E%3CmxGeometry%20x%3D%22709.46%22%20y%3D%2214.5%22%20width%3D%2226%22%20height%3D%2241%22%20as%3D%22geometry%22%2F%3E%3C%2FmxCell%3E%3CmxCell%20id%3D%2211%22%20value%3D%22%22%20style%3D%22group%22%20vertex%3D%221%22%20connectable%3D%220%22%20parent%3D%2210%22%3E%3CmxGeometry%20width%3D%2226%22%20height%3D%2241%22%20as%3D%22geometry%22%2F%3E%3C%2FmxCell%3E%3CmxCell%20id%3D%2212%22%20value%3D%22%22%20style%3D%22rounded%3D0%3BwhiteSpace%3Dwrap%3Bhtml%3D1%3BfillColor%3D%23000000%3BstrokeColor%3Dnone%3B%22%20vertex%3D%221%22%20parent%3D%2211%22%3E%3CmxGeometry%20width%3D%2226%22%20height%3D%2216%22%20as%3D%22geometry%22%2F%3E%3C%2FmxCell%3E%3CmxCell%20id%3D%2213%22%20value%3D%22%22%20style%3D%22rounded%3D0%3BwhiteSpace%3Dwrap%3Bhtml%3D1%3BfillColor%3D%23000000%3BstrokeColor%3Dnone%3B%22%20vertex%3D%221%22%20parent%3D%2211%22%3E%3CmxGeometry%20y%3D%2225%22%20width%3D%2226%22%20height%3D%2216%22%20as%3D%22geometry%22%2F%3E%3C%2FmxCell%3E%3CmxCell%20id%3D%2214%22%20value%3D%22%22%20style%3D%22rounded%3D0%3BwhiteSpace%3Dwrap%3Bhtml%3D1%3BfillColor%3D%23000000%3BstrokeColor%3Dnone%3B%22%20vertex%3D%221%22%20parent%3D%222%22%3E%3CmxGeometry%20x%3D%22682.46%22%20y%3D%2239.5%22%20width%3D%2218%22%20height%3D%2216%22%20as%3D%22geometry%22%2F%3E%3C%2FmxCell%3E%3CmxCell%20id%3D%2215%22%20value%3D%22%22%20style%3D%22group%22%20vertex%3D%221%22%20connectable%3D%220%22%20parent%3D%222%22%3E%3CmxGeometry%20x%3D%22569.46%22%20y%3D%2220.5%22%20width%3D%2284%22%20height%3D%2235%22%20as%3D%22geometry%22%2F%3E%3C%2FmxCell%3E%3CmxCell%20id%3D%2216%22%20value%3D%22%22%20style%3D%22rounded%3D0%3BwhiteSpace%3Dwrap%3Bhtml%3D1%3BfillColor%3D%23000000%3BstrokeColor%3Dnone%3B%22%20vertex%3D%221%22%20parent%3D%2215%22%3E%3CmxGeometry%20x%3D%2266%22%20width%3D%2218%22%20height%3D%2216%22%20as%3D%22geometry%22%2F%3E%3C%2FmxCell%3E%3CmxCell%20id%3D%2217%22%20value%3D%22%22%20style%3D%22rounded%3D0%3BwhiteSpace%3Dwrap%3Bhtml%3D1%3BfillColor%3D%23000000%3BstrokeColor%3Dnone%3B%22%20vertex%3D%221%22%20parent%3D%2215%22%3E%3CmxGeometry%20x%3D%2244%22%20width%3D%2218%22%20height%3D%2216%22%20as%3D%22geometry%22%2F%3E%3C%2FmxCell%3E%3CmxCell%20id%3D%2218%22%20value%3D%22%22%20style%3D%22rounded%3D0%3BwhiteSpace%3Dwrap%3Bhtml%3D1%3BfillColor%3D%23000000%3BstrokeColor%3Dnone%3B%22%20vertex%3D%221%22%20parent%3D%2215%22%3E%3CmxGeometry%20x%3D%2222%22%20width%3D%2218%22%20height%3D%2216%22%20as%3D%22geometry%22%2F%3E%3C%2FmxCell%3E%3CmxCell%20id%3D%2219%22%20value%3D%22%22%20style%3D%22rounded%3D0%3BwhiteSpace%3Dwrap%3Bhtml%3D1%3BfillColor%3D%23000000%3BstrokeColor%3Dnone%3B%22%20vertex%3D%221%22%20parent%3D%2215%22%3E%3CmxGeometry%20width%3D%2218%22%20height%3D%2216%22%20as%3D%22geometry%22%2F%3E%3C%2FmxCell%3E%3CmxCell%20id%3D%2220%22%20value%3D%22%22%20style%3D%22rounded%3D0%3BwhiteSpace%3Dwrap%3Bhtml%3D1%3BfillColor%3D%23000000%3BstrokeColor%3Dnone%3B%22%20vertex%3D%221%22%20parent%3D%2215%22%3E%3CmxGeometry%20y%3D%2219%22%20width%3D%2218%22%20height%3D%2216%22%20as%3D%22geometry%22%2F%3E%3C%2FmxCell%3E%3CmxCell%20id%3D%2221%22%20value%3D%22%22%20style%3D%22rounded%3D0%3BwhiteSpace%3Dwrap%3Bhtml%3D1%3BfillColor%3D%23000000%3BstrokeColor%3Dnone%3B%22%20vertex%3D%221%22%20parent%3D%2215%22%3E%3CmxGeometry%20x%3D%2222%22%20y%3D%2219%22%20width%3D%2218%22%20height%3D%2216%22%20as%3D%22geometry%22%2F%3E%3C%2FmxCell%3E%3CmxCell%20id%3D%2222%22%20value%3D%22%22%20style%3D%22rounded%3D0%3BwhiteSpace%3Dwrap%3Bhtml%3D1%3BfillColor%3D%23000000%3BstrokeColor%3Dnone%3B%22%20vertex%3D%221%22%20parent%3D%2215%22%3E%3CmxGeometry%20x%3D%2244%22%20y%3D%2219%22%20width%3D%2218%22%20height%3D%2216%22%20as%3D%22geometry%22%2F%3E%3C%2FmxCell%3E%3CmxCell%20id%3D%2223%22%20value%3D%22%22%20style%3D%22rounded%3D0%3BwhiteSpace%3Dwrap%3Bhtml%3D1%3BfillColor%3D%23000000%3BstrokeColor%3Dnone%3B%22%20vertex%3D%221%22%20parent%3D%2215%22%3E%3CmxGeometry%20x%3D%2266%22%20y%3D%2219%22%20width%3D%2218%22%20height%3D%2216%22%20as%3D%22geometry%22%2F%3E%3C%2FmxCell%3E%3C%2Froot%3E%3C%2FmxGraphModel%3E&lt;/span&gt;" style="rounded=0;whiteSpace=wrap;html=1;strokeColor=#000000;fillColor=#CCCCCC;" vertex="1" parent="Equ55bX3IU3hU9m5Hj1D-140">
          <mxGeometry x="176" width="172" height="43" as="geometry" />
        </mxCell>
        <mxCell id="Equ55bX3IU3hU9m5Hj1D-143" value="&lt;span style=&quot;color: rgba(0, 0, 0, 0); font-family: monospace; font-size: 0px; text-align: start; text-wrap: nowrap;&quot;&gt;%3CmxGraphModel%3E%3Croot%3E%3CmxCell%20id%3D%220%22%2F%3E%3CmxCell%20id%3D%221%22%20parent%3D%220%22%2F%3E%3CmxCell%20id%3D%222%22%20value%3D%22%22%20style%3D%22group%22%20vertex%3D%221%22%20connectable%3D%220%22%20parent%3D%221%22%3E%3CmxGeometry%20x%3D%2221.539999999999964%22%20y%3D%22235%22%20width%3D%22795.46%22%20height%3D%2270%22%20as%3D%22geometry%22%2F%3E%3C%2FmxCell%3E%3CmxCell%20id%3D%223%22%20value%3D%22%22%20style%3D%22group%3Bmovable%3D1%3Bresizable%3D1%3Brotatable%3D1%3Bdeletable%3D1%3Beditable%3D1%3Blocked%3D0%3Bconnectable%3D1%3B%22%20vertex%3D%221%22%20connectable%3D%220%22%20parent%3D%222%22%3E%3CmxGeometry%20width%3D%22795.46%22%20height%3D%2270%22%20as%3D%22geometry%22%2F%3E%3C%2FmxCell%3E%3CmxCell%20id%3D%224%22%20value%3D%22%22%20style%3D%22rounded%3D0%3BwhiteSpace%3Dwrap%3Bhtml%3D1%3BfillColor%3D%23CFCFCF%3BstrokeColor%3D%23000000%3Bshadow%3D1%3Baspect%3Dfixed%3BstrokeWidth%3D2%3Bmovable%3D1%3Bresizable%3D1%3Brotatable%3D1%3Bdeletable%3D1%3Beditable%3D1%3Blocked%3D0%3Bconnectable%3D1%3B%22%20vertex%3D%221%22%20parent%3D%223%22%3E%3CmxGeometry%20width%3D%22795.46%22%20height%3D%2270%22%20as%3D%22geometry%22%2F%3E%3C%2FmxCell%3E%3CmxCell%20id%3D%225%22%20value%3D%22%22%20style%3D%22rounded%3D0%3BwhiteSpace%3Dwrap%3Bhtml%3D1%3BfillColor%3Dnone%3BstrokeColor%3D%23000000%3BstrokeWidth%3D2%3Bmovable%3D1%3Bresizable%3D1%3Brotatable%3D1%3Bdeletable%3D1%3Beditable%3D1%3Blocked%3D0%3Bconnectable%3D1%3B%22%20vertex%3D%221%22%20parent%3D%223%22%3E%3CmxGeometry%20x%3D%2230.19000000000002%22%20width%3D%22736%22%20height%3D%2270%22%20as%3D%22geometry%22%2F%3E%3C%2FmxCell%3E%3CmxCell%20id%3D%226%22%20value%3D%22%22%20style%3D%22rounded%3D0%3BwhiteSpace%3Dwrap%3Bhtml%3D1%3BstrokeColor%3D%23000000%3BfillColor%3D%23CCCCCC%3B%22%20vertex%3D%221%22%20parent%3D%223%22%3E%3CmxGeometry%20x%3D%22370.46000000000004%22%20y%3D%2213.5%22%20width%3D%22172%22%20height%3D%2243%22%20as%3D%22geometry%22%2F%3E%3C%2FmxCell%3E%3CmxCell%20id%3D%227%22%20value%3D%22%22%20style%3D%22group%22%20vertex%3D%221%22%20connectable%3D%220%22%20parent%3D%222%22%3E%3CmxGeometry%20x%3D%2242.460000000000036%22%20y%3D%2215%22%20width%3D%2242%22%20height%3D%2240%22%20as%3D%22geometry%22%2F%3E%3C%2FmxCell%3E%3CmxCell%20id%3D%228%22%20value%3D%22%22%20style%3D%22rounded%3D1%3BwhiteSpace%3Dwrap%3Bhtml%3D1%3BfillColor%3Ddefault%3BstrokeColor%3Dnone%3B%22%20vertex%3D%221%22%20parent%3D%227%22%3E%3CmxGeometry%20width%3D%2242%22%20height%3D%2240%22%20as%3D%22geometry%22%2F%3E%3C%2FmxCell%3E%3CmxCell%20id%3D%229%22%20value%3D%22%22%20style%3D%22fontColor%3D%23000000%3BverticalAlign%3Dmiddle%3BverticalLabelPosition%3Dmiddle%3BlabelPosition%3Dright%3Balign%3Dleft%3Bhtml%3D1%3BoutlineConnect%3D0%3BfillColor%3D%23d6d6d6%3BstrokeColor%3D%23999%3BgradientColor%3Dnone%3BgradientDirection%3Dnorth%3BstrokeWidth%3D2%3Bshape%3Dstencil(ZZExb8MgEIV%2FDWOQc6hJPaZpM3Xokrk6Y2JT2eCCXdqlv71HLlGCKoHgfe%2BE7h1C7WOPkxFQYZyMnoV6FgBfGCw2A2Egp2e4hoq1w9EwOjb2c7GzJfjqO892KsrVi6h2It8rofYnH0wX%2FOLawrjadsQu9xKD5kf6eZ6iUFR3oJVSklGji34J2kjtR4K%2FtEfTWqTzLfiPHAIOt7JCJNOQzr1GOp8CunZ1VcslzPtAQE6u4zjf3Mnq4VHWNaOfC9qAhHURGtRW1ptibPcoxygHQuTfTM6Uv%2BUM%2FgA%3D)%3BlabelBackgroundColor%3Dnone%3Bshadow%3D0%3Bglass%3D0%3Bsketch%3D1%3Baspect%3Dfixed%3B%22%20vertex%3D%221%22%20parent%3D%227%22%3E%3CmxGeometry%20x%3D%229%22%20y%3D%228%22%20width%3D%2224%22%20height%3D%2224%22%20as%3D%22geometry%22%2F%3E%3C%2FmxCell%3E%3CmxCell%20id%3D%2210%22%20value%3D%22%22%20style%3D%22group%22%20vertex%3D%221%22%20connectable%3D%220%22%20parent%3D%222%22%3E%3CmxGeometry%20x%3D%22709.46%22%20y%3D%2214.5%22%20width%3D%2226%22%20height%3D%2241%22%20as%3D%22geometry%22%2F%3E%3C%2FmxCell%3E%3CmxCell%20id%3D%2211%22%20value%3D%22%22%20style%3D%22group%22%20vertex%3D%221%22%20connectable%3D%220%22%20parent%3D%2210%22%3E%3CmxGeometry%20width%3D%2226%22%20height%3D%2241%22%20as%3D%22geometry%22%2F%3E%3C%2FmxCell%3E%3CmxCell%20id%3D%2212%22%20value%3D%22%22%20style%3D%22rounded%3D0%3BwhiteSpace%3Dwrap%3Bhtml%3D1%3BfillColor%3D%23000000%3BstrokeColor%3Dnone%3B%22%20vertex%3D%221%22%20parent%3D%2211%22%3E%3CmxGeometry%20width%3D%2226%22%20height%3D%2216%22%20as%3D%22geometry%22%2F%3E%3C%2FmxCell%3E%3CmxCell%20id%3D%2213%22%20value%3D%22%22%20style%3D%22rounded%3D0%3BwhiteSpace%3Dwrap%3Bhtml%3D1%3BfillColor%3D%23000000%3BstrokeColor%3Dnone%3B%22%20vertex%3D%221%22%20parent%3D%2211%22%3E%3CmxGeometry%20y%3D%2225%22%20width%3D%2226%22%20height%3D%2216%22%20as%3D%22geometry%22%2F%3E%3C%2FmxCell%3E%3CmxCell%20id%3D%2214%22%20value%3D%22%22%20style%3D%22rounded%3D0%3BwhiteSpace%3Dwrap%3Bhtml%3D1%3BfillColor%3D%23000000%3BstrokeColor%3Dnone%3B%22%20vertex%3D%221%22%20parent%3D%222%22%3E%3CmxGeometry%20x%3D%22682.46%22%20y%3D%2239.5%22%20width%3D%2218%22%20height%3D%2216%22%20as%3D%22geometry%22%2F%3E%3C%2FmxCell%3E%3CmxCell%20id%3D%2215%22%20value%3D%22%22%20style%3D%22group%22%20vertex%3D%221%22%20connectable%3D%220%22%20parent%3D%222%22%3E%3CmxGeometry%20x%3D%22569.46%22%20y%3D%2220.5%22%20width%3D%2284%22%20height%3D%2235%22%20as%3D%22geometry%22%2F%3E%3C%2FmxCell%3E%3CmxCell%20id%3D%2216%22%20value%3D%22%22%20style%3D%22rounded%3D0%3BwhiteSpace%3Dwrap%3Bhtml%3D1%3BfillColor%3D%23000000%3BstrokeColor%3Dnone%3B%22%20vertex%3D%221%22%20parent%3D%2215%22%3E%3CmxGeometry%20x%3D%2266%22%20width%3D%2218%22%20height%3D%2216%22%20as%3D%22geometry%22%2F%3E%3C%2FmxCell%3E%3CmxCell%20id%3D%2217%22%20value%3D%22%22%20style%3D%22rounded%3D0%3BwhiteSpace%3Dwrap%3Bhtml%3D1%3BfillColor%3D%23000000%3BstrokeColor%3Dnone%3B%22%20vertex%3D%221%22%20parent%3D%2215%22%3E%3CmxGeometry%20x%3D%2244%22%20width%3D%2218%22%20height%3D%2216%22%20as%3D%22geometry%22%2F%3E%3C%2FmxCell%3E%3CmxCell%20id%3D%2218%22%20value%3D%22%22%20style%3D%22rounded%3D0%3BwhiteSpace%3Dwrap%3Bhtml%3D1%3BfillColor%3D%23000000%3BstrokeColor%3Dnone%3B%22%20vertex%3D%221%22%20parent%3D%2215%22%3E%3CmxGeometry%20x%3D%2222%22%20width%3D%2218%22%20height%3D%2216%22%20as%3D%22geometry%22%2F%3E%3C%2FmxCell%3E%3CmxCell%20id%3D%2219%22%20value%3D%22%22%20style%3D%22rounded%3D0%3BwhiteSpace%3Dwrap%3Bhtml%3D1%3BfillColor%3D%23000000%3BstrokeColor%3Dnone%3B%22%20vertex%3D%221%22%20parent%3D%2215%22%3E%3CmxGeometry%20width%3D%2218%22%20height%3D%2216%22%20as%3D%22geometry%22%2F%3E%3C%2FmxCell%3E%3CmxCell%20id%3D%2220%22%20value%3D%22%22%20style%3D%22rounded%3D0%3BwhiteSpace%3Dwrap%3Bhtml%3D1%3BfillColor%3D%23000000%3BstrokeColor%3Dnone%3B%22%20vertex%3D%221%22%20parent%3D%2215%22%3E%3CmxGeometry%20y%3D%2219%22%20width%3D%2218%22%20height%3D%2216%22%20as%3D%22geometry%22%2F%3E%3C%2FmxCell%3E%3CmxCell%20id%3D%2221%22%20value%3D%22%22%20style%3D%22rounded%3D0%3BwhiteSpace%3Dwrap%3Bhtml%3D1%3BfillColor%3D%23000000%3BstrokeColor%3Dnone%3B%22%20vertex%3D%221%22%20parent%3D%2215%22%3E%3CmxGeometry%20x%3D%2222%22%20y%3D%2219%22%20width%3D%2218%22%20height%3D%2216%22%20as%3D%22geometry%22%2F%3E%3C%2FmxCell%3E%3CmxCell%20id%3D%2222%22%20value%3D%22%22%20style%3D%22rounded%3D0%3BwhiteSpace%3Dwrap%3Bhtml%3D1%3BfillColor%3D%23000000%3BstrokeColor%3Dnone%3B%22%20vertex%3D%221%22%20parent%3D%2215%22%3E%3CmxGeometry%20x%3D%2244%22%20y%3D%2219%22%20width%3D%2218%22%20height%3D%2216%22%20as%3D%22geometry%22%2F%3E%3C%2FmxCell%3E%3CmxCell%20id%3D%2223%22%20value%3D%22%22%20style%3D%22rounded%3D0%3BwhiteSpace%3Dwrap%3Bhtml%3D1%3BfillColor%3D%23000000%3BstrokeColor%3Dnone%3B%22%20vertex%3D%221%22%20parent%3D%2215%22%3E%3CmxGeometry%20x%3D%2266%22%20y%3D%2219%22%20width%3D%2218%22%20height%3D%2216%22%20as%3D%22geometry%22%2F%3E%3C%2FmxCell%3E%3C%2Froot%3E%3C%2FmxGraphModel%3E&lt;/span&gt;" style="rounded=0;whiteSpace=wrap;html=1;strokeColor=#000000;fillColor=#CCCCCC;" vertex="1" parent="Equ55bX3IU3hU9m5Hj1D-140">
          <mxGeometry x="352" width="172" height="43" as="geometry" />
        </mxCell>
        <mxCell id="Equ55bX3IU3hU9m5Hj1D-144" value="&lt;span style=&quot;color: rgba(0, 0, 0, 0); font-family: monospace; font-size: 0px; text-align: start; text-wrap: nowrap;&quot;&gt;%3CmxGraphModel%3E%3Croot%3E%3CmxCell%20id%3D%220%22%2F%3E%3CmxCell%20id%3D%221%22%20parent%3D%220%22%2F%3E%3CmxCell%20id%3D%222%22%20value%3D%22%22%20style%3D%22group%22%20vertex%3D%221%22%20connectable%3D%220%22%20parent%3D%221%22%3E%3CmxGeometry%20x%3D%2221.539999999999964%22%20y%3D%22235%22%20width%3D%22795.46%22%20height%3D%2270%22%20as%3D%22geometry%22%2F%3E%3C%2FmxCell%3E%3CmxCell%20id%3D%223%22%20value%3D%22%22%20style%3D%22group%3Bmovable%3D1%3Bresizable%3D1%3Brotatable%3D1%3Bdeletable%3D1%3Beditable%3D1%3Blocked%3D0%3Bconnectable%3D1%3B%22%20vertex%3D%221%22%20connectable%3D%220%22%20parent%3D%222%22%3E%3CmxGeometry%20width%3D%22795.46%22%20height%3D%2270%22%20as%3D%22geometry%22%2F%3E%3C%2FmxCell%3E%3CmxCell%20id%3D%224%22%20value%3D%22%22%20style%3D%22rounded%3D0%3BwhiteSpace%3Dwrap%3Bhtml%3D1%3BfillColor%3D%23CFCFCF%3BstrokeColor%3D%23000000%3Bshadow%3D1%3Baspect%3Dfixed%3BstrokeWidth%3D2%3Bmovable%3D1%3Bresizable%3D1%3Brotatable%3D1%3Bdeletable%3D1%3Beditable%3D1%3Blocked%3D0%3Bconnectable%3D1%3B%22%20vertex%3D%221%22%20parent%3D%223%22%3E%3CmxGeometry%20width%3D%22795.46%22%20height%3D%2270%22%20as%3D%22geometry%22%2F%3E%3C%2FmxCell%3E%3CmxCell%20id%3D%225%22%20value%3D%22%22%20style%3D%22rounded%3D0%3BwhiteSpace%3Dwrap%3Bhtml%3D1%3BfillColor%3Dnone%3BstrokeColor%3D%23000000%3BstrokeWidth%3D2%3Bmovable%3D1%3Bresizable%3D1%3Brotatable%3D1%3Bdeletable%3D1%3Beditable%3D1%3Blocked%3D0%3Bconnectable%3D1%3B%22%20vertex%3D%221%22%20parent%3D%223%22%3E%3CmxGeometry%20x%3D%2230.19000000000002%22%20width%3D%22736%22%20height%3D%2270%22%20as%3D%22geometry%22%2F%3E%3C%2FmxCell%3E%3CmxCell%20id%3D%226%22%20value%3D%22%22%20style%3D%22rounded%3D0%3BwhiteSpace%3Dwrap%3Bhtml%3D1%3BstrokeColor%3D%23000000%3BfillColor%3D%23CCCCCC%3B%22%20vertex%3D%221%22%20parent%3D%223%22%3E%3CmxGeometry%20x%3D%22370.46000000000004%22%20y%3D%2213.5%22%20width%3D%22172%22%20height%3D%2243%22%20as%3D%22geometry%22%2F%3E%3C%2FmxCell%3E%3CmxCell%20id%3D%227%22%20value%3D%22%22%20style%3D%22group%22%20vertex%3D%221%22%20connectable%3D%220%22%20parent%3D%222%22%3E%3CmxGeometry%20x%3D%2242.460000000000036%22%20y%3D%2215%22%20width%3D%2242%22%20height%3D%2240%22%20as%3D%22geometry%22%2F%3E%3C%2FmxCell%3E%3CmxCell%20id%3D%228%22%20value%3D%22%22%20style%3D%22rounded%3D1%3BwhiteSpace%3Dwrap%3Bhtml%3D1%3BfillColor%3Ddefault%3BstrokeColor%3Dnone%3B%22%20vertex%3D%221%22%20parent%3D%227%22%3E%3CmxGeometry%20width%3D%2242%22%20height%3D%2240%22%20as%3D%22geometry%22%2F%3E%3C%2FmxCell%3E%3CmxCell%20id%3D%229%22%20value%3D%22%22%20style%3D%22fontColor%3D%23000000%3BverticalAlign%3Dmiddle%3BverticalLabelPosition%3Dmiddle%3BlabelPosition%3Dright%3Balign%3Dleft%3Bhtml%3D1%3BoutlineConnect%3D0%3BfillColor%3D%23d6d6d6%3BstrokeColor%3D%23999%3BgradientColor%3Dnone%3BgradientDirection%3Dnorth%3BstrokeWidth%3D2%3Bshape%3Dstencil(ZZExb8MgEIV%2FDWOQc6hJPaZpM3Xokrk6Y2JT2eCCXdqlv71HLlGCKoHgfe%2BE7h1C7WOPkxFQYZyMnoV6FgBfGCw2A2Egp2e4hoq1w9EwOjb2c7GzJfjqO892KsrVi6h2It8rofYnH0wX%2FOLawrjadsQu9xKD5kf6eZ6iUFR3oJVSklGji34J2kjtR4K%2FtEfTWqTzLfiPHAIOt7JCJNOQzr1GOp8CunZ1VcslzPtAQE6u4zjf3Mnq4VHWNaOfC9qAhHURGtRW1ptibPcoxygHQuTfTM6Uv%2BUM%2FgA%3D)%3BlabelBackgroundColor%3Dnone%3Bshadow%3D0%3Bglass%3D0%3Bsketch%3D1%3Baspect%3Dfixed%3B%22%20vertex%3D%221%22%20parent%3D%227%22%3E%3CmxGeometry%20x%3D%229%22%20y%3D%228%22%20width%3D%2224%22%20height%3D%2224%22%20as%3D%22geometry%22%2F%3E%3C%2FmxCell%3E%3CmxCell%20id%3D%2210%22%20value%3D%22%22%20style%3D%22group%22%20vertex%3D%221%22%20connectable%3D%220%22%20parent%3D%222%22%3E%3CmxGeometry%20x%3D%22709.46%22%20y%3D%2214.5%22%20width%3D%2226%22%20height%3D%2241%22%20as%3D%22geometry%22%2F%3E%3C%2FmxCell%3E%3CmxCell%20id%3D%2211%22%20value%3D%22%22%20style%3D%22group%22%20vertex%3D%221%22%20connectable%3D%220%22%20parent%3D%2210%22%3E%3CmxGeometry%20width%3D%2226%22%20height%3D%2241%22%20as%3D%22geometry%22%2F%3E%3C%2FmxCell%3E%3CmxCell%20id%3D%2212%22%20value%3D%22%22%20style%3D%22rounded%3D0%3BwhiteSpace%3Dwrap%3Bhtml%3D1%3BfillColor%3D%23000000%3BstrokeColor%3Dnone%3B%22%20vertex%3D%221%22%20parent%3D%2211%22%3E%3CmxGeometry%20width%3D%2226%22%20height%3D%2216%22%20as%3D%22geometry%22%2F%3E%3C%2FmxCell%3E%3CmxCell%20id%3D%2213%22%20value%3D%22%22%20style%3D%22rounded%3D0%3BwhiteSpace%3Dwrap%3Bhtml%3D1%3BfillColor%3D%23000000%3BstrokeColor%3Dnone%3B%22%20vertex%3D%221%22%20parent%3D%2211%22%3E%3CmxGeometry%20y%3D%2225%22%20width%3D%2226%22%20height%3D%2216%22%20as%3D%22geometry%22%2F%3E%3C%2FmxCell%3E%3CmxCell%20id%3D%2214%22%20value%3D%22%22%20style%3D%22rounded%3D0%3BwhiteSpace%3Dwrap%3Bhtml%3D1%3BfillColor%3D%23000000%3BstrokeColor%3Dnone%3B%22%20vertex%3D%221%22%20parent%3D%222%22%3E%3CmxGeometry%20x%3D%22682.46%22%20y%3D%2239.5%22%20width%3D%2218%22%20height%3D%2216%22%20as%3D%22geometry%22%2F%3E%3C%2FmxCell%3E%3CmxCell%20id%3D%2215%22%20value%3D%22%22%20style%3D%22group%22%20vertex%3D%221%22%20connectable%3D%220%22%20parent%3D%222%22%3E%3CmxGeometry%20x%3D%22569.46%22%20y%3D%2220.5%22%20width%3D%2284%22%20height%3D%2235%22%20as%3D%22geometry%22%2F%3E%3C%2FmxCell%3E%3CmxCell%20id%3D%2216%22%20value%3D%22%22%20style%3D%22rounded%3D0%3BwhiteSpace%3Dwrap%3Bhtml%3D1%3BfillColor%3D%23000000%3BstrokeColor%3Dnone%3B%22%20vertex%3D%221%22%20parent%3D%2215%22%3E%3CmxGeometry%20x%3D%2266%22%20width%3D%2218%22%20height%3D%2216%22%20as%3D%22geometry%22%2F%3E%3C%2FmxCell%3E%3CmxCell%20id%3D%2217%22%20value%3D%22%22%20style%3D%22rounded%3D0%3BwhiteSpace%3Dwrap%3Bhtml%3D1%3BfillColor%3D%23000000%3BstrokeColor%3Dnone%3B%22%20vertex%3D%221%22%20parent%3D%2215%22%3E%3CmxGeometry%20x%3D%2244%22%20width%3D%2218%22%20height%3D%2216%22%20as%3D%22geometry%22%2F%3E%3C%2FmxCell%3E%3CmxCell%20id%3D%2218%22%20value%3D%22%22%20style%3D%22rounded%3D0%3BwhiteSpace%3Dwrap%3Bhtml%3D1%3BfillColor%3D%23000000%3BstrokeColor%3Dnone%3B%22%20vertex%3D%221%22%20parent%3D%2215%22%3E%3CmxGeometry%20x%3D%2222%22%20width%3D%2218%22%20height%3D%2216%22%20as%3D%22geometry%22%2F%3E%3C%2FmxCell%3E%3CmxCell%20id%3D%2219%22%20value%3D%22%22%20style%3D%22rounded%3D0%3BwhiteSpace%3Dwrap%3Bhtml%3D1%3BfillColor%3D%23000000%3BstrokeColor%3Dnone%3B%22%20vertex%3D%221%22%20parent%3D%2215%22%3E%3CmxGeometry%20width%3D%2218%22%20height%3D%2216%22%20as%3D%22geometry%22%2F%3E%3C%2FmxCell%3E%3CmxCell%20id%3D%2220%22%20value%3D%22%22%20style%3D%22rounded%3D0%3BwhiteSpace%3Dwrap%3Bhtml%3D1%3BfillColor%3D%23000000%3BstrokeColor%3Dnone%3B%22%20vertex%3D%221%22%20parent%3D%2215%22%3E%3CmxGeometry%20y%3D%2219%22%20width%3D%2218%22%20height%3D%2216%22%20as%3D%22geometry%22%2F%3E%3C%2FmxCell%3E%3CmxCell%20id%3D%2221%22%20value%3D%22%22%20style%3D%22rounded%3D0%3BwhiteSpace%3Dwrap%3Bhtml%3D1%3BfillColor%3D%23000000%3BstrokeColor%3Dnone%3B%22%20vertex%3D%221%22%20parent%3D%2215%22%3E%3CmxGeometry%20x%3D%2222%22%20y%3D%2219%22%20width%3D%2218%22%20height%3D%2216%22%20as%3D%22geometry%22%2F%3E%3C%2FmxCell%3E%3CmxCell%20id%3D%2222%22%20value%3D%22%22%20style%3D%22rounded%3D0%3BwhiteSpace%3Dwrap%3Bhtml%3D1%3BfillColor%3D%23000000%3BstrokeColor%3Dnone%3B%22%20vertex%3D%221%22%20parent%3D%2215%22%3E%3CmxGeometry%20x%3D%2244%22%20y%3D%2219%22%20width%3D%2218%22%20height%3D%2216%22%20as%3D%22geometry%22%2F%3E%3C%2FmxCell%3E%3CmxCell%20id%3D%2223%22%20value%3D%22%22%20style%3D%22rounded%3D0%3BwhiteSpace%3Dwrap%3Bhtml%3D1%3BfillColor%3D%23000000%3BstrokeColor%3Dnone%3B%22%20vertex%3D%221%22%20parent%3D%2215%22%3E%3CmxGeometry%20x%3D%2266%22%20y%3D%2219%22%20width%3D%2218%22%20height%3D%2216%22%20as%3D%22geometry%22%2F%3E%3C%2FmxCell%3E%3C%2Froot%3E%3C%2FmxGraphModel%3E&lt;/span&gt;" style="rounded=0;whiteSpace=wrap;html=1;strokeColor=#000000;fillColor=#CCCCCC;" vertex="1" parent="Equ55bX3IU3hU9m5Hj1D-140">
          <mxGeometry x="528" width="172" height="43" as="geometry" />
        </mxCell>
        <mxCell id="Equ55bX3IU3hU9m5Hj1D-145" value="" style="group" connectable="0" vertex="1" parent="1">
          <mxGeometry x="240" y="730" width="795.46" height="70" as="geometry" />
        </mxCell>
        <mxCell id="Equ55bX3IU3hU9m5Hj1D-146" value="" style="group" connectable="0" vertex="1" parent="Equ55bX3IU3hU9m5Hj1D-145">
          <mxGeometry width="795.46" height="70" as="geometry" />
        </mxCell>
        <mxCell id="Equ55bX3IU3hU9m5Hj1D-147" value="" style="rounded=0;whiteSpace=wrap;html=1;fillColor=#CFCFCF;strokeColor=#000000;shadow=1;aspect=fixed;strokeWidth=2;movable=1;resizable=1;rotatable=1;deletable=1;editable=1;locked=0;connectable=1;container=0;" vertex="1" parent="Equ55bX3IU3hU9m5Hj1D-146">
          <mxGeometry width="795.46" height="70" as="geometry" />
        </mxCell>
        <mxCell id="Equ55bX3IU3hU9m5Hj1D-148" value="" style="rounded=0;whiteSpace=wrap;html=1;fillColor=none;strokeColor=#000000;strokeWidth=2;container=0;" vertex="1" parent="Equ55bX3IU3hU9m5Hj1D-146">
          <mxGeometry x="30.190000000000055" width="736" height="70" as="geometry" />
        </mxCell>
        <mxCell id="Equ55bX3IU3hU9m5Hj1D-149" value="" style="group" connectable="0" vertex="1" parent="Equ55bX3IU3hU9m5Hj1D-145">
          <mxGeometry x="42.460000000000036" y="15" width="42" height="40" as="geometry" />
        </mxCell>
        <mxCell id="Equ55bX3IU3hU9m5Hj1D-150" value="" style="rounded=1;whiteSpace=wrap;html=1;fillColor=default;strokeColor=none;container=0;" vertex="1" parent="Equ55bX3IU3hU9m5Hj1D-149">
          <mxGeometry width="42" height="40" as="geometry" />
        </mxCell>
        <mxCell id="Equ55bX3IU3hU9m5Hj1D-151" value="" style="fontColor=#000000;verticalAlign=middle;verticalLabelPosition=middle;labelPosition=right;align=left;html=1;outlineConnect=0;fillColor=#d6d6d6;strokeColor=#999;gradientColor=none;gradientDirection=north;strokeWidth=2;shape=stencil(ZZExb8MgEIV/DWOQc6hJPaZpM3Xokrk6Y2JT2eCCXdqlv71HLlGCKoHgfe+E7h1C7WOPkxFQYZyMnoV6FgBfGCw2A2Egp2e4hoq1w9EwOjb2c7GzJfjqO892KsrVi6h2It8rofYnH0wX/OLawrjadsQu9xKD5kf6eZ6iUFR3oJVSklGji34J2kjtR4K/tEfTWqTzLfiPHAIOt7JCJNOQzr1GOp8CunZ1VcslzPtAQE6u4zjf3Mnq4VHWNaOfC9qAhHURGtRW1ptibPcoxygHQuTfTM6Uv+UM/gA=);labelBackgroundColor=none;shadow=0;glass=0;sketch=1;aspect=fixed;container=0;" vertex="1" parent="Equ55bX3IU3hU9m5Hj1D-149">
          <mxGeometry x="9" y="8" width="24" height="24" as="geometry" />
        </mxCell>
        <mxCell id="Equ55bX3IU3hU9m5Hj1D-152" value="" style="rounded=0;whiteSpace=wrap;html=1;fillColor=#000000;strokeColor=none;container=0;" vertex="1" parent="Equ55bX3IU3hU9m5Hj1D-145">
          <mxGeometry x="244" y="36.5" width="18" height="16" as="geometry" />
        </mxCell>
        <mxCell id="Equ55bX3IU3hU9m5Hj1D-153" value="" style="rounded=0;whiteSpace=wrap;html=1;fillColor=#000000;strokeColor=none;container=0;" vertex="1" parent="Equ55bX3IU3hU9m5Hj1D-145">
          <mxGeometry x="266" y="36.5" width="18" height="16" as="geometry" />
        </mxCell>
        <mxCell id="Equ55bX3IU3hU9m5Hj1D-154" value="" style="rounded=0;whiteSpace=wrap;html=1;fillColor=#000000;strokeColor=none;container=0;" vertex="1" parent="Equ55bX3IU3hU9m5Hj1D-145">
          <mxGeometry x="288" y="36.5" width="18" height="16" as="geometry" />
        </mxCell>
        <mxCell id="Equ55bX3IU3hU9m5Hj1D-155" value="" style="rounded=0;whiteSpace=wrap;html=1;fillColor=#000000;strokeColor=none;container=0;" vertex="1" parent="Equ55bX3IU3hU9m5Hj1D-145">
          <mxGeometry x="310" y="36.5" width="18" height="16" as="geometry" />
        </mxCell>
        <mxCell id="Equ55bX3IU3hU9m5Hj1D-156" value="" style="rounded=0;whiteSpace=wrap;html=1;fillColor=#000000;strokeColor=none;container=0;" vertex="1" parent="Equ55bX3IU3hU9m5Hj1D-145">
          <mxGeometry x="332" y="36.5" width="18" height="16" as="geometry" />
        </mxCell>
        <mxCell id="Equ55bX3IU3hU9m5Hj1D-157" value="" style="rounded=0;whiteSpace=wrap;html=1;fillColor=#000000;strokeColor=none;container=0;" vertex="1" parent="Equ55bX3IU3hU9m5Hj1D-145">
          <mxGeometry x="354" y="36.5" width="18" height="16" as="geometry" />
        </mxCell>
        <mxCell id="Equ55bX3IU3hU9m5Hj1D-158" value="" style="rounded=0;whiteSpace=wrap;html=1;fillColor=#000000;strokeColor=none;container=0;" vertex="1" parent="Equ55bX3IU3hU9m5Hj1D-145">
          <mxGeometry x="104" y="36.5" width="18" height="16" as="geometry" />
        </mxCell>
        <mxCell id="Equ55bX3IU3hU9m5Hj1D-159" value="" style="rounded=0;whiteSpace=wrap;html=1;fillColor=#000000;strokeColor=none;container=0;" vertex="1" parent="Equ55bX3IU3hU9m5Hj1D-145">
          <mxGeometry x="126" y="36.5" width="18" height="16" as="geometry" />
        </mxCell>
        <mxCell id="Equ55bX3IU3hU9m5Hj1D-160" value="" style="rounded=0;whiteSpace=wrap;html=1;fillColor=#000000;strokeColor=none;container=0;" vertex="1" parent="Equ55bX3IU3hU9m5Hj1D-145">
          <mxGeometry x="148" y="36.5" width="18" height="16" as="geometry" />
        </mxCell>
        <mxCell id="Equ55bX3IU3hU9m5Hj1D-161" value="" style="rounded=0;whiteSpace=wrap;html=1;fillColor=#000000;strokeColor=none;container=0;" vertex="1" parent="Equ55bX3IU3hU9m5Hj1D-145">
          <mxGeometry x="170" y="36.5" width="18" height="16" as="geometry" />
        </mxCell>
        <mxCell id="Equ55bX3IU3hU9m5Hj1D-162" value="" style="rounded=0;whiteSpace=wrap;html=1;fillColor=#000000;strokeColor=none;container=0;" vertex="1" parent="Equ55bX3IU3hU9m5Hj1D-145">
          <mxGeometry x="192" y="36.5" width="18" height="16" as="geometry" />
        </mxCell>
        <mxCell id="Equ55bX3IU3hU9m5Hj1D-163" value="" style="rounded=0;whiteSpace=wrap;html=1;fillColor=#000000;strokeColor=none;container=0;" vertex="1" parent="Equ55bX3IU3hU9m5Hj1D-145">
          <mxGeometry x="214" y="36.5" width="18" height="16" as="geometry" />
        </mxCell>
        <mxCell id="Equ55bX3IU3hU9m5Hj1D-164" value="" style="group" connectable="0" vertex="1" parent="Equ55bX3IU3hU9m5Hj1D-145">
          <mxGeometry x="674" y="39.5" width="61.460000000000036" height="16" as="geometry" />
        </mxCell>
        <mxCell id="Equ55bX3IU3hU9m5Hj1D-165" value="" style="rounded=0;whiteSpace=wrap;html=1;fillColor=#000000;strokeColor=none;container=0;" vertex="1" parent="Equ55bX3IU3hU9m5Hj1D-164">
          <mxGeometry x="35.460000000000036" width="26" height="16" as="geometry" />
        </mxCell>
        <mxCell id="Equ55bX3IU3hU9m5Hj1D-166" value="" style="rounded=0;whiteSpace=wrap;html=1;fillColor=#000000;strokeColor=none;container=0;" vertex="1" parent="Equ55bX3IU3hU9m5Hj1D-164">
          <mxGeometry width="26" height="16" as="geometry" />
        </mxCell>
        <mxCell id="Equ55bX3IU3hU9m5Hj1D-167" value="" style="rounded=0;whiteSpace=wrap;html=1;fillColor=#000000;strokeColor=none;container=0;" vertex="1" parent="Equ55bX3IU3hU9m5Hj1D-145">
          <mxGeometry x="527" y="36.5" width="18" height="16" as="geometry" />
        </mxCell>
        <mxCell id="Equ55bX3IU3hU9m5Hj1D-168" value="" style="rounded=0;whiteSpace=wrap;html=1;fillColor=#000000;strokeColor=none;container=0;" vertex="1" parent="Equ55bX3IU3hU9m5Hj1D-145">
          <mxGeometry x="549" y="36.5" width="18" height="16" as="geometry" />
        </mxCell>
        <mxCell id="Equ55bX3IU3hU9m5Hj1D-169" value="" style="rounded=0;whiteSpace=wrap;html=1;fillColor=#000000;strokeColor=none;container=0;" vertex="1" parent="Equ55bX3IU3hU9m5Hj1D-145">
          <mxGeometry x="571" y="36.5" width="18" height="16" as="geometry" />
        </mxCell>
        <mxCell id="Equ55bX3IU3hU9m5Hj1D-170" value="" style="rounded=0;whiteSpace=wrap;html=1;fillColor=#000000;strokeColor=none;container=0;" vertex="1" parent="Equ55bX3IU3hU9m5Hj1D-145">
          <mxGeometry x="593" y="36.5" width="18" height="16" as="geometry" />
        </mxCell>
        <mxCell id="Equ55bX3IU3hU9m5Hj1D-171" value="" style="rounded=0;whiteSpace=wrap;html=1;fillColor=#000000;strokeColor=none;container=0;" vertex="1" parent="Equ55bX3IU3hU9m5Hj1D-145">
          <mxGeometry x="615" y="36.5" width="18" height="16" as="geometry" />
        </mxCell>
        <mxCell id="Equ55bX3IU3hU9m5Hj1D-172" value="" style="rounded=0;whiteSpace=wrap;html=1;fillColor=#000000;strokeColor=none;container=0;" vertex="1" parent="Equ55bX3IU3hU9m5Hj1D-145">
          <mxGeometry x="637" y="36.5" width="18" height="16" as="geometry" />
        </mxCell>
        <mxCell id="Equ55bX3IU3hU9m5Hj1D-173" value="" style="rounded=0;whiteSpace=wrap;html=1;fillColor=#000000;strokeColor=none;container=0;" vertex="1" parent="Equ55bX3IU3hU9m5Hj1D-145">
          <mxGeometry x="387" y="36.5" width="18" height="16" as="geometry" />
        </mxCell>
        <mxCell id="Equ55bX3IU3hU9m5Hj1D-174" value="" style="rounded=0;whiteSpace=wrap;html=1;fillColor=#000000;strokeColor=none;container=0;" vertex="1" parent="Equ55bX3IU3hU9m5Hj1D-145">
          <mxGeometry x="409" y="36.5" width="18" height="16" as="geometry" />
        </mxCell>
        <mxCell id="Equ55bX3IU3hU9m5Hj1D-175" value="" style="rounded=0;whiteSpace=wrap;html=1;fillColor=#000000;strokeColor=none;container=0;" vertex="1" parent="Equ55bX3IU3hU9m5Hj1D-145">
          <mxGeometry x="431" y="36.5" width="18" height="16" as="geometry" />
        </mxCell>
        <mxCell id="Equ55bX3IU3hU9m5Hj1D-176" value="" style="rounded=0;whiteSpace=wrap;html=1;fillColor=#000000;strokeColor=none;container=0;" vertex="1" parent="Equ55bX3IU3hU9m5Hj1D-145">
          <mxGeometry x="453" y="36.5" width="18" height="16" as="geometry" />
        </mxCell>
        <mxCell id="Equ55bX3IU3hU9m5Hj1D-177" value="" style="rounded=0;whiteSpace=wrap;html=1;fillColor=#000000;strokeColor=none;container=0;" vertex="1" parent="Equ55bX3IU3hU9m5Hj1D-145">
          <mxGeometry x="475" y="36.5" width="18" height="16" as="geometry" />
        </mxCell>
        <mxCell id="Equ55bX3IU3hU9m5Hj1D-178" value="" style="rounded=0;whiteSpace=wrap;html=1;fillColor=#000000;strokeColor=none;container=0;" vertex="1" parent="Equ55bX3IU3hU9m5Hj1D-145">
          <mxGeometry x="497" y="36.5" width="18" height="16" as="geometry" />
        </mxCell>
        <mxCell id="Equ55bX3IU3hU9m5Hj1D-179" value="" style="group" connectable="0" vertex="1" parent="1">
          <mxGeometry x="240" y="590" width="795.46" height="70" as="geometry" />
        </mxCell>
        <mxCell id="Equ55bX3IU3hU9m5Hj1D-180" value="" style="group" connectable="0" vertex="1" parent="Equ55bX3IU3hU9m5Hj1D-179">
          <mxGeometry width="795.46" height="70" as="geometry" />
        </mxCell>
        <mxCell id="Equ55bX3IU3hU9m5Hj1D-181" value="" style="rounded=0;whiteSpace=wrap;html=1;fillColor=#CFCFCF;strokeColor=#000000;shadow=1;aspect=fixed;strokeWidth=2;movable=1;resizable=1;rotatable=1;deletable=1;editable=1;locked=0;connectable=1;container=0;" vertex="1" parent="Equ55bX3IU3hU9m5Hj1D-180">
          <mxGeometry width="795.46" height="70" as="geometry" />
        </mxCell>
        <mxCell id="Equ55bX3IU3hU9m5Hj1D-182" value="" style="rounded=0;whiteSpace=wrap;html=1;fillColor=none;strokeColor=#000000;strokeWidth=2;container=0;" vertex="1" parent="Equ55bX3IU3hU9m5Hj1D-180">
          <mxGeometry x="30.190000000000055" width="736" height="70" as="geometry" />
        </mxCell>
        <mxCell id="Equ55bX3IU3hU9m5Hj1D-183" value="" style="group" connectable="0" vertex="1" parent="Equ55bX3IU3hU9m5Hj1D-179">
          <mxGeometry x="709" y="14.5" width="26" height="41" as="geometry" />
        </mxCell>
        <mxCell id="Equ55bX3IU3hU9m5Hj1D-184" value="" style="rounded=0;whiteSpace=wrap;html=1;fillColor=#000000;strokeColor=none;container=0;" vertex="1" parent="Equ55bX3IU3hU9m5Hj1D-183">
          <mxGeometry width="26" height="16" as="geometry" />
        </mxCell>
        <mxCell id="Equ55bX3IU3hU9m5Hj1D-185" value="" style="rounded=0;whiteSpace=wrap;html=1;fillColor=#000000;strokeColor=none;container=0;" vertex="1" parent="Equ55bX3IU3hU9m5Hj1D-183">
          <mxGeometry y="25" width="26" height="16" as="geometry" />
        </mxCell>
        <mxCell id="Equ55bX3IU3hU9m5Hj1D-186" value="" style="group" connectable="0" vertex="1" parent="Equ55bX3IU3hU9m5Hj1D-179">
          <mxGeometry x="674" y="14.5" width="26" height="41" as="geometry" />
        </mxCell>
        <mxCell id="Equ55bX3IU3hU9m5Hj1D-187" value="" style="rounded=0;whiteSpace=wrap;html=1;fillColor=#000000;strokeColor=none;container=0;" vertex="1" parent="Equ55bX3IU3hU9m5Hj1D-186">
          <mxGeometry width="26" height="16" as="geometry" />
        </mxCell>
        <mxCell id="Equ55bX3IU3hU9m5Hj1D-188" value="" style="rounded=0;whiteSpace=wrap;html=1;fillColor=#000000;strokeColor=none;container=0;" vertex="1" parent="Equ55bX3IU3hU9m5Hj1D-186">
          <mxGeometry y="25" width="26" height="16" as="geometry" />
        </mxCell>
        <mxCell id="Equ55bX3IU3hU9m5Hj1D-189" value="" style="group" connectable="0" vertex="1" parent="Equ55bX3IU3hU9m5Hj1D-179">
          <mxGeometry x="42.460000000000036" y="15" width="42" height="40" as="geometry" />
        </mxCell>
        <mxCell id="Equ55bX3IU3hU9m5Hj1D-190" value="" style="rounded=1;whiteSpace=wrap;html=1;fillColor=default;strokeColor=none;container=0;" vertex="1" parent="Equ55bX3IU3hU9m5Hj1D-189">
          <mxGeometry width="42" height="40" as="geometry" />
        </mxCell>
        <mxCell id="Equ55bX3IU3hU9m5Hj1D-191" value="" style="fontColor=#000000;verticalAlign=middle;verticalLabelPosition=middle;labelPosition=right;align=left;html=1;outlineConnect=0;fillColor=#d6d6d6;strokeColor=#999;gradientColor=none;gradientDirection=north;strokeWidth=2;shape=stencil(ZZExb8MgEIV/DWOQc6hJPaZpM3Xokrk6Y2JT2eCCXdqlv71HLlGCKoHgfe+E7h1C7WOPkxFQYZyMnoV6FgBfGCw2A2Egp2e4hoq1w9EwOjb2c7GzJfjqO892KsrVi6h2It8rofYnH0wX/OLawrjadsQu9xKD5kf6eZ6iUFR3oJVSklGji34J2kjtR4K/tEfTWqTzLfiPHAIOt7JCJNOQzr1GOp8CunZ1VcslzPtAQE6u4zjf3Mnq4VHWNaOfC9qAhHURGtRW1ptibPcoxygHQuTfTM6Uv+UM/gA=);labelBackgroundColor=none;shadow=0;glass=0;sketch=1;aspect=fixed;container=0;" vertex="1" parent="Equ55bX3IU3hU9m5Hj1D-189">
          <mxGeometry x="9" y="8" width="24" height="24" as="geometry" />
        </mxCell>
        <mxCell id="Equ55bX3IU3hU9m5Hj1D-192" value="" style="group" connectable="0" vertex="1" parent="Equ55bX3IU3hU9m5Hj1D-179">
          <mxGeometry x="268" y="14.5" width="390" height="41" as="geometry" />
        </mxCell>
        <mxCell id="Equ55bX3IU3hU9m5Hj1D-193" value="" style="rounded=0;whiteSpace=wrap;html=1;fillColor=#000000;strokeColor=none;container=0;" vertex="1" parent="Equ55bX3IU3hU9m5Hj1D-192">
          <mxGeometry x="364" width="26" height="16" as="geometry" />
        </mxCell>
        <mxCell id="Equ55bX3IU3hU9m5Hj1D-194" value="" style="rounded=0;whiteSpace=wrap;html=1;fillColor=#000000;strokeColor=none;container=0;" vertex="1" parent="Equ55bX3IU3hU9m5Hj1D-192">
          <mxGeometry x="364" y="25" width="26" height="16" as="geometry" />
        </mxCell>
        <mxCell id="Equ55bX3IU3hU9m5Hj1D-195" value="" style="rounded=0;whiteSpace=wrap;html=1;fillColor=#000000;strokeColor=none;container=0;" vertex="1" parent="Equ55bX3IU3hU9m5Hj1D-192">
          <mxGeometry x="336" width="26" height="16" as="geometry" />
        </mxCell>
        <mxCell id="Equ55bX3IU3hU9m5Hj1D-196" value="" style="rounded=0;whiteSpace=wrap;html=1;fillColor=#000000;strokeColor=none;container=0;" vertex="1" parent="Equ55bX3IU3hU9m5Hj1D-192">
          <mxGeometry x="336" y="25" width="26" height="16" as="geometry" />
        </mxCell>
        <mxCell id="Equ55bX3IU3hU9m5Hj1D-197" value="" style="rounded=0;whiteSpace=wrap;html=1;fillColor=#000000;strokeColor=none;container=0;" vertex="1" parent="Equ55bX3IU3hU9m5Hj1D-192">
          <mxGeometry x="308" width="26" height="16" as="geometry" />
        </mxCell>
        <mxCell id="Equ55bX3IU3hU9m5Hj1D-198" value="" style="rounded=0;whiteSpace=wrap;html=1;fillColor=#000000;strokeColor=none;container=0;" vertex="1" parent="Equ55bX3IU3hU9m5Hj1D-192">
          <mxGeometry x="308" y="25" width="26" height="16" as="geometry" />
        </mxCell>
        <mxCell id="Equ55bX3IU3hU9m5Hj1D-199" value="" style="rounded=0;whiteSpace=wrap;html=1;fillColor=#000000;strokeColor=none;container=0;" vertex="1" parent="Equ55bX3IU3hU9m5Hj1D-192">
          <mxGeometry x="280" width="26" height="16" as="geometry" />
        </mxCell>
        <mxCell id="Equ55bX3IU3hU9m5Hj1D-200" value="" style="rounded=0;whiteSpace=wrap;html=1;fillColor=#000000;strokeColor=none;container=0;" vertex="1" parent="Equ55bX3IU3hU9m5Hj1D-192">
          <mxGeometry x="280" y="25" width="26" height="16" as="geometry" />
        </mxCell>
        <mxCell id="Equ55bX3IU3hU9m5Hj1D-201" value="" style="rounded=0;whiteSpace=wrap;html=1;fillColor=#000000;strokeColor=none;container=0;" vertex="1" parent="Equ55bX3IU3hU9m5Hj1D-192">
          <mxGeometry x="252" width="26" height="16" as="geometry" />
        </mxCell>
        <mxCell id="Equ55bX3IU3hU9m5Hj1D-202" value="" style="rounded=0;whiteSpace=wrap;html=1;fillColor=#000000;strokeColor=none;container=0;" vertex="1" parent="Equ55bX3IU3hU9m5Hj1D-192">
          <mxGeometry x="252" y="25" width="26" height="16" as="geometry" />
        </mxCell>
        <mxCell id="Equ55bX3IU3hU9m5Hj1D-203" value="" style="rounded=0;whiteSpace=wrap;html=1;fillColor=#000000;strokeColor=none;container=0;" vertex="1" parent="Equ55bX3IU3hU9m5Hj1D-192">
          <mxGeometry x="224" width="26" height="16" as="geometry" />
        </mxCell>
        <mxCell id="Equ55bX3IU3hU9m5Hj1D-204" value="" style="rounded=0;whiteSpace=wrap;html=1;fillColor=#000000;strokeColor=none;container=0;" vertex="1" parent="Equ55bX3IU3hU9m5Hj1D-192">
          <mxGeometry x="224" y="25" width="26" height="16" as="geometry" />
        </mxCell>
        <mxCell id="Equ55bX3IU3hU9m5Hj1D-205" value="" style="rounded=0;whiteSpace=wrap;html=1;fillColor=#000000;strokeColor=none;container=0;" vertex="1" parent="Equ55bX3IU3hU9m5Hj1D-192">
          <mxGeometry x="196" width="26" height="16" as="geometry" />
        </mxCell>
        <mxCell id="Equ55bX3IU3hU9m5Hj1D-206" value="" style="rounded=0;whiteSpace=wrap;html=1;fillColor=#000000;strokeColor=none;container=0;" vertex="1" parent="Equ55bX3IU3hU9m5Hj1D-192">
          <mxGeometry x="196" y="25" width="26" height="16" as="geometry" />
        </mxCell>
        <mxCell id="Equ55bX3IU3hU9m5Hj1D-207" value="" style="rounded=0;whiteSpace=wrap;html=1;fillColor=#000000;strokeColor=none;container=0;" vertex="1" parent="Equ55bX3IU3hU9m5Hj1D-192">
          <mxGeometry x="168" width="26" height="16" as="geometry" />
        </mxCell>
        <mxCell id="Equ55bX3IU3hU9m5Hj1D-208" value="" style="rounded=0;whiteSpace=wrap;html=1;fillColor=#000000;strokeColor=none;container=0;" vertex="1" parent="Equ55bX3IU3hU9m5Hj1D-192">
          <mxGeometry x="168" y="25" width="26" height="16" as="geometry" />
        </mxCell>
        <mxCell id="Equ55bX3IU3hU9m5Hj1D-209" value="" style="rounded=0;whiteSpace=wrap;html=1;fillColor=#000000;strokeColor=none;container=0;" vertex="1" parent="Equ55bX3IU3hU9m5Hj1D-192">
          <mxGeometry x="140" width="26" height="16" as="geometry" />
        </mxCell>
        <mxCell id="Equ55bX3IU3hU9m5Hj1D-210" value="" style="rounded=0;whiteSpace=wrap;html=1;fillColor=#000000;strokeColor=none;container=0;" vertex="1" parent="Equ55bX3IU3hU9m5Hj1D-192">
          <mxGeometry x="140" y="25" width="26" height="16" as="geometry" />
        </mxCell>
        <mxCell id="Equ55bX3IU3hU9m5Hj1D-211" value="" style="rounded=0;whiteSpace=wrap;html=1;fillColor=#000000;strokeColor=none;container=0;" vertex="1" parent="Equ55bX3IU3hU9m5Hj1D-192">
          <mxGeometry x="112" width="26" height="16" as="geometry" />
        </mxCell>
        <mxCell id="Equ55bX3IU3hU9m5Hj1D-212" value="" style="rounded=0;whiteSpace=wrap;html=1;fillColor=#000000;strokeColor=none;container=0;" vertex="1" parent="Equ55bX3IU3hU9m5Hj1D-192">
          <mxGeometry x="112" y="25" width="26" height="16" as="geometry" />
        </mxCell>
        <mxCell id="Equ55bX3IU3hU9m5Hj1D-213" value="" style="rounded=0;whiteSpace=wrap;html=1;fillColor=#000000;strokeColor=none;container=0;" vertex="1" parent="Equ55bX3IU3hU9m5Hj1D-192">
          <mxGeometry x="84" width="26" height="16" as="geometry" />
        </mxCell>
        <mxCell id="Equ55bX3IU3hU9m5Hj1D-214" value="" style="rounded=0;whiteSpace=wrap;html=1;fillColor=#000000;strokeColor=none;container=0;" vertex="1" parent="Equ55bX3IU3hU9m5Hj1D-192">
          <mxGeometry x="84" y="25" width="26" height="16" as="geometry" />
        </mxCell>
        <mxCell id="Equ55bX3IU3hU9m5Hj1D-215" value="" style="rounded=0;whiteSpace=wrap;html=1;fillColor=#000000;strokeColor=none;container=0;" vertex="1" parent="Equ55bX3IU3hU9m5Hj1D-192">
          <mxGeometry x="56" width="26" height="16" as="geometry" />
        </mxCell>
        <mxCell id="Equ55bX3IU3hU9m5Hj1D-216" value="" style="rounded=0;whiteSpace=wrap;html=1;fillColor=#000000;strokeColor=none;container=0;" vertex="1" parent="Equ55bX3IU3hU9m5Hj1D-192">
          <mxGeometry x="56" y="25" width="26" height="16" as="geometry" />
        </mxCell>
        <mxCell id="Equ55bX3IU3hU9m5Hj1D-217" value="" style="rounded=0;whiteSpace=wrap;html=1;fillColor=#000000;strokeColor=none;container=0;" vertex="1" parent="Equ55bX3IU3hU9m5Hj1D-192">
          <mxGeometry x="28" width="26" height="16" as="geometry" />
        </mxCell>
        <mxCell id="Equ55bX3IU3hU9m5Hj1D-218" value="" style="rounded=0;whiteSpace=wrap;html=1;fillColor=#000000;strokeColor=none;container=0;" vertex="1" parent="Equ55bX3IU3hU9m5Hj1D-192">
          <mxGeometry x="28" y="25" width="26" height="16" as="geometry" />
        </mxCell>
        <mxCell id="Equ55bX3IU3hU9m5Hj1D-219" value="" style="rounded=0;whiteSpace=wrap;html=1;fillColor=#000000;strokeColor=none;container=0;" vertex="1" parent="Equ55bX3IU3hU9m5Hj1D-192">
          <mxGeometry width="26" height="16" as="geometry" />
        </mxCell>
        <mxCell id="Equ55bX3IU3hU9m5Hj1D-220" value="" style="rounded=0;whiteSpace=wrap;html=1;fillColor=#000000;strokeColor=none;container=0;" vertex="1" parent="Equ55bX3IU3hU9m5Hj1D-192">
          <mxGeometry y="25" width="26" height="16" as="geometry" />
        </mxCell>
        <mxCell id="Equ55bX3IU3hU9m5Hj1D-221" value="&lt;font style=&quot;font-size: 25px;&quot;&gt;REA-V-AGG-02&lt;/font&gt;" style="text;html=1;align=center;verticalAlign=middle;resizable=0;points=[];autosize=1;strokeColor=none;fillColor=none;" vertex="1" parent="1">
          <mxGeometry x="240" y="550" width="200" height="40" as="geometry" />
        </mxCell>
        <mxCell id="Equ55bX3IU3hU9m5Hj1D-222" value="&lt;font style=&quot;font-size: 25px;&quot;&gt;REA-V-SW-ENT-24-POE (APS)&lt;/font&gt;" style="text;html=1;align=center;verticalAlign=middle;resizable=0;points=[];autosize=1;strokeColor=none;fillColor=none;" vertex="1" parent="1">
          <mxGeometry x="240.00000000000006" y="690" width="370" height="40" as="geometry" />
        </mxCell>
        <mxCell id="Equ55bX3IU3hU9m5Hj1D-223" value="&lt;font style=&quot;font-size: 25px;&quot;&gt;REA-V-SW-PRO-48&lt;/font&gt;" style="text;html=1;align=center;verticalAlign=middle;resizable=0;points=[];autosize=1;strokeColor=none;fillColor=none;" vertex="1" parent="1">
          <mxGeometry x="240" y="840" width="250" height="40" as="geometry" />
        </mxCell>
        <mxCell id="Equ55bX3IU3hU9m5Hj1D-224" value="&lt;font style=&quot;font-size: 25px;&quot;&gt;REA-V-NVR&lt;/font&gt;" style="text;html=1;align=center;verticalAlign=middle;resizable=0;points=[];autosize=1;strokeColor=none;fillColor=none;" vertex="1" parent="1">
          <mxGeometry x="240" y="990" width="160" height="40" as="geometry" />
        </mxCell>
        <mxCell id="Equ55bX3IU3hU9m5Hj1D-225" value="" style="shape=mxgraph.rack.hp.hp_proliant_dl360p_g8;html=1;labelPosition=right;align=left;spacingLeft=15;dashed=0;shadow=0;fillColor=#ffffff;" vertex="1" parent="1">
          <mxGeometry x="240" y="1240" width="800" height="60" as="geometry" />
        </mxCell>
        <mxCell id="Equ55bX3IU3hU9m5Hj1D-226" value="&lt;font style=&quot;font-size: 25px;&quot;&gt;Gondolin&lt;/font&gt;" style="text;html=1;align=center;verticalAlign=middle;resizable=0;points=[];autosize=1;strokeColor=none;fillColor=none;" vertex="1" parent="1">
          <mxGeometry x="920" y="1200" width="120" height="40" as="geometry" />
        </mxCell>
        <mxCell id="Equ55bX3IU3hU9m5Hj1D-227" value="" style="group" connectable="0" vertex="1" parent="1">
          <mxGeometry x="1580" y="460" width="795.46" height="70" as="geometry" />
        </mxCell>
        <mxCell id="Equ55bX3IU3hU9m5Hj1D-228" value="" style="group" connectable="0" vertex="1" parent="Equ55bX3IU3hU9m5Hj1D-227">
          <mxGeometry width="795.46" height="70" as="geometry" />
        </mxCell>
        <mxCell id="Equ55bX3IU3hU9m5Hj1D-229" value="" style="rounded=0;whiteSpace=wrap;html=1;fillColor=#CFCFCF;strokeColor=#000000;shadow=1;aspect=fixed;strokeWidth=2;movable=1;resizable=1;rotatable=1;deletable=1;editable=1;locked=0;connectable=1;container=0;" vertex="1" parent="Equ55bX3IU3hU9m5Hj1D-228">
          <mxGeometry width="795.46" height="70" as="geometry" />
        </mxCell>
        <mxCell id="Equ55bX3IU3hU9m5Hj1D-230" value="" style="rounded=0;whiteSpace=wrap;html=1;fillColor=none;strokeColor=#000000;strokeWidth=2;container=0;" vertex="1" parent="Equ55bX3IU3hU9m5Hj1D-228">
          <mxGeometry x="30.190000000000055" width="736" height="70" as="geometry" />
        </mxCell>
        <mxCell id="Equ55bX3IU3hU9m5Hj1D-231" value="" style="group" connectable="0" vertex="1" parent="Equ55bX3IU3hU9m5Hj1D-227">
          <mxGeometry x="42.460000000000036" y="15" width="42" height="40" as="geometry" />
        </mxCell>
        <mxCell id="Equ55bX3IU3hU9m5Hj1D-232" value="" style="rounded=1;whiteSpace=wrap;html=1;fillColor=default;strokeColor=none;container=0;" vertex="1" parent="Equ55bX3IU3hU9m5Hj1D-231">
          <mxGeometry width="42" height="40" as="geometry" />
        </mxCell>
        <mxCell id="Equ55bX3IU3hU9m5Hj1D-233" value="" style="fontColor=#000000;verticalAlign=middle;verticalLabelPosition=middle;labelPosition=right;align=left;html=1;outlineConnect=0;fillColor=#d6d6d6;strokeColor=#999;gradientColor=none;gradientDirection=north;strokeWidth=2;shape=stencil(ZZExb8MgEIV/DWOQc6hJPaZpM3Xokrk6Y2JT2eCCXdqlv71HLlGCKoHgfe+E7h1C7WOPkxFQYZyMnoV6FgBfGCw2A2Egp2e4hoq1w9EwOjb2c7GzJfjqO892KsrVi6h2It8rofYnH0wX/OLawrjadsQu9xKD5kf6eZ6iUFR3oJVSklGji34J2kjtR4K/tEfTWqTzLfiPHAIOt7JCJNOQzr1GOp8CunZ1VcslzPtAQE6u4zjf3Mnq4VHWNaOfC9qAhHURGtRW1ptibPcoxygHQuTfTM6Uv+UM/gA=);labelBackgroundColor=none;shadow=0;glass=0;sketch=1;aspect=fixed;container=0;" vertex="1" parent="Equ55bX3IU3hU9m5Hj1D-231">
          <mxGeometry x="9" y="8" width="24" height="24" as="geometry" />
        </mxCell>
        <mxCell id="Equ55bX3IU3hU9m5Hj1D-234" value="" style="rounded=0;whiteSpace=wrap;html=1;fillColor=#000000;strokeColor=none;container=0;" vertex="1" parent="Equ55bX3IU3hU9m5Hj1D-227">
          <mxGeometry x="244" y="36.5" width="18" height="16" as="geometry" />
        </mxCell>
        <mxCell id="Equ55bX3IU3hU9m5Hj1D-235" value="" style="rounded=0;whiteSpace=wrap;html=1;fillColor=#000000;strokeColor=none;container=0;" vertex="1" parent="Equ55bX3IU3hU9m5Hj1D-227">
          <mxGeometry x="266" y="36.5" width="18" height="16" as="geometry" />
        </mxCell>
        <mxCell id="Equ55bX3IU3hU9m5Hj1D-236" value="" style="rounded=0;whiteSpace=wrap;html=1;fillColor=#000000;strokeColor=none;container=0;" vertex="1" parent="Equ55bX3IU3hU9m5Hj1D-227">
          <mxGeometry x="288" y="36.5" width="18" height="16" as="geometry" />
        </mxCell>
        <mxCell id="Equ55bX3IU3hU9m5Hj1D-237" value="" style="rounded=0;whiteSpace=wrap;html=1;fillColor=#000000;strokeColor=none;container=0;" vertex="1" parent="Equ55bX3IU3hU9m5Hj1D-227">
          <mxGeometry x="310" y="36.5" width="18" height="16" as="geometry" />
        </mxCell>
        <mxCell id="Equ55bX3IU3hU9m5Hj1D-238" value="" style="rounded=0;whiteSpace=wrap;html=1;fillColor=#000000;strokeColor=none;container=0;" vertex="1" parent="Equ55bX3IU3hU9m5Hj1D-227">
          <mxGeometry x="332" y="36.5" width="18" height="16" as="geometry" />
        </mxCell>
        <mxCell id="Equ55bX3IU3hU9m5Hj1D-239" value="" style="rounded=0;whiteSpace=wrap;html=1;fillColor=#000000;strokeColor=none;container=0;" vertex="1" parent="Equ55bX3IU3hU9m5Hj1D-227">
          <mxGeometry x="354" y="36.5" width="18" height="16" as="geometry" />
        </mxCell>
        <mxCell id="Equ55bX3IU3hU9m5Hj1D-240" value="" style="rounded=0;whiteSpace=wrap;html=1;fillColor=#000000;strokeColor=none;container=0;" vertex="1" parent="Equ55bX3IU3hU9m5Hj1D-227">
          <mxGeometry x="104" y="36.5" width="18" height="16" as="geometry" />
        </mxCell>
        <mxCell id="Equ55bX3IU3hU9m5Hj1D-241" value="" style="rounded=0;whiteSpace=wrap;html=1;fillColor=#000000;strokeColor=none;container=0;" vertex="1" parent="Equ55bX3IU3hU9m5Hj1D-227">
          <mxGeometry x="126" y="36.5" width="18" height="16" as="geometry" />
        </mxCell>
        <mxCell id="Equ55bX3IU3hU9m5Hj1D-242" value="" style="rounded=0;whiteSpace=wrap;html=1;fillColor=#000000;strokeColor=none;container=0;" vertex="1" parent="Equ55bX3IU3hU9m5Hj1D-227">
          <mxGeometry x="148" y="36.5" width="18" height="16" as="geometry" />
        </mxCell>
        <mxCell id="Equ55bX3IU3hU9m5Hj1D-243" value="" style="rounded=0;whiteSpace=wrap;html=1;fillColor=#000000;strokeColor=none;container=0;" vertex="1" parent="Equ55bX3IU3hU9m5Hj1D-227">
          <mxGeometry x="170" y="36.5" width="18" height="16" as="geometry" />
        </mxCell>
        <mxCell id="Equ55bX3IU3hU9m5Hj1D-244" value="" style="rounded=0;whiteSpace=wrap;html=1;fillColor=#000000;strokeColor=none;container=0;" vertex="1" parent="Equ55bX3IU3hU9m5Hj1D-227">
          <mxGeometry x="192" y="36.5" width="18" height="16" as="geometry" />
        </mxCell>
        <mxCell id="Equ55bX3IU3hU9m5Hj1D-245" value="" style="rounded=0;whiteSpace=wrap;html=1;fillColor=#000000;strokeColor=none;container=0;" vertex="1" parent="Equ55bX3IU3hU9m5Hj1D-227">
          <mxGeometry x="214" y="36.5" width="18" height="16" as="geometry" />
        </mxCell>
        <mxCell id="Equ55bX3IU3hU9m5Hj1D-246" value="" style="group" connectable="0" vertex="1" parent="Equ55bX3IU3hU9m5Hj1D-227">
          <mxGeometry x="674" y="39.5" width="61.460000000000036" height="16" as="geometry" />
        </mxCell>
        <mxCell id="Equ55bX3IU3hU9m5Hj1D-247" value="" style="rounded=0;whiteSpace=wrap;html=1;fillColor=#000000;strokeColor=none;container=0;" vertex="1" parent="Equ55bX3IU3hU9m5Hj1D-246">
          <mxGeometry x="35.460000000000036" width="26" height="16" as="geometry" />
        </mxCell>
        <mxCell id="Equ55bX3IU3hU9m5Hj1D-248" value="" style="rounded=0;whiteSpace=wrap;html=1;fillColor=#000000;strokeColor=none;container=0;" vertex="1" parent="Equ55bX3IU3hU9m5Hj1D-246">
          <mxGeometry width="26" height="16" as="geometry" />
        </mxCell>
        <mxCell id="Equ55bX3IU3hU9m5Hj1D-249" value="" style="rounded=0;whiteSpace=wrap;html=1;fillColor=#000000;strokeColor=none;container=0;" vertex="1" parent="Equ55bX3IU3hU9m5Hj1D-227">
          <mxGeometry x="527" y="36.5" width="18" height="16" as="geometry" />
        </mxCell>
        <mxCell id="Equ55bX3IU3hU9m5Hj1D-250" value="" style="rounded=0;whiteSpace=wrap;html=1;fillColor=#000000;strokeColor=none;container=0;" vertex="1" parent="Equ55bX3IU3hU9m5Hj1D-227">
          <mxGeometry x="549" y="36.5" width="18" height="16" as="geometry" />
        </mxCell>
        <mxCell id="Equ55bX3IU3hU9m5Hj1D-251" value="" style="rounded=0;whiteSpace=wrap;html=1;fillColor=#000000;strokeColor=none;container=0;" vertex="1" parent="Equ55bX3IU3hU9m5Hj1D-227">
          <mxGeometry x="571" y="36.5" width="18" height="16" as="geometry" />
        </mxCell>
        <mxCell id="Equ55bX3IU3hU9m5Hj1D-252" value="" style="rounded=0;whiteSpace=wrap;html=1;fillColor=#000000;strokeColor=none;container=0;" vertex="1" parent="Equ55bX3IU3hU9m5Hj1D-227">
          <mxGeometry x="593" y="36.5" width="18" height="16" as="geometry" />
        </mxCell>
        <mxCell id="Equ55bX3IU3hU9m5Hj1D-253" value="" style="rounded=0;whiteSpace=wrap;html=1;fillColor=#000000;strokeColor=none;container=0;" vertex="1" parent="Equ55bX3IU3hU9m5Hj1D-227">
          <mxGeometry x="615" y="36.5" width="18" height="16" as="geometry" />
        </mxCell>
        <mxCell id="Equ55bX3IU3hU9m5Hj1D-254" value="" style="rounded=0;whiteSpace=wrap;html=1;fillColor=#000000;strokeColor=none;container=0;" vertex="1" parent="Equ55bX3IU3hU9m5Hj1D-227">
          <mxGeometry x="637" y="36.5" width="18" height="16" as="geometry" />
        </mxCell>
        <mxCell id="Equ55bX3IU3hU9m5Hj1D-255" value="" style="rounded=0;whiteSpace=wrap;html=1;fillColor=#000000;strokeColor=none;container=0;" vertex="1" parent="Equ55bX3IU3hU9m5Hj1D-227">
          <mxGeometry x="387" y="36.5" width="18" height="16" as="geometry" />
        </mxCell>
        <mxCell id="Equ55bX3IU3hU9m5Hj1D-256" value="" style="rounded=0;whiteSpace=wrap;html=1;fillColor=#000000;strokeColor=none;container=0;" vertex="1" parent="Equ55bX3IU3hU9m5Hj1D-227">
          <mxGeometry x="409" y="36.5" width="18" height="16" as="geometry" />
        </mxCell>
        <mxCell id="Equ55bX3IU3hU9m5Hj1D-257" value="" style="rounded=0;whiteSpace=wrap;html=1;fillColor=#000000;strokeColor=none;container=0;" vertex="1" parent="Equ55bX3IU3hU9m5Hj1D-227">
          <mxGeometry x="431" y="36.5" width="18" height="16" as="geometry" />
        </mxCell>
        <mxCell id="Equ55bX3IU3hU9m5Hj1D-258" value="" style="rounded=0;whiteSpace=wrap;html=1;fillColor=#000000;strokeColor=none;container=0;" vertex="1" parent="Equ55bX3IU3hU9m5Hj1D-227">
          <mxGeometry x="453" y="36.5" width="18" height="16" as="geometry" />
        </mxCell>
        <mxCell id="Equ55bX3IU3hU9m5Hj1D-259" value="" style="rounded=0;whiteSpace=wrap;html=1;fillColor=#000000;strokeColor=none;container=0;" vertex="1" parent="Equ55bX3IU3hU9m5Hj1D-227">
          <mxGeometry x="475" y="36.5" width="18" height="16" as="geometry" />
        </mxCell>
        <mxCell id="Equ55bX3IU3hU9m5Hj1D-260" value="" style="rounded=0;whiteSpace=wrap;html=1;fillColor=#000000;strokeColor=none;container=0;" vertex="1" parent="Equ55bX3IU3hU9m5Hj1D-227">
          <mxGeometry x="497" y="36.5" width="18" height="16" as="geometry" />
        </mxCell>
        <mxCell id="Equ55bX3IU3hU9m5Hj1D-261" value="&lt;font style=&quot;font-size: 25px;&quot;&gt;REA-V-SW-PRO-24-DIG&lt;/font&gt;" style="text;html=1;align=center;verticalAlign=middle;resizable=0;points=[];autosize=1;strokeColor=none;fillColor=none;" vertex="1" parent="1">
          <mxGeometry x="1580" y="420" width="300" height="40" as="geometry" />
        </mxCell>
        <mxCell id="Equ55bX3IU3hU9m5Hj1D-262" value="" style="group" connectable="0" vertex="1" parent="1">
          <mxGeometry x="1570" y="725" width="795.46" height="70" as="geometry" />
        </mxCell>
        <mxCell id="Equ55bX3IU3hU9m5Hj1D-263" value="" style="group" connectable="0" vertex="1" parent="Equ55bX3IU3hU9m5Hj1D-262">
          <mxGeometry width="795.46" height="70" as="geometry" />
        </mxCell>
        <mxCell id="Equ55bX3IU3hU9m5Hj1D-264" value="" style="rounded=0;whiteSpace=wrap;html=1;fillColor=#CFCFCF;strokeColor=#000000;shadow=1;aspect=fixed;strokeWidth=2;movable=1;resizable=1;rotatable=1;deletable=1;editable=1;locked=0;connectable=1;container=0;" vertex="1" parent="Equ55bX3IU3hU9m5Hj1D-263">
          <mxGeometry width="795.46" height="70" as="geometry" />
        </mxCell>
        <mxCell id="Equ55bX3IU3hU9m5Hj1D-265" value="" style="rounded=0;whiteSpace=wrap;html=1;fillColor=none;strokeColor=#000000;strokeWidth=2;container=0;" vertex="1" parent="Equ55bX3IU3hU9m5Hj1D-263">
          <mxGeometry x="30.190000000000055" width="736" height="70" as="geometry" />
        </mxCell>
        <mxCell id="Equ55bX3IU3hU9m5Hj1D-266" value="" style="group" connectable="0" vertex="1" parent="Equ55bX3IU3hU9m5Hj1D-262">
          <mxGeometry x="42.460000000000036" y="15" width="42" height="40" as="geometry" />
        </mxCell>
        <mxCell id="Equ55bX3IU3hU9m5Hj1D-267" value="" style="rounded=1;whiteSpace=wrap;html=1;fillColor=default;strokeColor=none;container=0;" vertex="1" parent="Equ55bX3IU3hU9m5Hj1D-266">
          <mxGeometry width="42" height="40" as="geometry" />
        </mxCell>
        <mxCell id="Equ55bX3IU3hU9m5Hj1D-268" value="" style="fontColor=#000000;verticalAlign=middle;verticalLabelPosition=middle;labelPosition=right;align=left;html=1;outlineConnect=0;fillColor=#d6d6d6;strokeColor=#999;gradientColor=none;gradientDirection=north;strokeWidth=2;shape=stencil(ZZExb8MgEIV/DWOQc6hJPaZpM3Xokrk6Y2JT2eCCXdqlv71HLlGCKoHgfe+E7h1C7WOPkxFQYZyMnoV6FgBfGCw2A2Egp2e4hoq1w9EwOjb2c7GzJfjqO892KsrVi6h2It8rofYnH0wX/OLawrjadsQu9xKD5kf6eZ6iUFR3oJVSklGji34J2kjtR4K/tEfTWqTzLfiPHAIOt7JCJNOQzr1GOp8CunZ1VcslzPtAQE6u4zjf3Mnq4VHWNaOfC9qAhHURGtRW1ptibPcoxygHQuTfTM6Uv+UM/gA=);labelBackgroundColor=none;shadow=0;glass=0;sketch=1;aspect=fixed;container=0;" vertex="1" parent="Equ55bX3IU3hU9m5Hj1D-266">
          <mxGeometry x="9" y="8" width="24" height="24" as="geometry" />
        </mxCell>
        <mxCell id="Equ55bX3IU3hU9m5Hj1D-269" value="" style="rounded=0;whiteSpace=wrap;html=1;fillColor=#000000;strokeColor=none;container=0;" vertex="1" parent="Equ55bX3IU3hU9m5Hj1D-262">
          <mxGeometry x="244" y="36.5" width="18" height="16" as="geometry" />
        </mxCell>
        <mxCell id="Equ55bX3IU3hU9m5Hj1D-270" value="" style="rounded=0;whiteSpace=wrap;html=1;fillColor=#000000;strokeColor=none;container=0;" vertex="1" parent="Equ55bX3IU3hU9m5Hj1D-262">
          <mxGeometry x="266" y="36.5" width="18" height="16" as="geometry" />
        </mxCell>
        <mxCell id="Equ55bX3IU3hU9m5Hj1D-271" value="" style="rounded=0;whiteSpace=wrap;html=1;fillColor=#000000;strokeColor=none;container=0;" vertex="1" parent="Equ55bX3IU3hU9m5Hj1D-262">
          <mxGeometry x="288" y="36.5" width="18" height="16" as="geometry" />
        </mxCell>
        <mxCell id="Equ55bX3IU3hU9m5Hj1D-272" value="" style="rounded=0;whiteSpace=wrap;html=1;fillColor=#000000;strokeColor=none;container=0;" vertex="1" parent="Equ55bX3IU3hU9m5Hj1D-262">
          <mxGeometry x="310" y="36.5" width="18" height="16" as="geometry" />
        </mxCell>
        <mxCell id="Equ55bX3IU3hU9m5Hj1D-273" value="" style="rounded=0;whiteSpace=wrap;html=1;fillColor=#000000;strokeColor=none;container=0;" vertex="1" parent="Equ55bX3IU3hU9m5Hj1D-262">
          <mxGeometry x="332" y="36.5" width="18" height="16" as="geometry" />
        </mxCell>
        <mxCell id="Equ55bX3IU3hU9m5Hj1D-274" value="" style="rounded=0;whiteSpace=wrap;html=1;fillColor=#000000;strokeColor=none;container=0;" vertex="1" parent="Equ55bX3IU3hU9m5Hj1D-262">
          <mxGeometry x="354" y="36.5" width="18" height="16" as="geometry" />
        </mxCell>
        <mxCell id="Equ55bX3IU3hU9m5Hj1D-275" value="" style="rounded=0;whiteSpace=wrap;html=1;fillColor=#000000;strokeColor=none;container=0;" vertex="1" parent="Equ55bX3IU3hU9m5Hj1D-262">
          <mxGeometry x="104" y="36.5" width="18" height="16" as="geometry" />
        </mxCell>
        <mxCell id="Equ55bX3IU3hU9m5Hj1D-276" value="" style="rounded=0;whiteSpace=wrap;html=1;fillColor=#000000;strokeColor=none;container=0;" vertex="1" parent="Equ55bX3IU3hU9m5Hj1D-262">
          <mxGeometry x="126" y="36.5" width="18" height="16" as="geometry" />
        </mxCell>
        <mxCell id="Equ55bX3IU3hU9m5Hj1D-277" value="" style="rounded=0;whiteSpace=wrap;html=1;fillColor=#000000;strokeColor=none;container=0;" vertex="1" parent="Equ55bX3IU3hU9m5Hj1D-262">
          <mxGeometry x="148" y="36.5" width="18" height="16" as="geometry" />
        </mxCell>
        <mxCell id="Equ55bX3IU3hU9m5Hj1D-278" value="" style="rounded=0;whiteSpace=wrap;html=1;fillColor=#000000;strokeColor=none;container=0;" vertex="1" parent="Equ55bX3IU3hU9m5Hj1D-262">
          <mxGeometry x="170" y="36.5" width="18" height="16" as="geometry" />
        </mxCell>
        <mxCell id="Equ55bX3IU3hU9m5Hj1D-279" value="" style="rounded=0;whiteSpace=wrap;html=1;fillColor=#000000;strokeColor=none;container=0;" vertex="1" parent="Equ55bX3IU3hU9m5Hj1D-262">
          <mxGeometry x="192" y="36.5" width="18" height="16" as="geometry" />
        </mxCell>
        <mxCell id="Equ55bX3IU3hU9m5Hj1D-280" value="" style="rounded=0;whiteSpace=wrap;html=1;fillColor=#000000;strokeColor=none;container=0;" vertex="1" parent="Equ55bX3IU3hU9m5Hj1D-262">
          <mxGeometry x="214" y="36.5" width="18" height="16" as="geometry" />
        </mxCell>
        <mxCell id="Equ55bX3IU3hU9m5Hj1D-281" value="" style="group" connectable="0" vertex="1" parent="Equ55bX3IU3hU9m5Hj1D-262">
          <mxGeometry x="674" y="39.5" width="61.460000000000036" height="16" as="geometry" />
        </mxCell>
        <mxCell id="Equ55bX3IU3hU9m5Hj1D-282" value="" style="rounded=0;whiteSpace=wrap;html=1;fillColor=#000000;strokeColor=none;container=0;" vertex="1" parent="Equ55bX3IU3hU9m5Hj1D-281">
          <mxGeometry x="35.460000000000036" width="26" height="16" as="geometry" />
        </mxCell>
        <mxCell id="Equ55bX3IU3hU9m5Hj1D-283" value="" style="rounded=0;whiteSpace=wrap;html=1;fillColor=#000000;strokeColor=none;container=0;" vertex="1" parent="Equ55bX3IU3hU9m5Hj1D-281">
          <mxGeometry width="26" height="16" as="geometry" />
        </mxCell>
        <mxCell id="Equ55bX3IU3hU9m5Hj1D-284" value="" style="rounded=0;whiteSpace=wrap;html=1;fillColor=#000000;strokeColor=none;container=0;" vertex="1" parent="Equ55bX3IU3hU9m5Hj1D-262">
          <mxGeometry x="527" y="36.5" width="18" height="16" as="geometry" />
        </mxCell>
        <mxCell id="Equ55bX3IU3hU9m5Hj1D-285" value="" style="rounded=0;whiteSpace=wrap;html=1;fillColor=#000000;strokeColor=none;container=0;" vertex="1" parent="Equ55bX3IU3hU9m5Hj1D-262">
          <mxGeometry x="549" y="36.5" width="18" height="16" as="geometry" />
        </mxCell>
        <mxCell id="Equ55bX3IU3hU9m5Hj1D-286" value="" style="rounded=0;whiteSpace=wrap;html=1;fillColor=#000000;strokeColor=none;container=0;" vertex="1" parent="Equ55bX3IU3hU9m5Hj1D-262">
          <mxGeometry x="571" y="36.5" width="18" height="16" as="geometry" />
        </mxCell>
        <mxCell id="Equ55bX3IU3hU9m5Hj1D-287" value="" style="rounded=0;whiteSpace=wrap;html=1;fillColor=#000000;strokeColor=none;container=0;" vertex="1" parent="Equ55bX3IU3hU9m5Hj1D-262">
          <mxGeometry x="593" y="36.5" width="18" height="16" as="geometry" />
        </mxCell>
        <mxCell id="Equ55bX3IU3hU9m5Hj1D-288" value="" style="rounded=0;whiteSpace=wrap;html=1;fillColor=#000000;strokeColor=none;container=0;" vertex="1" parent="Equ55bX3IU3hU9m5Hj1D-262">
          <mxGeometry x="615" y="36.5" width="18" height="16" as="geometry" />
        </mxCell>
        <mxCell id="Equ55bX3IU3hU9m5Hj1D-289" value="" style="rounded=0;whiteSpace=wrap;html=1;fillColor=#000000;strokeColor=none;container=0;" vertex="1" parent="Equ55bX3IU3hU9m5Hj1D-262">
          <mxGeometry x="637" y="36.5" width="18" height="16" as="geometry" />
        </mxCell>
        <mxCell id="Equ55bX3IU3hU9m5Hj1D-290" value="" style="rounded=0;whiteSpace=wrap;html=1;fillColor=#000000;strokeColor=none;container=0;" vertex="1" parent="Equ55bX3IU3hU9m5Hj1D-262">
          <mxGeometry x="387" y="36.5" width="18" height="16" as="geometry" />
        </mxCell>
        <mxCell id="Equ55bX3IU3hU9m5Hj1D-291" value="" style="rounded=0;whiteSpace=wrap;html=1;fillColor=#000000;strokeColor=none;container=0;" vertex="1" parent="Equ55bX3IU3hU9m5Hj1D-262">
          <mxGeometry x="409" y="36.5" width="18" height="16" as="geometry" />
        </mxCell>
        <mxCell id="Equ55bX3IU3hU9m5Hj1D-292" value="" style="rounded=0;whiteSpace=wrap;html=1;fillColor=#000000;strokeColor=none;container=0;" vertex="1" parent="Equ55bX3IU3hU9m5Hj1D-262">
          <mxGeometry x="431" y="36.5" width="18" height="16" as="geometry" />
        </mxCell>
        <mxCell id="Equ55bX3IU3hU9m5Hj1D-293" value="" style="rounded=0;whiteSpace=wrap;html=1;fillColor=#000000;strokeColor=none;container=0;" vertex="1" parent="Equ55bX3IU3hU9m5Hj1D-262">
          <mxGeometry x="453" y="36.5" width="18" height="16" as="geometry" />
        </mxCell>
        <mxCell id="Equ55bX3IU3hU9m5Hj1D-294" value="" style="rounded=0;whiteSpace=wrap;html=1;fillColor=#000000;strokeColor=none;container=0;" vertex="1" parent="Equ55bX3IU3hU9m5Hj1D-262">
          <mxGeometry x="475" y="36.5" width="18" height="16" as="geometry" />
        </mxCell>
        <mxCell id="Equ55bX3IU3hU9m5Hj1D-295" value="" style="rounded=0;whiteSpace=wrap;html=1;fillColor=#000000;strokeColor=none;container=0;" vertex="1" parent="Equ55bX3IU3hU9m5Hj1D-262">
          <mxGeometry x="497" y="36.5" width="18" height="16" as="geometry" />
        </mxCell>
        <mxCell id="Equ55bX3IU3hU9m5Hj1D-296" value="&lt;font style=&quot;font-size: 25px;&quot;&gt;REA-V-SW-24-POE-RME&lt;/font&gt;" style="text;html=1;align=center;verticalAlign=middle;resizable=0;points=[];autosize=1;strokeColor=none;fillColor=none;" vertex="1" parent="1">
          <mxGeometry x="1570" y="685" width="310" height="40" as="geometry" />
        </mxCell>
        <mxCell id="Equ55bX3IU3hU9m5Hj1D-297" value="" style="group" connectable="0" vertex="1" parent="1">
          <mxGeometry x="1584.54" y="1020" width="795.46" height="70" as="geometry" />
        </mxCell>
        <mxCell id="Equ55bX3IU3hU9m5Hj1D-298" value="" style="group" connectable="0" vertex="1" parent="Equ55bX3IU3hU9m5Hj1D-297">
          <mxGeometry width="795.46" height="70" as="geometry" />
        </mxCell>
        <mxCell id="Equ55bX3IU3hU9m5Hj1D-299" value="" style="rounded=0;whiteSpace=wrap;html=1;fillColor=#CFCFCF;strokeColor=#000000;shadow=1;aspect=fixed;strokeWidth=2;movable=1;resizable=1;rotatable=1;deletable=1;editable=1;locked=0;connectable=1;container=0;" vertex="1" parent="Equ55bX3IU3hU9m5Hj1D-298">
          <mxGeometry width="795.46" height="70" as="geometry" />
        </mxCell>
        <mxCell id="Equ55bX3IU3hU9m5Hj1D-300" value="" style="rounded=0;whiteSpace=wrap;html=1;fillColor=none;strokeColor=#000000;strokeWidth=2;container=0;" vertex="1" parent="Equ55bX3IU3hU9m5Hj1D-298">
          <mxGeometry x="30.190000000000055" width="736" height="70" as="geometry" />
        </mxCell>
        <mxCell id="Equ55bX3IU3hU9m5Hj1D-301" value="" style="group" connectable="0" vertex="1" parent="Equ55bX3IU3hU9m5Hj1D-297">
          <mxGeometry x="709.46" y="14.5" width="26" height="41" as="geometry" />
        </mxCell>
        <mxCell id="Equ55bX3IU3hU9m5Hj1D-302" value="" style="rounded=0;whiteSpace=wrap;html=1;fillColor=#000000;strokeColor=none;container=0;" vertex="1" parent="Equ55bX3IU3hU9m5Hj1D-301">
          <mxGeometry width="26" height="16" as="geometry" />
        </mxCell>
        <mxCell id="Equ55bX3IU3hU9m5Hj1D-303" value="" style="rounded=0;whiteSpace=wrap;html=1;fillColor=#000000;strokeColor=none;container=0;" vertex="1" parent="Equ55bX3IU3hU9m5Hj1D-301">
          <mxGeometry y="25" width="26" height="16" as="geometry" />
        </mxCell>
        <mxCell id="Equ55bX3IU3hU9m5Hj1D-304" value="" style="group" connectable="0" vertex="1" parent="Equ55bX3IU3hU9m5Hj1D-297">
          <mxGeometry x="674" y="14.5" width="26" height="41" as="geometry" />
        </mxCell>
        <mxCell id="Equ55bX3IU3hU9m5Hj1D-305" value="" style="rounded=0;whiteSpace=wrap;html=1;fillColor=#000000;strokeColor=none;container=0;" vertex="1" parent="Equ55bX3IU3hU9m5Hj1D-304">
          <mxGeometry width="26" height="16" as="geometry" />
        </mxCell>
        <mxCell id="Equ55bX3IU3hU9m5Hj1D-306" value="" style="rounded=0;whiteSpace=wrap;html=1;fillColor=#000000;strokeColor=none;container=0;" vertex="1" parent="Equ55bX3IU3hU9m5Hj1D-304">
          <mxGeometry y="25" width="26" height="16" as="geometry" />
        </mxCell>
        <mxCell id="Equ55bX3IU3hU9m5Hj1D-307" value="" style="group" connectable="0" vertex="1" parent="Equ55bX3IU3hU9m5Hj1D-297">
          <mxGeometry x="42.460000000000036" y="15" width="42" height="40" as="geometry" />
        </mxCell>
        <mxCell id="Equ55bX3IU3hU9m5Hj1D-308" value="" style="rounded=1;whiteSpace=wrap;html=1;fillColor=default;strokeColor=none;container=0;" vertex="1" parent="Equ55bX3IU3hU9m5Hj1D-307">
          <mxGeometry width="42" height="40" as="geometry" />
        </mxCell>
        <mxCell id="Equ55bX3IU3hU9m5Hj1D-309" value="" style="fontColor=#000000;verticalAlign=middle;verticalLabelPosition=middle;labelPosition=right;align=left;html=1;outlineConnect=0;fillColor=#d6d6d6;strokeColor=#999;gradientColor=none;gradientDirection=north;strokeWidth=2;shape=stencil(ZZExb8MgEIV/DWOQc6hJPaZpM3Xokrk6Y2JT2eCCXdqlv71HLlGCKoHgfe+E7h1C7WOPkxFQYZyMnoV6FgBfGCw2A2Egp2e4hoq1w9EwOjb2c7GzJfjqO892KsrVi6h2It8rofYnH0wX/OLawrjadsQu9xKD5kf6eZ6iUFR3oJVSklGji34J2kjtR4K/tEfTWqTzLfiPHAIOt7JCJNOQzr1GOp8CunZ1VcslzPtAQE6u4zjf3Mnq4VHWNaOfC9qAhHURGtRW1ptibPcoxygHQuTfTM6Uv+UM/gA=);labelBackgroundColor=none;shadow=0;glass=0;sketch=1;aspect=fixed;container=0;" vertex="1" parent="Equ55bX3IU3hU9m5Hj1D-307">
          <mxGeometry x="9" y="8" width="24" height="24" as="geometry" />
        </mxCell>
        <mxCell id="Equ55bX3IU3hU9m5Hj1D-310" value="" style="group" connectable="0" vertex="1" parent="Equ55bX3IU3hU9m5Hj1D-297">
          <mxGeometry x="104" y="17.5" width="172" height="35" as="geometry" />
        </mxCell>
        <mxCell id="Equ55bX3IU3hU9m5Hj1D-311" value="" style="rounded=0;whiteSpace=wrap;html=1;fillColor=#000000;strokeColor=none;" vertex="1" parent="Equ55bX3IU3hU9m5Hj1D-310">
          <mxGeometry x="110" width="18" height="16" as="geometry" />
        </mxCell>
        <mxCell id="Equ55bX3IU3hU9m5Hj1D-312" value="" style="rounded=0;whiteSpace=wrap;html=1;fillColor=#000000;strokeColor=none;" vertex="1" parent="Equ55bX3IU3hU9m5Hj1D-310">
          <mxGeometry x="88" width="18" height="16" as="geometry" />
        </mxCell>
        <mxCell id="Equ55bX3IU3hU9m5Hj1D-313" value="" style="rounded=0;whiteSpace=wrap;html=1;fillColor=#000000;strokeColor=none;" vertex="1" parent="Equ55bX3IU3hU9m5Hj1D-310">
          <mxGeometry x="66" width="18" height="16" as="geometry" />
        </mxCell>
        <mxCell id="Equ55bX3IU3hU9m5Hj1D-314" value="" style="rounded=0;whiteSpace=wrap;html=1;fillColor=#000000;strokeColor=none;" vertex="1" parent="Equ55bX3IU3hU9m5Hj1D-310">
          <mxGeometry x="44" width="18" height="16" as="geometry" />
        </mxCell>
        <mxCell id="Equ55bX3IU3hU9m5Hj1D-315" value="" style="rounded=0;whiteSpace=wrap;html=1;fillColor=#000000;strokeColor=none;" vertex="1" parent="Equ55bX3IU3hU9m5Hj1D-310">
          <mxGeometry x="22" width="18" height="16" as="geometry" />
        </mxCell>
        <mxCell id="Equ55bX3IU3hU9m5Hj1D-316" value="" style="rounded=0;whiteSpace=wrap;html=1;fillColor=#000000;strokeColor=none;" vertex="1" parent="Equ55bX3IU3hU9m5Hj1D-310">
          <mxGeometry width="18" height="16" as="geometry" />
        </mxCell>
        <mxCell id="Equ55bX3IU3hU9m5Hj1D-317" value="" style="rounded=0;whiteSpace=wrap;html=1;fillColor=#000000;strokeColor=none;" vertex="1" parent="Equ55bX3IU3hU9m5Hj1D-310">
          <mxGeometry y="19" width="18" height="16" as="geometry" />
        </mxCell>
        <mxCell id="Equ55bX3IU3hU9m5Hj1D-318" value="" style="rounded=0;whiteSpace=wrap;html=1;fillColor=#000000;strokeColor=none;" vertex="1" parent="Equ55bX3IU3hU9m5Hj1D-310">
          <mxGeometry x="22" y="19" width="18" height="16" as="geometry" />
        </mxCell>
        <mxCell id="Equ55bX3IU3hU9m5Hj1D-319" value="" style="rounded=0;whiteSpace=wrap;html=1;fillColor=#000000;strokeColor=none;" vertex="1" parent="Equ55bX3IU3hU9m5Hj1D-310">
          <mxGeometry x="44" y="19" width="18" height="16" as="geometry" />
        </mxCell>
        <mxCell id="Equ55bX3IU3hU9m5Hj1D-320" value="" style="rounded=0;whiteSpace=wrap;html=1;fillColor=#000000;strokeColor=none;" vertex="1" parent="Equ55bX3IU3hU9m5Hj1D-310">
          <mxGeometry x="66" y="19" width="18" height="16" as="geometry" />
        </mxCell>
        <mxCell id="Equ55bX3IU3hU9m5Hj1D-321" value="" style="rounded=0;whiteSpace=wrap;html=1;fillColor=#000000;strokeColor=none;" vertex="1" parent="Equ55bX3IU3hU9m5Hj1D-310">
          <mxGeometry x="88" y="19" width="18" height="16" as="geometry" />
        </mxCell>
        <mxCell id="Equ55bX3IU3hU9m5Hj1D-322" value="" style="rounded=0;whiteSpace=wrap;html=1;fillColor=#000000;strokeColor=none;" vertex="1" parent="Equ55bX3IU3hU9m5Hj1D-310">
          <mxGeometry x="110" y="19" width="18" height="16" as="geometry" />
        </mxCell>
        <mxCell id="Equ55bX3IU3hU9m5Hj1D-323" value="" style="rounded=0;whiteSpace=wrap;html=1;fillColor=#000000;strokeColor=none;" vertex="1" parent="Equ55bX3IU3hU9m5Hj1D-310">
          <mxGeometry x="132" width="18" height="16" as="geometry" />
        </mxCell>
        <mxCell id="Equ55bX3IU3hU9m5Hj1D-324" value="" style="rounded=0;whiteSpace=wrap;html=1;fillColor=#000000;strokeColor=none;" vertex="1" parent="Equ55bX3IU3hU9m5Hj1D-310">
          <mxGeometry x="132" y="19" width="18" height="16" as="geometry" />
        </mxCell>
        <mxCell id="Equ55bX3IU3hU9m5Hj1D-325" value="" style="rounded=0;whiteSpace=wrap;html=1;fillColor=#000000;strokeColor=none;" vertex="1" parent="Equ55bX3IU3hU9m5Hj1D-310">
          <mxGeometry x="154" width="18" height="16" as="geometry" />
        </mxCell>
        <mxCell id="Equ55bX3IU3hU9m5Hj1D-326" value="" style="rounded=0;whiteSpace=wrap;html=1;fillColor=#000000;strokeColor=none;" vertex="1" parent="Equ55bX3IU3hU9m5Hj1D-310">
          <mxGeometry x="154" y="19" width="18" height="16" as="geometry" />
        </mxCell>
        <mxCell id="Equ55bX3IU3hU9m5Hj1D-327" value="" style="group" connectable="0" vertex="1" parent="Equ55bX3IU3hU9m5Hj1D-297">
          <mxGeometry x="483" y="17.5" width="172" height="35" as="geometry" />
        </mxCell>
        <mxCell id="Equ55bX3IU3hU9m5Hj1D-328" value="" style="rounded=0;whiteSpace=wrap;html=1;fillColor=#000000;strokeColor=none;" vertex="1" parent="Equ55bX3IU3hU9m5Hj1D-327">
          <mxGeometry x="110" width="18" height="16" as="geometry" />
        </mxCell>
        <mxCell id="Equ55bX3IU3hU9m5Hj1D-329" value="" style="rounded=0;whiteSpace=wrap;html=1;fillColor=#000000;strokeColor=none;" vertex="1" parent="Equ55bX3IU3hU9m5Hj1D-327">
          <mxGeometry x="88" width="18" height="16" as="geometry" />
        </mxCell>
        <mxCell id="Equ55bX3IU3hU9m5Hj1D-330" value="" style="rounded=0;whiteSpace=wrap;html=1;fillColor=#000000;strokeColor=none;" vertex="1" parent="Equ55bX3IU3hU9m5Hj1D-327">
          <mxGeometry x="66" width="18" height="16" as="geometry" />
        </mxCell>
        <mxCell id="Equ55bX3IU3hU9m5Hj1D-331" value="" style="rounded=0;whiteSpace=wrap;html=1;fillColor=#000000;strokeColor=none;" vertex="1" parent="Equ55bX3IU3hU9m5Hj1D-327">
          <mxGeometry x="44" width="18" height="16" as="geometry" />
        </mxCell>
        <mxCell id="Equ55bX3IU3hU9m5Hj1D-332" value="" style="rounded=0;whiteSpace=wrap;html=1;fillColor=#000000;strokeColor=none;" vertex="1" parent="Equ55bX3IU3hU9m5Hj1D-327">
          <mxGeometry x="22" width="18" height="16" as="geometry" />
        </mxCell>
        <mxCell id="Equ55bX3IU3hU9m5Hj1D-333" value="" style="rounded=0;whiteSpace=wrap;html=1;fillColor=#000000;strokeColor=none;" vertex="1" parent="Equ55bX3IU3hU9m5Hj1D-327">
          <mxGeometry width="18" height="16" as="geometry" />
        </mxCell>
        <mxCell id="Equ55bX3IU3hU9m5Hj1D-334" value="" style="rounded=0;whiteSpace=wrap;html=1;fillColor=#000000;strokeColor=none;" vertex="1" parent="Equ55bX3IU3hU9m5Hj1D-327">
          <mxGeometry y="19" width="18" height="16" as="geometry" />
        </mxCell>
        <mxCell id="Equ55bX3IU3hU9m5Hj1D-335" value="" style="rounded=0;whiteSpace=wrap;html=1;fillColor=#000000;strokeColor=none;" vertex="1" parent="Equ55bX3IU3hU9m5Hj1D-327">
          <mxGeometry x="22" y="19" width="18" height="16" as="geometry" />
        </mxCell>
        <mxCell id="Equ55bX3IU3hU9m5Hj1D-336" value="" style="rounded=0;whiteSpace=wrap;html=1;fillColor=#000000;strokeColor=none;" vertex="1" parent="Equ55bX3IU3hU9m5Hj1D-327">
          <mxGeometry x="44" y="19" width="18" height="16" as="geometry" />
        </mxCell>
        <mxCell id="Equ55bX3IU3hU9m5Hj1D-337" value="" style="rounded=0;whiteSpace=wrap;html=1;fillColor=#000000;strokeColor=none;" vertex="1" parent="Equ55bX3IU3hU9m5Hj1D-327">
          <mxGeometry x="66" y="19" width="18" height="16" as="geometry" />
        </mxCell>
        <mxCell id="Equ55bX3IU3hU9m5Hj1D-338" value="" style="rounded=0;whiteSpace=wrap;html=1;fillColor=#000000;strokeColor=none;" vertex="1" parent="Equ55bX3IU3hU9m5Hj1D-327">
          <mxGeometry x="88" y="19" width="18" height="16" as="geometry" />
        </mxCell>
        <mxCell id="Equ55bX3IU3hU9m5Hj1D-339" value="" style="rounded=0;whiteSpace=wrap;html=1;fillColor=#000000;strokeColor=none;" vertex="1" parent="Equ55bX3IU3hU9m5Hj1D-327">
          <mxGeometry x="110" y="19" width="18" height="16" as="geometry" />
        </mxCell>
        <mxCell id="Equ55bX3IU3hU9m5Hj1D-340" value="" style="rounded=0;whiteSpace=wrap;html=1;fillColor=#000000;strokeColor=none;" vertex="1" parent="Equ55bX3IU3hU9m5Hj1D-327">
          <mxGeometry x="132" width="18" height="16" as="geometry" />
        </mxCell>
        <mxCell id="Equ55bX3IU3hU9m5Hj1D-341" value="" style="rounded=0;whiteSpace=wrap;html=1;fillColor=#000000;strokeColor=none;" vertex="1" parent="Equ55bX3IU3hU9m5Hj1D-327">
          <mxGeometry x="132" y="19" width="18" height="16" as="geometry" />
        </mxCell>
        <mxCell id="Equ55bX3IU3hU9m5Hj1D-342" value="" style="rounded=0;whiteSpace=wrap;html=1;fillColor=#000000;strokeColor=none;" vertex="1" parent="Equ55bX3IU3hU9m5Hj1D-327">
          <mxGeometry x="154" width="18" height="16" as="geometry" />
        </mxCell>
        <mxCell id="Equ55bX3IU3hU9m5Hj1D-343" value="" style="rounded=0;whiteSpace=wrap;html=1;fillColor=#000000;strokeColor=none;" vertex="1" parent="Equ55bX3IU3hU9m5Hj1D-327">
          <mxGeometry x="154" y="19" width="18" height="16" as="geometry" />
        </mxCell>
        <mxCell id="Equ55bX3IU3hU9m5Hj1D-344" value="" style="group" connectable="0" vertex="1" parent="Equ55bX3IU3hU9m5Hj1D-297">
          <mxGeometry x="293" y="17.5" width="172" height="35" as="geometry" />
        </mxCell>
        <mxCell id="Equ55bX3IU3hU9m5Hj1D-345" value="" style="rounded=0;whiteSpace=wrap;html=1;fillColor=#000000;strokeColor=none;" vertex="1" parent="Equ55bX3IU3hU9m5Hj1D-344">
          <mxGeometry x="110" width="18" height="16" as="geometry" />
        </mxCell>
        <mxCell id="Equ55bX3IU3hU9m5Hj1D-346" value="" style="rounded=0;whiteSpace=wrap;html=1;fillColor=#000000;strokeColor=none;" vertex="1" parent="Equ55bX3IU3hU9m5Hj1D-344">
          <mxGeometry x="88" width="18" height="16" as="geometry" />
        </mxCell>
        <mxCell id="Equ55bX3IU3hU9m5Hj1D-347" value="" style="rounded=0;whiteSpace=wrap;html=1;fillColor=#000000;strokeColor=none;" vertex="1" parent="Equ55bX3IU3hU9m5Hj1D-344">
          <mxGeometry x="66" width="18" height="16" as="geometry" />
        </mxCell>
        <mxCell id="Equ55bX3IU3hU9m5Hj1D-348" value="" style="rounded=0;whiteSpace=wrap;html=1;fillColor=#000000;strokeColor=none;" vertex="1" parent="Equ55bX3IU3hU9m5Hj1D-344">
          <mxGeometry x="44" width="18" height="16" as="geometry" />
        </mxCell>
        <mxCell id="Equ55bX3IU3hU9m5Hj1D-349" value="" style="rounded=0;whiteSpace=wrap;html=1;fillColor=#000000;strokeColor=none;" vertex="1" parent="Equ55bX3IU3hU9m5Hj1D-344">
          <mxGeometry x="22" width="18" height="16" as="geometry" />
        </mxCell>
        <mxCell id="Equ55bX3IU3hU9m5Hj1D-350" value="" style="rounded=0;whiteSpace=wrap;html=1;fillColor=#000000;strokeColor=none;" vertex="1" parent="Equ55bX3IU3hU9m5Hj1D-344">
          <mxGeometry width="18" height="16" as="geometry" />
        </mxCell>
        <mxCell id="Equ55bX3IU3hU9m5Hj1D-351" value="" style="rounded=0;whiteSpace=wrap;html=1;fillColor=#000000;strokeColor=none;" vertex="1" parent="Equ55bX3IU3hU9m5Hj1D-344">
          <mxGeometry y="19" width="18" height="16" as="geometry" />
        </mxCell>
        <mxCell id="Equ55bX3IU3hU9m5Hj1D-352" value="" style="rounded=0;whiteSpace=wrap;html=1;fillColor=#000000;strokeColor=none;" vertex="1" parent="Equ55bX3IU3hU9m5Hj1D-344">
          <mxGeometry x="22" y="19" width="18" height="16" as="geometry" />
        </mxCell>
        <mxCell id="Equ55bX3IU3hU9m5Hj1D-353" value="" style="rounded=0;whiteSpace=wrap;html=1;fillColor=#000000;strokeColor=none;" vertex="1" parent="Equ55bX3IU3hU9m5Hj1D-344">
          <mxGeometry x="44" y="19" width="18" height="16" as="geometry" />
        </mxCell>
        <mxCell id="Equ55bX3IU3hU9m5Hj1D-354" value="" style="rounded=0;whiteSpace=wrap;html=1;fillColor=#000000;strokeColor=none;" vertex="1" parent="Equ55bX3IU3hU9m5Hj1D-344">
          <mxGeometry x="66" y="19" width="18" height="16" as="geometry" />
        </mxCell>
        <mxCell id="Equ55bX3IU3hU9m5Hj1D-355" value="" style="rounded=0;whiteSpace=wrap;html=1;fillColor=#000000;strokeColor=none;" vertex="1" parent="Equ55bX3IU3hU9m5Hj1D-344">
          <mxGeometry x="88" y="19" width="18" height="16" as="geometry" />
        </mxCell>
        <mxCell id="Equ55bX3IU3hU9m5Hj1D-356" value="" style="rounded=0;whiteSpace=wrap;html=1;fillColor=#000000;strokeColor=none;" vertex="1" parent="Equ55bX3IU3hU9m5Hj1D-344">
          <mxGeometry x="110" y="19" width="18" height="16" as="geometry" />
        </mxCell>
        <mxCell id="Equ55bX3IU3hU9m5Hj1D-357" value="" style="rounded=0;whiteSpace=wrap;html=1;fillColor=#000000;strokeColor=none;" vertex="1" parent="Equ55bX3IU3hU9m5Hj1D-344">
          <mxGeometry x="132" width="18" height="16" as="geometry" />
        </mxCell>
        <mxCell id="Equ55bX3IU3hU9m5Hj1D-358" value="" style="rounded=0;whiteSpace=wrap;html=1;fillColor=#000000;strokeColor=none;" vertex="1" parent="Equ55bX3IU3hU9m5Hj1D-344">
          <mxGeometry x="132" y="19" width="18" height="16" as="geometry" />
        </mxCell>
        <mxCell id="Equ55bX3IU3hU9m5Hj1D-359" value="" style="rounded=0;whiteSpace=wrap;html=1;fillColor=#000000;strokeColor=none;" vertex="1" parent="Equ55bX3IU3hU9m5Hj1D-344">
          <mxGeometry x="154" width="18" height="16" as="geometry" />
        </mxCell>
        <mxCell id="Equ55bX3IU3hU9m5Hj1D-360" value="" style="rounded=0;whiteSpace=wrap;html=1;fillColor=#000000;strokeColor=none;" vertex="1" parent="Equ55bX3IU3hU9m5Hj1D-344">
          <mxGeometry x="154" y="19" width="18" height="16" as="geometry" />
        </mxCell>
        <mxCell id="Equ55bX3IU3hU9m5Hj1D-361" value="&lt;font style=&quot;font-size: 25px;&quot;&gt;REA-V-SW-PRO-48-FS&lt;/font&gt;" style="text;html=1;align=center;verticalAlign=middle;resizable=0;points=[];autosize=1;strokeColor=none;fillColor=none;" vertex="1" parent="1">
          <mxGeometry x="1584.54" y="980" width="290" height="40" as="geometry" />
        </mxCell>
        <mxCell id="Equ55bX3IU3hU9m5Hj1D-362" value="" style="group" connectable="0" vertex="1" parent="1">
          <mxGeometry x="240" y="190" width="795.46" height="70" as="geometry" />
        </mxCell>
        <mxCell id="Equ55bX3IU3hU9m5Hj1D-363" value="" style="group" connectable="0" vertex="1" parent="Equ55bX3IU3hU9m5Hj1D-362">
          <mxGeometry width="795.46" height="70" as="geometry" />
        </mxCell>
        <mxCell id="Equ55bX3IU3hU9m5Hj1D-364" value="" style="rounded=0;whiteSpace=wrap;html=1;fillColor=#CFCFCF;strokeColor=#000000;shadow=1;aspect=fixed;strokeWidth=2;movable=1;resizable=1;rotatable=1;deletable=1;editable=1;locked=0;connectable=1;" vertex="1" parent="Equ55bX3IU3hU9m5Hj1D-363">
          <mxGeometry width="795.46" height="70" as="geometry" />
        </mxCell>
        <mxCell id="Equ55bX3IU3hU9m5Hj1D-365" value="" style="rounded=0;whiteSpace=wrap;html=1;fillColor=none;strokeColor=#000000;strokeWidth=2;movable=1;resizable=1;rotatable=1;deletable=1;editable=1;locked=0;connectable=1;" vertex="1" parent="Equ55bX3IU3hU9m5Hj1D-363">
          <mxGeometry x="30.19000000000002" width="736" height="70" as="geometry" />
        </mxCell>
        <mxCell id="Equ55bX3IU3hU9m5Hj1D-366" value="" style="group" connectable="0" vertex="1" parent="Equ55bX3IU3hU9m5Hj1D-362">
          <mxGeometry x="42.460000000000036" y="15" width="42" height="40" as="geometry" />
        </mxCell>
        <mxCell id="Equ55bX3IU3hU9m5Hj1D-367" value="" style="rounded=1;whiteSpace=wrap;html=1;fillColor=default;strokeColor=none;" vertex="1" parent="Equ55bX3IU3hU9m5Hj1D-366">
          <mxGeometry width="42" height="40" as="geometry" />
        </mxCell>
        <mxCell id="Equ55bX3IU3hU9m5Hj1D-368" value="" style="fontColor=#000000;verticalAlign=middle;verticalLabelPosition=middle;labelPosition=right;align=left;html=1;outlineConnect=0;fillColor=#d6d6d6;strokeColor=#999;gradientColor=none;gradientDirection=north;strokeWidth=2;shape=stencil(ZZExb8MgEIV/DWOQc6hJPaZpM3Xokrk6Y2JT2eCCXdqlv71HLlGCKoHgfe+E7h1C7WOPkxFQYZyMnoV6FgBfGCw2A2Egp2e4hoq1w9EwOjb2c7GzJfjqO892KsrVi6h2It8rofYnH0wX/OLawrjadsQu9xKD5kf6eZ6iUFR3oJVSklGji34J2kjtR4K/tEfTWqTzLfiPHAIOt7JCJNOQzr1GOp8CunZ1VcslzPtAQE6u4zjf3Mnq4VHWNaOfC9qAhHURGtRW1ptibPcoxygHQuTfTM6Uv+UM/gA=);labelBackgroundColor=none;shadow=0;glass=0;sketch=1;aspect=fixed;" vertex="1" parent="Equ55bX3IU3hU9m5Hj1D-366">
          <mxGeometry x="9" y="8" width="24" height="24" as="geometry" />
        </mxCell>
        <mxCell id="Equ55bX3IU3hU9m5Hj1D-369" value="" style="group" connectable="0" vertex="1" parent="Equ55bX3IU3hU9m5Hj1D-362">
          <mxGeometry x="709.46" y="14.5" width="26" height="41" as="geometry" />
        </mxCell>
        <mxCell id="Equ55bX3IU3hU9m5Hj1D-370" value="" style="group" connectable="0" vertex="1" parent="Equ55bX3IU3hU9m5Hj1D-369">
          <mxGeometry width="26" height="41" as="geometry" />
        </mxCell>
        <mxCell id="Equ55bX3IU3hU9m5Hj1D-371" value="" style="rounded=0;whiteSpace=wrap;html=1;fillColor=#000000;strokeColor=none;" vertex="1" parent="Equ55bX3IU3hU9m5Hj1D-370">
          <mxGeometry width="26" height="16" as="geometry" />
        </mxCell>
        <mxCell id="Equ55bX3IU3hU9m5Hj1D-372" value="" style="rounded=0;whiteSpace=wrap;html=1;fillColor=#000000;strokeColor=none;" vertex="1" parent="Equ55bX3IU3hU9m5Hj1D-370">
          <mxGeometry y="25" width="26" height="16" as="geometry" />
        </mxCell>
        <mxCell id="Equ55bX3IU3hU9m5Hj1D-373" value="" style="rounded=0;whiteSpace=wrap;html=1;fillColor=#000000;strokeColor=none;" vertex="1" parent="Equ55bX3IU3hU9m5Hj1D-362">
          <mxGeometry x="682.46" y="39.5" width="18" height="16" as="geometry" />
        </mxCell>
        <mxCell id="Equ55bX3IU3hU9m5Hj1D-374" value="" style="rounded=0;whiteSpace=wrap;html=1;fillColor=#000000;strokeColor=none;" vertex="1" parent="Equ55bX3IU3hU9m5Hj1D-362">
          <mxGeometry x="682.46" y="14.5" width="18" height="16" as="geometry" />
        </mxCell>
        <mxCell id="Equ55bX3IU3hU9m5Hj1D-375" value="&lt;font style=&quot;font-size: 25px;&quot;&gt;REA-V-UCK&lt;/font&gt;" style="text;html=1;align=center;verticalAlign=middle;resizable=0;points=[];autosize=1;strokeColor=none;fillColor=none;" vertex="1" parent="1">
          <mxGeometry x="240" y="150" width="160" height="40" as="geometry" />
        </mxCell>
        <mxCell id="Equ55bX3IU3hU9m5Hj1D-376" style="edgeStyle=orthogonalEdgeStyle;rounded=0;orthogonalLoop=1;jettySize=auto;html=1;exitX=0.5;exitY=1;exitDx=0;exitDy=0;entryX=0.5;entryY=0;entryDx=0;entryDy=0;" edge="1" parent="1" source="Equ55bX3IU3hU9m5Hj1D-15" target="Equ55bX3IU3hU9m5Hj1D-23">
          <mxGeometry relative="1" as="geometry" />
        </mxCell>
        <mxCell id="Equ55bX3IU3hU9m5Hj1D-377" style="edgeStyle=orthogonalEdgeStyle;rounded=0;orthogonalLoop=1;jettySize=auto;html=1;exitX=0.5;exitY=1;exitDx=0;exitDy=0;entryX=0.5;entryY=0;entryDx=0;entryDy=0;" edge="1" parent="1" source="Equ55bX3IU3hU9m5Hj1D-24" target="Equ55bX3IU3hU9m5Hj1D-184">
          <mxGeometry relative="1" as="geometry" />
        </mxCell>
        <mxCell id="Equ55bX3IU3hU9m5Hj1D-378" style="edgeStyle=orthogonalEdgeStyle;rounded=0;orthogonalLoop=1;jettySize=auto;html=1;exitX=0.5;exitY=0;exitDx=0;exitDy=0;entryX=1;entryY=0.5;entryDx=0;entryDy=0;" edge="1" parent="1" source="Equ55bX3IU3hU9m5Hj1D-32" target="Equ55bX3IU3hU9m5Hj1D-66">
          <mxGeometry relative="1" as="geometry">
            <Array as="points">
              <mxPoint x="885" y="455" />
              <mxPoint x="1140" y="455" />
              <mxPoint x="1140" y="903" />
            </Array>
          </mxGeometry>
        </mxCell>
        <mxCell id="Equ55bX3IU3hU9m5Hj1D-379" style="edgeStyle=orthogonalEdgeStyle;rounded=0;orthogonalLoop=1;jettySize=auto;html=1;exitX=0.5;exitY=1;exitDx=0;exitDy=0;entryX=1;entryY=0.5;entryDx=0;entryDy=0;" edge="1" parent="1" source="Equ55bX3IU3hU9m5Hj1D-33" target="Equ55bX3IU3hU9m5Hj1D-165">
          <mxGeometry relative="1" as="geometry">
            <Array as="points">
              <mxPoint x="885" y="540" />
              <mxPoint x="1100" y="540" />
              <mxPoint x="1100" y="778" />
            </Array>
          </mxGeometry>
        </mxCell>
        <mxCell id="Equ55bX3IU3hU9m5Hj1D-380" style="edgeStyle=orthogonalEdgeStyle;rounded=0;orthogonalLoop=1;jettySize=auto;html=1;exitX=0.5;exitY=0;exitDx=0;exitDy=0;entryX=0.5;entryY=0;entryDx=0;entryDy=0;" edge="1" parent="1" source="Equ55bX3IU3hU9m5Hj1D-34" target="Equ55bX3IU3hU9m5Hj1D-282">
          <mxGeometry relative="1" as="geometry">
            <Array as="points">
              <mxPoint x="857" y="590" />
              <mxPoint x="2303" y="590" />
              <mxPoint x="2303" y="764" />
            </Array>
          </mxGeometry>
        </mxCell>
        <mxCell id="Equ55bX3IU3hU9m5Hj1D-381" style="edgeStyle=orthogonalEdgeStyle;rounded=0;orthogonalLoop=1;jettySize=auto;html=1;exitX=0.5;exitY=0;exitDx=0;exitDy=0;entryX=1;entryY=0.5;entryDx=0;entryDy=0;" edge="1" parent="1" source="Equ55bX3IU3hU9m5Hj1D-37" target="Equ55bX3IU3hU9m5Hj1D-136">
          <mxGeometry relative="1" as="geometry">
            <Array as="points">
              <mxPoint x="829" y="454" />
              <mxPoint x="1220" y="454" />
              <mxPoint x="1220" y="1078" />
            </Array>
          </mxGeometry>
        </mxCell>
        <mxCell id="Equ55bX3IU3hU9m5Hj1D-382" style="edgeStyle=orthogonalEdgeStyle;rounded=0;orthogonalLoop=1;jettySize=auto;html=1;exitX=0.5;exitY=1;exitDx=0;exitDy=0;entryX=0.5;entryY=1;entryDx=0;entryDy=0;" edge="1" parent="1" source="Equ55bX3IU3hU9m5Hj1D-38" target="Equ55bX3IU3hU9m5Hj1D-303">
          <mxGeometry relative="1" as="geometry">
            <Array as="points">
              <mxPoint x="829" y="840" />
              <mxPoint x="2307" y="840" />
            </Array>
          </mxGeometry>
        </mxCell>
        <mxCell id="Equ55bX3IU3hU9m5Hj1D-383" style="edgeStyle=orthogonalEdgeStyle;rounded=0;orthogonalLoop=1;jettySize=auto;html=1;exitX=0;exitY=0.5;exitDx=0;exitDy=0;entryX=-0.002;entryY=0.606;entryDx=0;entryDy=0;entryPerimeter=0;" edge="1" parent="1" source="Equ55bX3IU3hU9m5Hj1D-59" target="Equ55bX3IU3hU9m5Hj1D-225">
          <mxGeometry relative="1" as="geometry">
            <Array as="points">
              <mxPoint x="120" y="483" />
              <mxPoint x="120" y="1276" />
            </Array>
          </mxGeometry>
        </mxCell>
        <mxCell id="Equ55bX3IU3hU9m5Hj1D-384" style="edgeStyle=orthogonalEdgeStyle;rounded=0;orthogonalLoop=1;jettySize=auto;html=1;exitX=0;exitY=0.5;exitDx=0;exitDy=0;" edge="1" parent="1" source="Equ55bX3IU3hU9m5Hj1D-60">
          <mxGeometry relative="1" as="geometry">
            <mxPoint x="240" y="1279" as="targetPoint" />
            <Array as="points">
              <mxPoint x="140" y="507" />
              <mxPoint x="140" y="1279" />
            </Array>
          </mxGeometry>
        </mxCell>
        <mxCell id="Equ55bX3IU3hU9m5Hj1D-385" style="edgeStyle=orthogonalEdgeStyle;rounded=0;orthogonalLoop=1;jettySize=auto;html=1;exitX=0.5;exitY=0;exitDx=0;exitDy=0;entryX=0.004;entryY=0.664;entryDx=0;entryDy=0;entryPerimeter=0;" edge="1" parent="1" source="Equ55bX3IU3hU9m5Hj1D-57" target="Equ55bX3IU3hU9m5Hj1D-225">
          <mxGeometry relative="1" as="geometry">
            <mxPoint x="210" y="1270" as="targetPoint" />
            <Array as="points">
              <mxPoint x="549" y="455" />
              <mxPoint x="80" y="455" />
              <mxPoint x="80" y="1280" />
            </Array>
          </mxGeometry>
        </mxCell>
        <mxCell id="Equ55bX3IU3hU9m5Hj1D-386" style="edgeStyle=orthogonalEdgeStyle;rounded=0;orthogonalLoop=1;jettySize=auto;html=1;exitX=0.5;exitY=1;exitDx=0;exitDy=0;entryX=-0.002;entryY=0.778;entryDx=0;entryDy=0;entryPerimeter=0;" edge="1" parent="1" source="Equ55bX3IU3hU9m5Hj1D-58" target="Equ55bX3IU3hU9m5Hj1D-225">
          <mxGeometry relative="1" as="geometry">
            <Array as="points">
              <mxPoint x="160" y="516" />
              <mxPoint x="160" y="1287" />
            </Array>
          </mxGeometry>
        </mxCell>
        <mxCell id="Equ55bX3IU3hU9m5Hj1D-387" style="edgeStyle=orthogonalEdgeStyle;rounded=0;orthogonalLoop=1;jettySize=auto;html=1;exitX=0;exitY=0.5;exitDx=0;exitDy=0;entryX=0.5;entryY=1;entryDx=0;entryDy=0;" edge="1" parent="1" source="Equ55bX3IU3hU9m5Hj1D-158" target="Equ55bX3IU3hU9m5Hj1D-16">
          <mxGeometry relative="1" as="geometry">
            <Array as="points">
              <mxPoint x="40" y="775" />
              <mxPoint x="40" y="420" />
              <mxPoint x="931" y="420" />
            </Array>
          </mxGeometry>
        </mxCell>
        <mxCell id="Equ55bX3IU3hU9m5Hj1D-388" value="&lt;font style=&quot;font-size: 25px;&quot;&gt;Fairs&lt;/font&gt;&lt;span style=&quot;font-size: 25px; background-color: initial;&quot;&gt;tore&lt;/span&gt;" style="text;html=1;align=center;verticalAlign=middle;resizable=0;points=[];autosize=1;strokeColor=none;fillColor=none;" vertex="1" parent="1">
          <mxGeometry x="1584.54" y="930" width="120" height="40" as="geometry" />
        </mxCell>
        <mxCell id="Equ55bX3IU3hU9m5Hj1D-389" value="&lt;font style=&quot;font-size: 25px;&quot;&gt;Recommerce&lt;/font&gt;" style="text;html=1;align=center;verticalAlign=middle;resizable=0;points=[];autosize=1;strokeColor=none;fillColor=none;" vertex="1" parent="1">
          <mxGeometry x="1570" y="630" width="170" height="40" as="geometry" />
        </mxCell>
        <mxCell id="Equ55bX3IU3hU9m5Hj1D-390" value="&lt;font style=&quot;font-size: 25px;&quot;&gt;Digital&lt;/font&gt;" style="text;html=1;align=center;verticalAlign=middle;resizable=0;points=[];autosize=1;strokeColor=none;fillColor=none;" vertex="1" parent="1">
          <mxGeometry x="1580" y="360" width="90" height="40" as="geometry" />
        </mxCell>
        <mxCell id="Equ55bX3IU3hU9m5Hj1D-391" value="&lt;font style=&quot;font-size: 25px;&quot;&gt;Rack&lt;/font&gt;&lt;span style=&quot;font-size: 25px; background-color: initial;&quot;&gt;&amp;nbsp;Viguet&lt;/span&gt;" style="text;html=1;align=center;verticalAlign=middle;resizable=0;points=[];autosize=1;strokeColor=none;fillColor=none;" vertex="1" parent="1">
          <mxGeometry x="240" y="90" width="160" height="40" as="geometry" />
        </mxCell>
      </root>
    </mxGraphModel>
  </diagram>
</mxfile>
